CommissionerLoud-ExtraLight.ufo
<glyph name="numbersign" format="2">
  <advance width="674.6210526315789"/>
  <unicode hex="0023"/>
  <outline>
    <contour>
      <point x="19.157894736842106" y="163.18947368421053" type="line"/>
      <point x="78.58947368421053" y="164.35789473684213"/>
      <point x="146.34736842105264" y="165.5263157894737"/>
      <point x="183.2" y="165.69473684210527" type="curve"/>
      <point x="431.85263157894735" y="165.69473684210527" type="line"/>
      <point x="468.70526315789476" y="165.5263157894737"/>
      <point x="536.4631578947368" y="164.35789473684213"/>
      <point x="595.8947368421053" y="163.18947368421053" type="curve"/>
      <point x="595.8947368421053" y="207.31578947368422" type="line"/>
      <point x="536.4631578947368" y="206.14736842105262"/>
      <point x="468.70526315789476" y="204.97894736842105"/>
      <point x="431.85263157894735" y="204.81052631578947" type="curve"/>
      <point x="183.2" y="204.81052631578947" type="line"/>
      <point x="146.34736842105264" y="204.97894736842105"/>
      <point x="78.58947368421053" y="206.14736842105262"/>
      <point x="19.157894736842106" y="207.31578947368422" type="curve"/>
    </contour>
    <contour>
      <point x="123.62105263157895" y="0.0" type="curve"/>
      <point x="172.0105263157895" y="0.0" type="line"/>
      <point x="185.33684210526314" y="67.16842105263157"/>
      <point x="196.83157894736843" y="125.7578947368421"/>
      <point x="213.07368421052632" y="209.8421052631579" type="curve"/>
      <point x="261.06315789473683" y="435.4315789473684" type="line"/>
      <point x="280.1473684210526" y="522.7684210526317"/>
      <point x="294.06315789473683" y="581.6842105263157"/>
      <point x="310.06315789473683" y="654.6842105263158" type="curve"/>
      <point x="261.84210526315786" y="654.6842105263158" type="line"/>
      <point x="248.43157894736842" y="584.0105263157894"/>
      <point x="237.10526315789474" y="525.3473684210526"/>
      <point x="219.03157894736842" y="437.2631578947368" type="curve"/>
      <point x="171.0421052631579" y="209.8421052631579" type="line"/>
      <point x="151.8736842105263" y="125.58947368421053"/>
      <point x="138.62105263157895" y="66.83157894736841"/>
    </contour>
    <contour>
      <point x="78.72631578947369" y="444.3684210526316" type="line"/>
      <point x="138.1578947368421" y="445.53684210526313"/>
      <point x="205.9157894736842" y="446.70526315789476"/>
      <point x="242.76842105263157" y="446.87368421052633" type="curve"/>
      <point x="491.42105263157896" y="446.87368421052633" type="line"/>
      <point x="528.2736842105263" y="446.70526315789476"/>
      <point x="596.0315789473684" y="445.53684210526313"/>
      <point x="655.4631578947368" y="444.3684210526316" type="curve"/>
      <point x="655.4631578947368" y="488.4947368421052" type="line"/>
      <point x="596.0315789473684" y="487.3263157894737"/>
      <point x="528.2736842105263" y="486.1578947368421"/>
      <point x="491.42105263157896" y="485.9894736842105" type="curve"/>
      <point x="242.76842105263157" y="485.9894736842105" type="line"/>
      <point x="205.9157894736842" y="486.1578947368421"/>
      <point x="138.1578947368421" y="487.3263157894737"/>
      <point x="78.72631578947369" y="488.4947368421052" type="curve"/>
    </contour>
    <contour>
      <point x="356.14736842105265" y="0.0" type="curve"/>
      <point x="404.5368421052632" y="0.0" type="line"/>
      <point x="417.86315789473684" y="67.16842105263157"/>
      <point x="429.3578947368421" y="125.7578947368421"/>
      <point x="445.6" y="209.8421052631579" type="curve"/>
      <point x="493.58947368421053" y="435.4315789473684" type="line"/>
      <point x="512.6736842105264" y="522.7684210526317"/>
      <point x="526.5894736842105" y="581.6842105263157"/>
      <point x="542.5894736842105" y="654.6842105263158" type="curve"/>
      <point x="494.36842105263156" y="654.6842105263158" type="line"/>
      <point x="480.9578947368421" y="584.0105263157894"/>
      <point x="469.63157894736844" y="525.3473684210526"/>
      <point x="451.5578947368421" y="437.2631578947368" type="curve"/>
      <point x="403.5684210526316" y="209.8421052631579" type="line"/>
      <point x="384.40000000000003" y="125.58947368421053"/>
      <point x="371.1473684210526" y="66.83157894736841"/>
    </contour>
  </outline>
</glyph>
<glyph name="dollar" format="2">
  <advance width="555.0315789473684"/>
  <unicode hex="0024"/>
  <outline>
    <contour>
      <point x="289.2421052631579" y="-9.505263157894737" type="curve" smooth="yes"/>
      <point x="441.70526315789476" y="-9.505263157894737"/>
      <point x="509.4736842105263" y="75.98947368421052"/>
      <point x="509.4736842105263" y="179.52631578947367" type="curve" smooth="yes"/>
      <point x="509.4736842105263" y="270.5578947368421"/>
      <point x="458.30526315789473" y="318.7263157894737"/>
      <point x="294.5578947368421" y="372.88421052631577" type="curve" smooth="yes"/>
      <point x="164.68421052631578" y="416.11578947368423"/>
      <point x="109.28421052631579" y="443.8421052631579"/>
      <point x="109.28421052631579" y="519.2947368421053" type="curve" smooth="yes"/>
      <point x="109.28421052631579" y="612.8947368421053"/>
      <point x="188.9157894736842" y="649.621052631579"/>
      <point x="275.29473684210524" y="651.4526315789474" type="curve"/>
      <point x="296.87368421052633" y="651.4526315789474"/>
      <point x="382.46315789473687" y="624.621052631579"/>
      <point x="460.22105263157897" y="594.621052631579" type="curve"/>
      <point x="467.89473684210526" y="644.6" type="line"/>
      <point x="416.62105263157895" y="661.4315789473684"/>
      <point x="313.5263157894737" y="696.3368421052631"/>
      <point x="274.6736842105263" y="696.3368421052631" type="curve" smooth="yes"/>
      <point x="136.96842105263158" y="696.3368421052631"/>
      <point x="62.54736842105263" y="618.4105263157895"/>
      <point x="62.54736842105263" y="519.2105263157895" type="curve" smooth="yes"/>
      <point x="62.54736842105263" y="418.2631578947368"/>
      <point x="137.9578947368421" y="376.5052631578947"/>
      <point x="270.61052631578946" y="333.5157894736842" type="curve" smooth="yes"/>
      <point x="390.1684210526316" y="294.77894736842103"/>
      <point x="462.82105263157894" y="263.22105263157897"/>
      <point x="462.82105263157894" y="180.10526315789474" type="curve" smooth="yes"/>
      <point x="462.82105263157894" y="73.76842105263158"/>
      <point x="385.11578947368423" y="36.873684210526314"/>
      <point x="288.4" y="35.04210526315789" type="curve"/>
      <point x="243.0105263157895" y="35.04210526315789"/>
      <point x="164.73684210526318" y="60.126315789473686"/>
      <point x="76.81052631578947" y="92.9578947368421" type="curve"/>
      <point x="70.88421052631578" y="41.72631578947368" type="line"/>
      <point x="150.5578947368421" y="15.652631578947368"/>
      <point x="241.32631578947368" y="-9.505263157894737"/>
    </contour>
    <contour>
      <point x="259.4526315789473" y="-137.0" type="curve"/>
      <point x="306.0842105263158" y="-137.0" type="line"/>
      <point x="304.74736842105267" y="0.9999999999999998"/>
      <point x="303.3263157894737" y="154.0"/>
      <point x="303.2421052631579" y="192.0" type="curve"/>
      <point x="303.2421052631579" y="474.0" type="line"/>
      <point x="303.3263157894737" y="512.0"/>
      <point x="304.74736842105267" y="665.0"/>
      <point x="306.0842105263158" y="803.0" type="curve"/>
      <point x="259.4526315789473" y="803.0" type="line"/>
      <point x="260.78947368421046" y="665.0"/>
      <point x="262.2105263157894" y="512.0"/>
      <point x="262.29473684210524" y="474.0" type="curve"/>
      <point x="262.29473684210524" y="192.0" type="line"/>
      <point x="262.2105263157894" y="154.0"/>
      <point x="260.78947368421046" y="1.0"/>
    </contour>
  </outline>
</glyph>
<glyph name="ampersand" format="2">
  <advance width="717.7241379310344"/>
  <unicode hex="0026"/>
  <outline>
    <contour>
      <point x="629.3333333333334" y="0.0" type="curve"/>
      <point x="701.0344827586207" y="0.0" type="line"/>
      <point x="644.0114942528735" y="54.57471264367816"/>
      <point x="586.9885057471264" y="109.96551724137932"/>
      <point x="528.9655172413793" y="165.35632183908046" type="curve"/>
      <point x="293.01149425287355" y="397.0689655172414" type="line" smooth="yes"/>
      <point x="227.13793103448276" y="461.4942528735632"/>
      <point x="197.16091954022988" y="505.02298850574715"/>
      <point x="197.16091954022988" y="563.3448275862069" type="curve" smooth="yes"/>
      <point x="197.16091954022988" y="631.1149425287356"/>
      <point x="238.77011494252875" y="681.7011494252874"/>
      <point x="310.62068965517244" y="683.8850574712644" type="curve"/>
      <point x="373.7586206896552" y="681.7011494252874"/>
      <point x="418.735632183908" y="640.9080459770115"/>
      <point x="418.735632183908" y="572.4252873563219" type="curve" smooth="yes"/>
      <point x="418.735632183908" y="515.6781609195402"/>
      <point x="348.0459770114943" y="465.3103448275862"/>
      <point x="271.82758620689657" y="411.78160919540227" type="curve"/>
      <point x="299.2873563218391" y="381.0574712643678" type="line"/>
      <point x="377.6551724137931" y="437.00000000000006"/>
      <point x="464.08045977011494" y="497.1034482758621"/>
      <point x="464.08045977011494" y="572.9770114942529" type="curve" smooth="yes"/>
      <point x="464.08045977011494" y="668.0"/>
      <point x="394.2183908045977" y="725.3678160919541"/>
      <point x="309.51724137931035" y="725.3678160919541" type="curve" smooth="yes"/>
      <point x="221.28735632183907" y="725.3678160919541"/>
      <point x="149.97701149425288" y="661.735632183908"/>
      <point x="149.97701149425288" y="563.1609195402299" type="curve" smooth="yes"/>
      <point x="149.97701149425288" y="488.264367816092"/>
      <point x="191.05747126436782" y="434.08045977011494"/>
      <point x="257.2183908045977" y="369.0" type="curve" smooth="yes"/>
      <point x="494.2758620689655" y="136.0" type="line"/>
      <point x="539.3563218390805" y="91.0"/>
      <point x="585.2528735632184" y="44.0"/>
    </contour>
    <contour>
      <point x="273.7931034482758" y="-9.367816091954023" type="curve" smooth="yes"/>
      <point x="335.81609195402297" y="-9.367816091954023"/>
      <point x="401.34482758620686" y="36.712643678160916"/>
      <point x="503.8735632183908" y="120.11494252873563" type="curve"/>
      <point x="516.0574712643678" y="120.11494252873563" type="line"/>
      <point x="513.3218390804598" y="133.32183908045977" type="line"/>
      <point x="483.35632183908046" y="159.33333333333334" type="line"/>
      <point x="381.50574712643675" y="73.32183908045977"/>
      <point x="319.32183908045977" y="33.95402298850575"/>
      <point x="276.91954022988506" y="33.95402298850575" type="curve"/>
      <point x="165.82758620689654" y="36.13793103448276"/>
      <point x="103.13793103448276" y="93.19540229885058"/>
      <point x="103.13793103448276" y="184.49425287356323" type="curve" smooth="yes"/>
      <point x="103.13793103448276" y="278.2413793103448"/>
      <point x="173.4367816091954" y="335.2183908045977"/>
      <point x="264.4712643678161" y="376.82758620689657" type="curve"/>
      <point x="242.8505747126437" y="411.4712643678161" type="line"/>
      <point x="155.11494252873564" y="371.4712643678161"/>
      <point x="56.689655172413794" y="304.1034482758621"/>
      <point x="56.689655172413794" y="182.10344827586206" type="curve" smooth="yes"/>
      <point x="56.689655172413794" y="77.44827586206897"/>
      <point x="129.05747126436782" y="-9.367816091954023"/>
    </contour>
    <contour>
      <point x="534.8045977011494" y="153.1494252873563" type="line"/>
      <point x="577.4597701149426" y="215.41379310344828"/>
      <point x="618.9310344827586" y="275.67816091954023"/>
      <point x="661.4022988505747" y="338.1264367816092" type="curve"/>
      <point x="615.6091954022988" y="365.5057471264368" type="line"/>
      <point x="577.9770114942528" y="302.8735632183908"/>
      <point x="542.3448275862069" y="244.87356321839079"/>
      <point x="503.08045977011494" y="179.60919540229884" type="curve"/>
    </contour>
  </outline>
</glyph>
<glyph name="parenleft" format="2">
  <advance width="370.4842105263158"/>
  <unicode hex="0028"/>
  <outline>
    <contour>
      <point x="280.2315789473684" y="-114.77894736842106" type="curve"/>
      <point x="325.1894736842105" y="-95.82105263157895" type="line"/>
      <point x="223.2736842105263" y="24.28421052631579"/>
      <point x="114.8" y="164.8421052631579"/>
      <point x="114.8" y="323.9157894736842" type="curve" smooth="yes"/>
      <point x="114.8" y="483.9052631578947"/>
      <point x="223.2736842105263" y="623.5473684210526"/>
      <point x="325.1894736842105" y="743.6526315789474" type="curve"/>
      <point x="280.2315789473684" y="762.6105263157895" type="line"/>
      <point x="183.32631578947368" y="640.5368421052631"/>
      <point x="66.63157894736842" y="496.3684210526317"/>
      <point x="66.63157894736842" y="323.9157894736842" type="curve" smooth="yes"/>
      <point x="66.63157894736842" y="152.37894736842105"/>
      <point x="183.32631578947368" y="7.294736842105264"/>
    </contour>
  </outline>
</glyph>
<glyph name="asterisk" format="2">
  <advance width="462.63157894736844"/>
  <unicode hex="002A"/>
  <outline>
    <contour>
      <point x="411.09473684210525" y="380.7894736842106" type="curve"/>
      <point x="434.6421052631579" y="418.87368421052633" type="line"/>
      <point x="369.8842105263158" y="456.2"/>
      <point x="304.12631578947367" y="493.3578947368421"/>
      <point x="239.3684210526316" y="530.6842105263158" type="curve"/>
      <point x="176.45263157894738" y="573.1894736842105"/>
      <point x="113.53684210526316" y="614.9473684210527"/>
      <point x="51.536842105263155" y="656.5368421052631" type="curve"/>
      <point x="27.989473684210527" y="618.3684210526316" type="line"/>
      <point x="92.74736842105264" y="581.0421052631579"/>
      <point x="158.42105263157896" y="543.8842105263158"/>
      <point x="224.17894736842106" y="505.64210526315793" type="curve"/>
      <point x="286.17894736842106" y="464.05263157894734"/>
      <point x="349.09473684210525" y="422.37894736842105"/>
    </contour>
    <contour>
      <point x="51.62105263157895" y="380.70526315789476" type="line"/>
      <point x="113.62105263157895" y="422.378947368421"/>
      <point x="176.45263157894738" y="464.05263157894734"/>
      <point x="239.3684210526316" y="506.6421052631579" type="curve"/>
      <point x="304.12631578947367" y="543.8842105263158"/>
      <point x="369.8" y="581.2105263157895"/>
      <point x="434.55789473684206" y="618.4526315789473" type="curve"/>
      <point x="411.01052631578943" y="656.6210526315789" type="line"/>
      <point x="349.0105263157895" y="614.9473684210527"/>
      <point x="286.17894736842106" y="573.2736842105263"/>
      <point x="224.17894736842106" y="531.6" type="curve"/>
      <point x="158.50526315789475" y="493.44210526315794"/>
      <point x="92.74736842105264" y="456.2"/>
      <point x="27.989473684210527" y="418.95789473684215" type="curve"/>
    </contour>
    <contour>
      <point x="208.6421052631579" y="292.90526315789475" type="curve"/>
      <point x="253.9894736842105" y="292.90526315789475" type="line"/>
      <point x="251.2315789473684" y="368.1578947368421"/>
      <point x="248.38947368421051" y="443.41052631578947"/>
      <point x="245.6315789473684" y="519.578947368421" type="curve"/>
      <point x="248.38947368421051" y="593.9157894736842"/>
      <point x="251.14736842105262" y="669.1684210526316"/>
      <point x="253.90526315789472" y="744.421052631579" type="curve"/>
      <point x="208.6421052631579" y="744.421052631579" type="line"/>
      <point x="211.4" y="669.1684210526316"/>
      <point x="214.2421052631579" y="593.9157894736842"/>
      <point x="217.0" y="519.578947368421" type="curve"/>
      <point x="214.2421052631579" y="443.41052631578947"/>
      <point x="211.4" y="368.1578947368421"/>
    </contour>
  </outline>
</glyph>
<glyph name="plus" format="2">
  <advance width="582.5263157894736"/>
  <unicode hex="002B"/>
  <outline>
    <contour>
      <point x="266.7684210526316" y="63.23157894736842" type="curve"/>
      <point x="315.7578947368421" y="63.23157894736842" type="line"/>
      <point x="314.5894736842106" y="122.66315789473684"/>
      <point x="313.42105263157896" y="190.42105263157893"/>
      <point x="313.2526315789474" y="227.2736842105263" type="curve"/>
      <point x="313.2526315789474" y="365.0842105263158" type="line"/>
      <point x="313.42105263157896" y="401.93684210526317"/>
      <point x="314.5894736842106" y="469.69473684210527"/>
      <point x="315.7578947368421" y="529.1263157894737" type="curve"/>
      <point x="266.7684210526316" y="529.1263157894737" type="line"/>
      <point x="267.9368421052631" y="469.69473684210527"/>
      <point x="269.10526315789474" y="401.93684210526317"/>
      <point x="269.2736842105263" y="365.0842105263158" type="curve"/>
      <point x="269.2736842105263" y="227.2736842105263" type="line"/>
      <point x="269.10526315789474" y="190.42105263157893"/>
      <point x="267.9368421052631" y="122.66315789473684"/>
    </contour>
    <contour>
      <point x="67.47368421052632" y="271.93684210526317" type="line"/>
      <point x="126.90526315789474" y="273.1052631578947"/>
      <point x="194.66315789473683" y="274.2736842105263"/>
      <point x="231.5157894736842" y="274.4421052631579" type="curve"/>
      <point x="351.0105263157895" y="274.4421052631579" type="line"/>
      <point x="387.86315789473684" y="274.2736842105263"/>
      <point x="455.62105263157895" y="273.1052631578947"/>
      <point x="515.0526315789474" y="271.93684210526317" type="curve"/>
      <point x="515.0526315789474" y="320.4210526315789" type="line"/>
      <point x="455.62105263157895" y="319.2526315789474"/>
      <point x="387.86315789473684" y="318.08421052631576"/>
      <point x="351.0105263157895" y="317.9157894736842" type="curve"/>
      <point x="231.5157894736842" y="317.9157894736842" type="line"/>
      <point x="194.66315789473683" y="318.08421052631576"/>
      <point x="126.90526315789474" y="319.2526315789474"/>
      <point x="67.47368421052632" y="320.4210526315789" type="curve"/>
    </contour>
  </outline>
</glyph>
<glyph name="comma" format="2">
  <advance width="219.13684210526316"/>
  <unicode hex="002C"/>
  <outline>
    <contour>
      <point x="53.9578947368421" y="-157.0" type="curve"/>
      <point x="83.69473684210527" y="-155.9157894736842" type="line"/>
      <point x="112.45263157894738" y="-90.68421052631578"/>
      <point x="160.25263157894736" y="10.263157894736842"/>
      <point x="160.25263157894736" y="47.62105263157895" type="curve" smooth="yes"/>
      <point x="160.25263157894736" y="75.41052631578947"/>
      <point x="147.56842105263158" y="95.52631578947368"/>
      <point x="121.10526315789474" y="97.28421052631579" type="curve"/>
      <point x="87.61052631578947" y="95.61052631578947" type="line"/>
      <point x="89.2" y="69.0"/>
      <point x="91.62105263157895" y="42.38947368421053"/>
      <point x="92.9578947368421" y="16.28421052631579" type="curve"/>
      <point x="81.12631578947368" y="-41.22105263157894"/>
      <point x="68.70526315789473" y="-98.08421052631579"/>
    </contour>
  </outline>
</glyph>
<glyph name="hyphen" format="2">
  <advance width="420.8421052631579"/>
  <unicode hex="002D"/>
  <outline>
    <contour>
      <point x="67.47368421052632" y="271.5157894736842" type="line"/>
      <point x="119.48421052631579" y="272.6842105263157"/>
      <point x="177.9894736842105" y="273.85263157894735"/>
      <point x="210.42105263157896" y="274.0210526315789" type="curve"/>
      <point x="242.85263157894738" y="273.85263157894735"/>
      <point x="301.3578947368421" y="272.6842105263157"/>
      <point x="353.36842105263156" y="271.5157894736842" type="curve"/>
      <point x="353.36842105263156" y="320.0" type="line"/>
      <point x="301.3578947368421" y="318.8315789473685"/>
      <point x="242.85263157894738" y="317.66315789473686"/>
      <point x="210.42105263157896" y="317.4947368421053" type="curve"/>
      <point x="177.9894736842105" y="317.66315789473686"/>
      <point x="119.48421052631579" y="318.8315789473685"/>
      <point x="67.47368421052632" y="320.0" type="curve"/>
    </contour>
  </outline>
</glyph>
<glyph name="period" format="2">
  <advance width="219.90526315789472"/>
  <unicode hex="002E"/>
  <outline>
    <contour>
      <point x="110.36842105263158" y="-9.589473684210526" type="curve" smooth="yes"/>
      <point x="142.49473684210525" y="-9.589473684210526"/>
      <point x="161.93684210526317" y="6.852631578947369"/>
      <point x="161.93684210526317" y="45.23157894736842" type="curve" smooth="yes"/>
      <point x="161.93684210526317" y="77.34736842105264"/>
      <point x="142.49473684210525" y="92.62105263157895"/>
      <point x="110.45263157894738" y="92.62105263157895" type="curve" smooth="yes"/>
      <point x="79.2421052631579" y="92.62105263157895"/>
      <point x="58.88421052631579" y="77.34736842105264"/>
      <point x="58.88421052631579" y="45.23157894736842" type="curve" smooth="yes"/>
      <point x="58.88421052631579" y="6.852631578947369"/>
      <point x="79.2421052631579" y="-9.589473684210526"/>
    </contour>
  </outline>
</glyph>
<glyph name="slash" format="2">
  <advance width="441.95789473684215"/>
  <unicode hex="002F"/>
  <outline>
    <contour>
      <point x="34.463157894736845" y="0.0" type="curve"/>
      <point x="88.89473684210526" y="0.0" type="line"/>
      <point x="120.88421052631578" y="74.0"/>
      <point x="147.95789473684212" y="136.0"/>
      <point x="187.69473684210524" y="228.0" type="curve"/>
      <point x="297.5052631578947" y="474.0" type="line"/>
      <point x="341.0842105263158" y="569.0"/>
      <point x="370.74736842105267" y="632.9157894736842"/>
      <point x="407.4947368421052" y="713.0" type="curve"/>
      <point x="353.1473684210526" y="713.0" type="line"/>
      <point x="320.15789473684214" y="636.9157894736842"/>
      <point x="292.0842105263158" y="571.9157894736842"/>
      <point x="250.43157894736842" y="476.0" type="curve"/>
      <point x="139.62105263157895" y="228.0" type="line"/>
      <point x="97.04210526315791" y="136.25263157894736"/>
      <point x="68.29473684210527" y="73.25263157894737"/>
    </contour>
  </outline>
</glyph>
<glyph name="one" format="2">
  <advance width="414.90526315789475"/>
  <unicode hex="0031"/>
  <outline>
    <contour>
      <point x="51.43157894736842" y="510.5368421052632" type="line"/>
      <point x="123.93684210526317" y="553.2842105263157"/>
      <point x="197.18947368421053" y="595.9473684210526"/>
      <point x="269.86315789473684" y="638.7789473684211" type="curve"/>
      <point x="270.62105263157895" y="686.8421052631579" type="line"/>
      <point x="192.43157894736842" y="644.0947368421052"/>
      <point x="114.41052631578948" y="602.3473684210526"/>
      <point x="36.22105263157895" y="559.6" type="curve"/>
    </contour>
    <contour>
      <point x="244.34736842105264" y="0.0" type="curve"/>
      <point x="298.79999999999995" y="0.0" type="line"/>
      <point x="297.378947368421" y="74.57894736842105"/>
      <point x="296.04210526315785" y="139.07368421052632"/>
      <point x="294.53684210526313" y="220.32631578947368" type="curve"/>
      <point x="294.53684210526313" y="447.1684210526316" type="line"/>
      <point x="295.9578947368421" y="531.6631578947369"/>
      <point x="297.37894736842105" y="611.578947368421"/>
      <point x="298.79999999999995" y="684.5052631578948" type="curve"/>
      <point x="270.62105263157895" y="686.8421052631579" type="line"/>
      <point x="245.93684210526317" y="662.021052631579" type="line"/>
      <point x="246.18947368421053" y="588.6947368421053"/>
      <point x="247.4421052631579" y="506.2947368421053"/>
      <point x="247.69473684210527" y="443.0421052631579" type="curve"/>
      <point x="247.69473684210527" y="220.32631578947368" type="line"/>
      <point x="246.18947368421053" y="139.07368421052632"/>
      <point x="245.7684210526316" y="74.57894736842105"/>
    </contour>
  </outline>
</glyph>
<glyph name="two" format="2">
  <advance width="546.5368421052632"/>
  <unicode hex="0032"/>
  <outline>
    <contour>
      <point x="51.65263157894737" y="0.0" type="line"/>
      <point x="488.6421052631579" y="0.0" type="line"/>
      <point x="488.6421052631579" y="48.410526315789475" type="line"/>
      <point x="408.66315789473686" y="46.90526315789474"/>
      <point x="327.8526315789474" y="45.4"/>
      <point x="247.53684210526316" y="43.810526315789474" type="curve"/>
      <point x="100.15789473684211" y="43.810526315789474" type="line"/>
      <point x="109.67368421052632" y="32.863157894736844" type="line"/>
      <point x="227.6421052631579" y="136.73684210526315" type="line"/>
      <point x="386.1894736842105" y="276.6"/>
      <point x="472.82105263157894" y="389.0"/>
      <point x="472.82105263157894" y="506.3157894736842" type="curve" smooth="yes"/>
      <point x="472.82105263157894" y="623.1684210526316"/>
      <point x="398.38947368421054" y="696.8421052631579"/>
      <point x="267.93684210526317" y="696.8421052631579" type="curve" smooth="yes"/>
      <point x="223.2736842105263" y="696.8421052631579"/>
      <point x="102.74736842105263" y="656.6842105263157"/>
      <point x="48.56842105263158" y="637.021052631579" type="curve"/>
      <point x="55.578947368421055" y="584.7789473684211" type="line"/>
      <point x="143.22105263157894" y="621.021052631579"/>
      <point x="238.90526315789475" y="651.5368421052632"/>
      <point x="263.7263157894737" y="651.5368421052632" type="curve"/>
      <point x="371.1684210526316" y="650.3684210526316"/>
      <point x="424.4736842105263" y="601.3157894736842"/>
      <point x="424.4736842105263" y="502.70526315789476" type="curve" smooth="yes"/>
      <point x="424.4736842105263" y="392.2421052631579"/>
      <point x="334.0736842105263" y="287.8631578947368"/>
      <point x="181.45263157894738" y="151.98947368421054" type="curve"/>
      <point x="138.46315789473684" y="115.42105263157895"/>
      <point x="94.6421052631579" y="78.02105263157895"/>
      <point x="51.65263157894737" y="41.452631578947376" type="curve"/>
    </contour>
  </outline>
</glyph>
<glyph name="four" format="2">
  <advance width="592.3103448275862"/>
  <unicode hex="0034"/>
  <outline>
    <contour>
      <point x="372.0919540229885" y="0.0" type="curve"/>
      <point x="426.5862068965517" y="0.0" type="line"/>
      <point x="425.2183908045977" y="61.735632183908045"/>
      <point x="423.85057471264366" y="109.65517241379311"/>
      <point x="422.2988505747126" y="184.57471264367817" type="curve"/>
      <point x="422.2988505747126" y="443.55172413793105" type="line"/>
      <point x="423.85057471264366" y="521.551724137931"/>
      <point x="425.2183908045977" y="601.551724137931"/>
      <point x="426.5862068965517" y="684.551724137931" type="curve"/>
      <point x="371.01149425287355" y="684.551724137931" type="line"/>
      <point x="339.74712643678157" y="638.2873563218391"/>
      <point x="307.48275862068965" y="590.8390804597701"/>
      <point x="276.2183908045977" y="544.5747126436781" type="curve"/>
      <point x="185.50574712643677" y="416.2298850574713" type="line"/>
      <point x="138.24137931034483" y="350.7011494252874"/>
      <point x="76.16091954022988" y="264.5402298850575"/>
      <point x="33.52873563218391" y="205.45977011494253" type="curve"/>
      <point x="33.52873563218391" y="165.68965517241378" type="line"/>
      <point x="401.97701149425285" y="165.68965517241378" type="line"/>
      <point x="450.632183908046" y="165.32183908045977"/>
      <point x="521.8390804597701" y="164.13793103448276"/>
      <point x="566.3103448275862" y="162.95402298850573" type="curve"/>
      <point x="566.3103448275862" y="212.4022988505747" type="line"/>
      <point x="521.8390804597701" y="211.2183908045977"/>
      <point x="450.632183908046" y="209.85057471264366"/>
      <point x="401.97701149425285" y="209.48275862068965" type="curve"/>
      <point x="388.60919540229884" y="209.48275862068965" type="line"/>
      <point x="74.2183908045977" y="209.48275862068965" type="line"/>
      <point x="80.13793103448276" y="190.33333333333334" type="line"/>
      <point x="112.40229885057472" y="237.41379310344828"/>
      <point x="143.48275862068965" y="283.4942528735632"/>
      <point x="175.7471264367816" y="330.7586206896552" type="curve"/>
      <point x="300.54022988505744" y="507.632183908046" type="line"/>
      <point x="338.8045977011494" y="561.1609195402299"/>
      <point x="377.0689655172414" y="615.5057471264369"/>
      <point x="415.51724137931035" y="669.2183908045978" type="curve"/>
      <point x="374.01149425287355" y="656.4827586206897" type="line"/>
      <point x="374.56321839080454" y="584.0344827586207"/>
      <point x="375.9310344827586" y="511.4022988505747"/>
      <point x="376.2988505747126" y="439.32183908045977" type="curve"/>
      <point x="376.2988505747126" y="197.04597701149424" type="line"/>
      <point x="375.5632183908046" y="184.57471264367817" type="line"/>
      <point x="374.01149425287355" y="109.65517241379311"/>
      <point x="373.4597701149425" y="61.735632183908045"/>
    </contour>
  </outline>
</glyph>
<glyph name="five" format="2">
  <advance width="570.0229885057471"/>
  <unicode hex="0035"/>
  <outline>
    <contour>
      <point x="272.55172413793105" y="-9.551724137931034" type="curve" smooth="yes"/>
      <point x="426.7816091954023" y="-9.551724137931034"/>
      <point x="512.7816091954023" y="81.18390804597702"/>
      <point x="512.7816091954023" y="217.55172413793102" type="curve" smooth="yes"/>
      <point x="512.7816091954023" y="364.632183908046"/>
      <point x="412.2528735632184" y="435.7586206896552"/>
      <point x="292.17241379310343" y="435.7586206896552" type="curve" smooth="yes"/>
      <point x="240.66666666666666" y="435.7586206896552"/>
      <point x="187.50574712643677" y="414.4137931034483"/>
      <point x="145.79310344827587" y="396.51724137931035" type="curve"/>
      <point x="139.05747126436782" y="396.51724137931035" type="line"/>
      <point x="139.05747126436782" y="449.39080459770116" type="line"/>
      <point x="139.60919540229884" y="510.0"/>
      <point x="140.97701149425285" y="588.6666666666666"/>
      <point x="141.5287356321839" y="659.3563218390805" type="curve"/>
      <point x="121.0919540229885" y="640.7586206896551" type="line"/>
      <point x="224.35632183908046" y="640.7586206896551" type="line"/>
      <point x="304.98850574712645" y="639.2068965517241"/>
      <point x="387.62068965517244" y="637.6551724137931"/>
      <point x="469.0689655172414" y="636.103448275862" type="curve"/>
      <point x="469.0689655172414" y="684.551724137931" type="line"/>
      <point x="89.13793103448276" y="684.551724137931" type="line"/>
      <point x="90.50574712643677" y="611.080459770115"/>
      <point x="91.8735632183908" y="529.6091954022988"/>
      <point x="93.24137931034483" y="442.95402298850576" type="curve"/>
      <point x="93.24137931034483" y="340.11494252873564" type="line"/>
      <point x="116.04597701149426" y="337.7471264367816" type="line"/>
      <point x="172.73563218390805" y="372.1724137931035"/>
      <point x="239.97701149425288" y="391.4367816091954"/>
      <point x="281.8735632183908" y="391.4367816091954" type="curve"/>
      <point x="381.64367816091954" y="390.2528735632184"/>
      <point x="464.4942528735632" y="345.64367816091954"/>
      <point x="464.4942528735632" y="218.10344827586206" type="curve" smooth="yes"/>
      <point x="464.4942528735632" y="103.27586206896552"/>
      <point x="399.54022988505744" y="36.87356321839081"/>
      <point x="270.5287356321839" y="35.689655172413794" type="curve"/>
      <point x="223.6551724137931" y="35.689655172413794"/>
      <point x="142.42528735632183" y="63.60919540229885"/>
      <point x="55.08045977011494" y="97.50574712643679" type="curve"/>
      <point x="48.160919540229884" y="46.793103448275865" type="line"/>
      <point x="128.05747126436782" y="19.080459770114942"/>
      <point x="223.47126436781608" y="-9.551724137931034"/>
    </contour>
  </outline>
</glyph>
<glyph name="six" format="2">
  <advance width="601.3908045977012"/>
  <unicode hex="0036"/>
  <outline>
    <contour>
      <point x="313.6551724137931" y="-9.551724137931034" type="curve" smooth="yes"/>
      <point x="465.14942528735634" y="-9.551724137931034"/>
      <point x="544.1494252873563" y="102.91954022988506"/>
      <point x="544.1494252873563" y="223.39080459770116" type="curve" smooth="yes"/>
      <point x="544.1494252873563" y="347.67816091954023"/>
      <point x="461.7816091954023" y="437.7586206896552"/>
      <point x="324.8045977011494" y="437.7586206896552" type="curve" smooth="yes"/>
      <point x="249.3793103448276" y="437.7586206896552"/>
      <point x="176.95402298850573" y="392.14942528735634"/>
      <point x="117.97701149425288" y="351.88505747126436" type="curve"/>
      <point x="105.24137931034483" y="352.88505747126436" type="line"/>
      <point x="99.01149425287356" y="333.367816091954"/>
      <point x="98.82758620689656" y="315.735632183908"/>
      <point x="105.42528735632183" y="291.42528735632186" type="curve"/>
      <point x="178.27586206896552" y="357.82758620689657"/>
      <point x="263.75862068965523" y="392.62068965517244"/>
      <point x="318.18390804597703" y="393.62068965517244" type="curve"/>
      <point x="442.7241379310345" y="392.25287356321843"/>
      <point x="496.5977011494253" y="316.58620689655174"/>
      <point x="496.5977011494253" y="222.10344827586206" type="curve" smooth="yes"/>
      <point x="496.5977011494253" y="127.4367816091954"/>
      <point x="441.7241379310345" y="37.87356321839081"/>
      <point x="312.735632183908" y="35.689655172413794" type="curve"/>
      <point x="179.5632183908046" y="38.42528735632184"/>
      <point x="109.24137931034483" y="135.17241379310346"/>
      <point x="109.24137931034483" y="322.6551724137931" type="curve" smooth="yes"/>
      <point x="109.24137931034483" y="534.7471264367816"/>
      <point x="176.19540229885058" y="649.1264367816092"/>
      <point x="322.86206896551727" y="651.4942528735633" type="curve"/>
      <point x="343.94252873563215" y="651.4942528735633"/>
      <point x="424.14942528735634" y="625.9425287356322"/>
      <point x="496.86206896551727" y="595.0459770114942" type="curve"/>
      <point x="504.7816091954023" y="645.3908045977012" type="line"/>
      <point x="459.8620689655172" y="662.8390804597701"/>
      <point x="358.2068965517241" y="696.919540229885"/>
      <point x="321.39080459770116" y="696.919540229885" type="curve" smooth="yes"/>
      <point x="150.02298850574712" y="696.919540229885"/>
      <point x="62.05747126436782" y="559.1494252873563"/>
      <point x="62.05747126436782" y="324.02298850574715" type="curve" smooth="yes"/>
      <point x="62.05747126436782" y="108.63218390804597"/>
      <point x="153.60919540229884" y="-9.551724137931034"/>
    </contour>
  </outline>
</glyph>
<glyph name="seven" format="2">
  <advance width="516.2210526315789"/>
  <unicode hex="0037"/>
  <outline>
    <contour>
      <point x="117.94736842105263" y="0.0" type="curve"/>
      <point x="178.32631578947368" y="0.0" type="line"/>
      <point x="215.89473684210526" y="84.73684210526316"/>
      <point x="253.29473684210527" y="170.13684210526316"/>
      <point x="289.94736842105266" y="253.0421052631579" type="curve"/>
      <point x="356.5157894736842" y="396.93684210526317" type="line"/>
      <point x="396.58947368421053" y="483.8315789473684"/>
      <point x="433.7473684210526" y="562.978947368421"/>
      <point x="472.90526315789475" y="646.2105263157895" type="curve"/>
      <point x="472.90526315789475" y="684.5052631578948" type="line"/>
      <point x="25.0" y="684.5052631578948" type="line"/>
      <point x="25.0" y="635.8421052631579" type="line"/>
      <point x="112.31578947368422" y="637.4315789473684"/>
      <point x="199.7157894736842" y="639.1052631578948"/>
      <point x="286.11578947368423" y="640.6947368421053" type="curve"/>
      <point x="432.42105263157896" y="640.6947368421053" type="line"/>
      <point x="420.0421052631579" y="653.4736842105264" type="line"/>
      <point x="395.9684210526316" y="600.4"/>
      <point x="372.8105263157895" y="548.1578947368421"/>
      <point x="349.65263157894736" y="495.0842105263158" type="curve"/>
      <point x="249.67368421052632" y="279.53684210526313" type="line"/>
      <point x="206.43157894736842" y="187.96842105263158"/>
      <point x="162.18947368421053" y="93.48421052631579"/>
    </contour>
  </outline>
</glyph>
<glyph name="less" format="2">
  <advance width="562.5263157894736"/>
  <unicode hex="003C"/>
  <outline>
    <contour>
      <point x="495.05263157894734" y="80.69473684210526" type="curve"/>
      <point x="495.05263157894734" y="134.85263157894738" type="line"/>
      <point x="418.7473684210526" y="167.0"/>
      <point x="335.11578947368423" y="202.81052631578947"/>
      <point x="256.9789473684211" y="235.8736842105263" type="curve"/>
      <point x="130.77894736842106" y="291.8421052631579" type="line"/>
      <point x="130.77894736842106" y="298.6842105263158" type="line"/>
      <point x="256.9789473684211" y="354.65263157894736" type="line"/>
      <point x="335.11578947368423" y="387.7157894736842"/>
      <point x="418.7473684210526" y="423.5263157894737"/>
      <point x="495.05263157894734" y="455.6736842105263" type="curve"/>
      <point x="495.05263157894734" y="509.83157894736837" type="line"/>
      <point x="435.4526315789473" y="482.4947368421052"/>
      <point x="376.5263157894737" y="455.41052631578947"/>
      <point x="330.09473684210525" y="434.0736842105263" type="curve"/>
      <point x="230.6" y="390.0842105263158" type="line"/>
      <point x="181.42105263157893" y="369.2526315789474"/>
      <point x="125.98947368421052" y="345.42105263157896"/>
      <point x="67.47368421052632" y="320.5894736842105" type="curve"/>
      <point x="67.47368421052632" y="269.93684210526317" type="line"/>
      <point x="125.98947368421052" y="246.02105263157895"/>
      <point x="183.25263157894736" y="221.2736842105263"/>
      <point x="230.6" y="200.44210526315788" type="curve"/>
      <point x="330.09473684210525" y="156.45263157894738" type="line"/>
      <point x="378.3578947368421" y="134.20000000000002"/>
      <point x="437.28421052631575" y="107.1157894736842"/>
    </contour>
  </outline>
</glyph>
<glyph name="equal" format="2">
  <advance width="562.5263157894736"/>
  <unicode hex="003D"/>
  <outline>
    <contour>
      <point x="68.3157894736842" y="164.8315789473684" type="line"/>
      <point x="127.74736842105263" y="166.0"/>
      <point x="195.50526315789475" y="167.16842105263157"/>
      <point x="232.3578947368421" y="167.33684210526314" type="curve"/>
      <point x="330.1684210526316" y="167.33684210526314" type="line"/>
      <point x="367.0210526315789" y="167.16842105263157"/>
      <point x="434.77894736842103" y="166.0"/>
      <point x="494.2105263157895" y="164.8315789473684" type="curve"/>
      <point x="494.2105263157895" y="213.31578947368422" type="line"/>
      <point x="434.77894736842103" y="212.14736842105262"/>
      <point x="367.0210526315789" y="210.97894736842105"/>
      <point x="330.1684210526316" y="210.81052631578947" type="curve"/>
      <point x="232.3578947368421" y="210.81052631578947" type="line"/>
      <point x="195.50526315789475" y="210.97894736842105"/>
      <point x="127.74736842105263" y="212.14736842105262"/>
      <point x="68.3157894736842" y="213.31578947368422" type="curve"/>
    </contour>
    <contour>
      <point x="68.3157894736842" y="379.0421052631579" type="line"/>
      <point x="127.74736842105263" y="380.2105263157894"/>
      <point x="195.50526315789475" y="381.37894736842105"/>
      <point x="232.3578947368421" y="381.5473684210526" type="curve"/>
      <point x="330.1684210526316" y="381.5473684210526" type="line"/>
      <point x="367.0210526315789" y="381.37894736842105"/>
      <point x="434.77894736842103" y="380.2105263157894"/>
      <point x="494.2105263157895" y="379.0421052631579" type="curve"/>
      <point x="494.2105263157895" y="427.52631578947364" type="line"/>
      <point x="434.77894736842103" y="426.3578947368421"/>
      <point x="367.0210526315789" y="425.1894736842105"/>
      <point x="330.1684210526316" y="425.0210526315789" type="curve"/>
      <point x="232.3578947368421" y="425.0210526315789" type="line"/>
      <point x="195.50526315789475" y="425.1894736842105"/>
      <point x="127.74736842105263" y="426.3578947368421"/>
      <point x="68.3157894736842" y="427.52631578947364" type="curve"/>
    </contour>
  </outline>
</glyph>
<glyph name="greater" format="2">
  <advance width="562.5263157894736"/>
  <unicode hex="003E"/>
  <outline>
    <contour>
      <point x="67.47368421052632" y="80.69473684210526" type="line"/>
      <point x="127.07368421052631" y="108.03157894736842"/>
      <point x="186.0" y="135.11578947368423"/>
      <point x="232.43157894736842" y="156.45263157894738" type="curve"/>
      <point x="331.9263157894737" y="200.44210526315788" type="line"/>
      <point x="381.10526315789474" y="221.2736842105263"/>
      <point x="436.53684210526313" y="245.10526315789474"/>
      <point x="495.05263157894734" y="269.93684210526317" type="curve"/>
      <point x="495.05263157894734" y="320.5894736842105" type="line"/>
      <point x="436.53684210526313" y="344.5052631578947"/>
      <point x="379.2736842105263" y="369.2526315789474"/>
      <point x="331.9263157894737" y="390.0842105263158" type="curve"/>
      <point x="232.43157894736842" y="434.0736842105263" type="line"/>
      <point x="184.16842105263157" y="456.3263157894737"/>
      <point x="125.2421052631579" y="483.4105263157894"/>
      <point x="67.47368421052632" y="509.83157894736837" type="curve"/>
      <point x="67.47368421052632" y="455.6736842105263" type="line"/>
      <point x="143.77894736842106" y="423.5263157894737"/>
      <point x="227.41052631578947" y="387.7157894736842"/>
      <point x="305.5473684210526" y="354.65263157894736" type="curve"/>
      <point x="431.7473684210526" y="298.6842105263158" type="line"/>
      <point x="431.7473684210526" y="291.8421052631579" type="line"/>
      <point x="305.5473684210526" y="235.8736842105263" type="line"/>
      <point x="227.41052631578947" y="202.81052631578947"/>
      <point x="143.77894736842106" y="167.0"/>
      <point x="67.47368421052632" y="134.85263157894738" type="curve"/>
    </contour>
  </outline>
</glyph>
<glyph name="at" format="2">
  <advance width="877.2736842105263"/>
  <unicode hex="0040"/>
  <outline>
    <contour>
      <point x="470.8421052631579" y="-124.94736842105263" type="curve" smooth="yes"/>
      <point x="535.0105263157894" y="-124.94736842105263"/>
      <point x="661.7578947368421" y="-80.53684210526315"/>
      <point x="753.0105263157894" y="-50.12631578947368" type="curve"/>
      <point x="753.0105263157894" y="-4.4526315789473685" type="line"/>
      <point x="641.0000000000001" y="-46.873684210526314"/>
      <point x="520.4947368421053" y="-84.36842105263159"/>
      <point x="470.8421052631579" y="-86.45263157894738" type="curve"/>
      <point x="186.8736842105263" y="-83.2842105263158"/>
      <point x="60.05263157894737" y="117.16842105263157"/>
      <point x="105.38947368421053" y="333.42105263157896" type="curve" smooth="yes"/>
      <point x="148.37894736842105" y="537.8631578947368"/>
      <point x="291.0" y="623.1368421052631"/>
      <point x="465.8421052631579" y="626.3052631578947" type="curve"/>
      <point x="687.9789473684211" y="623.1368421052631"/>
      <point x="812.4631578947368" y="457.44210526315794"/>
      <point x="773.8" y="251.2842105263158" type="curve" smooth="yes"/>
      <point x="766.2210526315789" y="211.38947368421051"/>
      <point x="671.5157894736842" y="102.60000000000001"/>
      <point x="637.9368421052632" y="101.42105263157895" type="curve"/>
      <point x="583.8736842105263" y="104.50526315789473"/>
      <point x="561.2210526315789" y="133.92631578947368"/>
      <point x="573.9684210526316" y="197.32631578947368" type="curve"/>
      <point x="605.1999999999999" y="347.7368421052631" type="line"/>
      <point x="615.8736842105263" y="386.1684210526316"/>
      <point x="629.2947368421054" y="434.58947368421053"/>
      <point x="641.8" y="479.0105263157895" type="curve"/>
      <point x="598.1789473684211" y="475.58947368421053" type="line"/>
      <point x="582.9263157894736" y="419.51578947368415" type="line"/>
      <point x="577.2526315789473" y="419.51578947368415" type="line"/>
      <point x="542.3368421052631" y="449.1894736842105"/>
      <point x="482.27368421052626" y="484.9263157894737"/>
      <point x="439.0421052631579" y="484.9263157894737" type="curve" smooth="yes"/>
      <point x="345.2105263157895" y="484.9263157894737"/>
      <point x="272.30526315789473" y="414.4947368421053"/>
      <point x="248.7263157894737" y="301.17894736842106" type="curve" smooth="yes"/>
      <point x="223.6421052631579" y="182.0842105263158"/>
      <point x="270.65263157894736" y="72.49473684210527"/>
      <point x="390.4736842105263" y="72.49473684210527" type="curve" smooth="yes"/>
      <point x="423.2947368421053" y="72.49473684210527"/>
      <point x="479.86315789473684" y="103.90526315789474"/>
      <point x="525.1157894736842" y="143.31578947368422" type="curve"/>
      <point x="530.7052631578947" y="143.31578947368422" type="line"/>
      <point x="539.2210526315789" y="102.73684210526316"/>
      <point x="568.421052631579" y="62.66315789473684"/>
      <point x="644.6842105263158" y="62.66315789473684" type="curve" smooth="yes"/>
      <point x="680.6105263157895" y="62.66315789473684"/>
      <point x="799.6315789473684" y="177.74736842105264"/>
      <point x="812.0526315789473" y="243.6" type="curve" smooth="yes"/>
      <point x="855.6421052631579" y="472.87368421052633"/>
      <point x="707.7052631578947" y="664.8"/>
      <point x="466.9263157894737" y="664.8" type="curve" smooth="yes"/>
      <point x="276.2526315789474" y="664.8"/>
      <point x="111.89473684210526" y="563.2947368421053"/>
      <point x="66.30526315789474" y="339.5263157894737" type="curve" smooth="yes"/>
      <point x="18.126315789473683" y="104.97894736842105"/>
      <point x="163.23157894736843" y="-124.94736842105263"/>
    </contour>
    <contour>
      <point x="398.7684210526316" y="112.6842105263158" type="curve"/>
      <point x="304.5052631578947" y="114.6842105263158"/>
      <point x="269.69473684210527" y="193.38947368421054"/>
      <point x="291.2631578947368" y="295.7368421052632" type="curve" smooth="yes"/>
      <point x="309.2526315789474" y="380.10526315789474"/>
      <point x="359.38947368421054" y="441.4842105263158"/>
      <point x="444.8315789473684" y="443.5684210526316" type="curve"/>
      <point x="480.64210526315793" y="442.40000000000003"/>
      <point x="533.4315789473684" y="413.67368421052635"/>
      <point x="570.4842105263158" y="382.94736842105266" type="curve"/>
      <point x="530.421052631579" y="197.78947368421052" type="line"/>
      <point x="486.62105263157895" y="147.2421052631579"/>
      <point x="429.16842105263163" y="114.93684210526317"/>
    </contour>
  </outline>
</glyph>
<glyph name="A" format="2">
  <advance width="675.1578947368421"/>
  <unicode hex="0041"/>
  <anchor x="337.62105263157895" y="0.0" name="bottom"/>
  <anchor x="645.8526315789474" y="0.0" name="ogonek"/>
  <anchor x="337.62105263157895" y="713.0" name="top"/>
  <outline>
    <contour>
      <point x="28.05263157894737" y="0.0" type="curve"/>
      <point x="90.6" y="0.0" type="line"/>
      <point x="122.32631578947367" y="88.23157894736842"/>
      <point x="156.8" y="182.95789473684212"/>
      <point x="187.61052631578946" y="269.3578947368421" type="curve"/>
      <point x="335.86315789473684" y="662.9368421052632" type="line"/>
      <point x="342.7052631578947" y="662.9368421052632" type="line"/>
      <point x="489.9578947368421" y="266.2736842105263" type="line"/>
      <point x="518.9368421052632" y="183.87368421052633"/>
      <point x="552.578947368421" y="86.97894736842105"/>
      <point x="583.3894736842105" y="0.0" type="curve"/>
      <point x="646.357894736842" y="0.0" type="line"/>
      <point x="616.5263157894738" y="76.08421052631579"/>
      <point x="582.7789473684211" y="161.0842105263158"/>
      <point x="551.0315789473684" y="241.0" type="curve"/>
      <point x="458.9684210526316" y="486.9157894736842" type="line"/>
      <point x="428.2315789473684" y="573.7473684210527"/>
      <point x="404.24210526315784" y="641.6631578947369"/>
      <point x="379.16842105263163" y="713.0" type="curve"/>
      <point x="299.90526315789475" y="713.0" type="line"/>
      <point x="273.9157894736842" y="639.8315789473684"/>
      <point x="250.7578947368421" y="575.578947368421"/>
      <point x="219.10526315789474" y="486.9157894736842" type="curve"/>
      <point x="126.12631578947368" y="241.9157894736842" type="line"/>
      <point x="95.37894736842105" y="165.83157894736843"/>
      <point x="59.71578947368421" y="77.91578947368421"/>
    </contour>
    <contour>
      <point x="144.7473684210526" y="195.67368421052632" type="line"/>
      <point x="533.6842105263158" y="195.67368421052632" type="line"/>
      <point x="531.7473684210527" y="238.30526315789473" type="line"/>
      <point x="147.10526315789474" y="238.30526315789473" type="line"/>
    </contour>
  </outline>
</glyph>
<glyph name="C" format="2">
  <advance width="685.578947368421"/>
  <unicode hex="0043"/>
  <anchor x="400.3263157894737" y="0.0" name="bottom"/>
  <anchor x="391.1684210526316" y="713.0" name="top"/>
  <outline>
    <contour>
      <point x="416.57894736842104" y="-9.589473684210526" type="curve" smooth="yes"/>
      <point x="463.7368421052632" y="-9.589473684210526"/>
      <point x="564.6" y="18.568421052631578"/>
      <point x="626.4315789473684" y="41.06315789473685" type="curve"/>
      <point x="620.0105263157894" y="95.89473684210526" type="line"/>
      <point x="547.0210526315789" y="62.48421052631579"/>
      <point x="449.76842105263154" y="37.305263157894736"/>
      <point x="417.61052631578946" y="37.305263157894736" type="curve"/>
      <point x="214.77894736842106" y="40.38947368421052"/>
      <point x="108.74736842105263" y="180.66315789473686"/>
      <point x="108.74736842105263" y="357.7473684210526" type="curve" smooth="yes"/>
      <point x="108.74736842105263" y="552.5052631578948"/>
      <point x="231.44210526315788" y="674.7684210526315"/>
      <point x="401.66315789473686" y="677.8526315789474" type="curve"/>
      <point x="428.90526315789475" y="677.8526315789474"/>
      <point x="529.9157894736843" y="650.5157894736842"/>
      <point x="626.1684210526315" y="616.2631578947369" type="curve"/>
      <point x="632.1789473684211" y="670.1789473684211" type="line"/>
      <point x="571.8210526315789" y="688.6842105263158"/>
      <point x="449.07368421052627" y="725.3368421052631"/>
      <point x="402.7473684210526" y="725.3368421052631" type="curve" smooth="yes"/>
      <point x="202.45263157894738" y="725.3368421052631"/>
      <point x="56.96842105263158" y="575.2421052631579"/>
      <point x="56.96842105263158" y="358.57894736842104" type="curve" smooth="yes"/>
      <point x="56.96842105263158" y="150.6421052631579"/>
      <point x="193.23157894736843" y="-9.589473684210526"/>
    </contour>
  </outline>
</glyph>
<glyph name="F" format="2">
  <advance width="572.2631578947369"/>
  <unicode hex="0046"/>
  <outline>
    <contour>
      <point x="101.6" y="0.0" type="curve"/>
      <point x="158.89473684210526" y="0.0" type="line"/>
      <point x="157.47368421052633" y="80.41052631578947"/>
      <point x="156.0526315789474" y="149.90526315789472"/>
      <point x="154.54736842105265" y="237.2421052631579" type="curve"/>
      <point x="154.54736842105265" y="468.8" type="line"/>
      <point x="156.0526315789474" y="556.4736842105264"/>
      <point x="157.47368421052633" y="626.2210526315789"/>
      <point x="158.89473684210526" y="706.8842105263158" type="curve"/>
      <point x="158.89473684210526" y="713.0" type="line"/>
      <point x="101.6" y="713.0" type="line"/>
      <point x="103.02105263157895" y="632.3368421052631"/>
      <point x="103.44210526315788" y="562.8421052631578"/>
      <point x="105.03157894736842" y="474.9157894736842" type="curve"/>
      <point x="105.03157894736842" y="237.2421052631579" type="line"/>
      <point x="103.52631578947368" y="149.82105263157894"/>
      <point x="103.02105263157895" y="80.32631578947368"/>
    </contour>
    <contour>
      <point x="143.74736842105264" y="338.41052631578947" type="line"/>
      <point x="276.7368421052632" y="338.41052631578947" type="line"/>
      <point x="369.4736842105263" y="337.9894736842105"/>
      <point x="431.7157894736842" y="336.82105263157894"/>
      <point x="499.7894736842105" y="336.56842105263155" type="curve"/>
      <point x="499.7894736842105" y="386.81052631578945" type="line"/>
      <point x="435.63157894736844" y="385.6421052631579"/>
      <point x="371.5578947368421" y="384.3894736842105"/>
      <point x="277.65263157894736" y="383.05263157894734" type="curve"/>
      <point x="143.74736842105264" y="383.05263157894734" type="line"/>
    </contour>
    <contour>
      <point x="145.09473684210528" y="667.6" type="line"/>
      <point x="269.4947368421053" y="667.6" type="line"/>
      <point x="377.4736842105263" y="666.0105263157895"/>
      <point x="452.1263157894737" y="663.7578947368421"/>
      <point x="521.8631578947369" y="662.421052631579" type="curve"/>
      <point x="521.8631578947369" y="713.0" type="line"/>
      <point x="145.09473684210528" y="713.0" type="line"/>
    </contour>
  </outline>
</glyph>
<glyph name="G" format="2">
  <advance width="735.7368421052631"/>
  <unicode hex="0047"/>
  <anchor x="400.3263157894737" y="0.0" name="bottom"/>
  <anchor x="400.3263157894737" y="713.0" name="top"/>
  <outline>
    <contour>
      <point x="434.14736842105265" y="-9.505263157894737" type="curve" smooth="yes"/>
      <point x="484.9684210526316" y="-9.505263157894737"/>
      <point x="595.6947368421053" y="14.736842105263158"/>
      <point x="662.5263157894736" y="33.14736842105263" type="curve"/>
      <point x="653.6631578947369" y="87.22105263157894" type="line"/>
      <point x="575.2526315789473" y="57.810526315789474"/>
      <point x="470.6631578947368" y="36.88421052631579"/>
      <point x="436.0842105263158" y="36.88421052631579" type="curve"/>
      <point x="208.2842105263158" y="39.96842105263158"/>
      <point x="108.57894736842105" y="177.57894736842104"/>
      <point x="108.57894736842105" y="358.57894736842104" type="curve" smooth="yes"/>
      <point x="108.57894736842105" y="554.5052631578948"/>
      <point x="231.03157894736842" y="674.8526315789474"/>
      <point x="407.15789473684214" y="677.8526315789474" type="curve"/>
      <point x="435.48421052631574" y="677.8526315789474"/>
      <point x="540.2526315789473" y="650.6"/>
      <point x="641.0105263157894" y="616.3473684210527" type="curve"/>
      <point x="647.021052631579" y="669.9263157894736" type="line"/>
      <point x="584.1578947368421" y="688.6"/>
      <point x="455.82105263157894" y="725.3368421052631"/>
      <point x="407.3263157894737" y="725.3368421052631" type="curve" smooth="yes"/>
      <point x="198.6315789473684" y="725.3368421052631"/>
      <point x="56.96842105263158" y="572.3368421052631"/>
      <point x="56.96842105263158" y="358.66315789473686" type="curve" smooth="yes"/>
      <point x="56.96842105263158" y="151.4842105263158"/>
      <point x="185.65263157894736" y="-9.505263157894737"/>
    </contour>
    <contour>
      <point x="608.5894736842106" y="33.14736842105263" type="curve"/>
      <point x="662.5263157894736" y="33.14736842105263" type="line"/>
      <point x="661.2736842105263" y="101.82105263157895"/>
      <point x="660.9368421052632" y="149.74736842105264"/>
      <point x="659.7684210526315" y="200.58947368421053" type="curve"/>
      <point x="661.2736842105263" y="261.2631578947368"/>
      <point x="661.7789473684211" y="303.93684210526317"/>
      <point x="663.1999999999999" y="351.69473684210527" type="curve"/>
      <point x="606.8315789473685" y="351.69473684210527" type="line"/>
      <point x="608.2526315789473" y="303.93684210526317"/>
      <point x="609.6736842105263" y="261.2631578947368"/>
      <point x="611.1789473684211" y="200.58947368421053" type="curve"/>
      <point x="610.0105263157894" y="149.74736842105264"/>
      <point x="609.8421052631579" y="101.98947368421054"/>
    </contour>
  </outline>
</glyph>
<glyph name="I" format="2">
  <advance width="262.2631578947368"/>
  <unicode hex="0049"/>
  <anchor x="130.29473684210527" y="0.0" name="bottom"/>
  <anchor x="159.82105263157894" y="0.0" name="ogonek"/>
  <anchor x="130.29473684210527" y="713.0" name="top"/>
  <anchor x="36.49473684210526" y="713.0" name="topleft"/>
  <outline>
    <contour>
      <point x="102.02105263157894" y="0.0" type="curve"/>
      <point x="160.24210526315787" y="0.0" type="line"/>
      <point x="158.82105263157894" y="80.41052631578947"/>
      <point x="157.4" y="149.90526315789472"/>
      <point x="155.89473684210526" y="237.2421052631579" type="curve"/>
      <point x="155.89473684210526" y="474.9157894736842" type="line"/>
      <point x="157.4842105263158" y="562.8421052631578"/>
      <point x="158.82105263157894" y="632.3368421052631"/>
      <point x="160.24210526315787" y="713.0" type="curve"/>
      <point x="102.02105263157894" y="713.0" type="line"/>
      <point x="103.4421052631579" y="632.3368421052631"/>
      <point x="103.86315789473683" y="562.8421052631578"/>
      <point x="105.45263157894736" y="474.9157894736842" type="curve"/>
      <point x="105.45263157894736" y="237.2421052631579" type="line"/>
      <point x="103.94736842105263" y="149.82105263157894"/>
      <point x="103.4421052631579" y="80.32631578947368"/>
    </contour>
  </outline>
</glyph>
<glyph name="J" format="2">
  <advance width="278.2421052631579"/>
  <unicode hex="004A"/>
  <anchor x="145.69473684210527" y="0.0" name="bottom"/>
  <anchor x="145.69473684210527" y="713.0" name="top"/>
  <outline>
    <contour>
      <point x="30.231578947368423" y="-159.32631578947368" type="curve"/>
      <point x="84.8842105263158" y="-159.32631578947368" type="line"/>
      <point x="111.30526315789473" y="-107.74736842105264"/>
      <point x="173.96842105263158" y="17.65263157894737"/>
      <point x="173.96842105263158" y="38.705263157894734" type="curve" smooth="yes"/>
      <point x="173.96842105263158" y="116.88421052631578"/>
      <point x="171.8736842105263" y="198.31578947368422"/>
      <point x="171.8736842105263" y="277.2526315789474" type="curve"/>
      <point x="171.8736842105263" y="474.9157894736842" type="line"/>
      <point x="172.54736842105262" y="562.8421052631578"/>
      <point x="172.96842105263158" y="632.3368421052631"/>
      <point x="176.22105263157894" y="713.0" type="curve"/>
      <point x="118.42105263157895" y="713.0" type="line"/>
      <point x="120.75789473684212" y="632.3368421052631"/>
      <point x="121.17894736842105" y="562.8421052631578"/>
      <point x="121.85263157894737" y="474.9157894736842" type="curve"/>
      <point x="121.85263157894737" y="248.86315789473684" type="line"/>
      <point x="119.68421052631578" y="33.37894736842105" type="line"/>
      <point x="87.36842105263158" y="-36.71578947368422"/>
      <point x="58.79999999999999" y="-98.06315789473685"/>
    </contour>
  </outline>
</glyph>
<glyph name="K" format="2">
  <advance width="654.3263157894736"/>
  <unicode hex="004B"/>
  <anchor x="335.70526315789476" y="0.0" name="bottom"/>
  <anchor x="335.70526315789476" y="713.0" name="top"/>
  <outline>
    <contour>
      <point x="548.7894736842105" y="0.0" type="curve"/>
      <point x="626.7789473684211" y="0.0" type="line"/>
      <point x="561.7157894736843" y="60.01052631578947"/>
      <point x="459.66315789473686" y="154.77894736842106"/>
      <point x="383.021052631579" y="225.9578947368421" type="curve"/>
      <point x="220.57894736842107" y="380.90526315789475" type="line"/>
      <point x="221.0" y="358.9894736842105" type="line"/>
      <point x="366.11578947368423" y="494.57894736842104" type="line"/>
      <point x="443.84210526315786" y="565.9157894736842"/>
      <point x="522.3157894736843" y="637.0000000000001"/>
      <point x="605.7052631578947" y="713.0" type="curve"/>
      <point x="529.7263157894737" y="713.0" type="line"/>
      <point x="447.4526315789474" y="634.8526315789474"/>
      <point x="390.41052631578947" y="580.8631578947368"/>
      <point x="326.70526315789476" y="519.9578947368421" type="curve"/>
      <point x="188.0421052631579" y="390.0736842105263" type="line"/>
      <point x="146.29473684210527" y="390.0736842105263" type="line"/>
      <point x="146.29473684210527" y="345.7684210526316" type="line"/>
      <point x="187.46315789473687" y="345.7684210526316" type="line"/>
      <point x="349.10526315789474" y="192.6315789473684" type="line"/>
      <point x="410.7263157894737" y="133.55789473684212"/>
      <point x="473.2631578947368" y="72.65263157894736"/>
    </contour>
    <contour>
      <point x="101.6" y="0.0" type="curve"/>
      <point x="159.3157894736842" y="0.0" type="line"/>
      <point x="157.89473684210526" y="80.41052631578947"/>
      <point x="156.47368421052633" y="149.90526315789472"/>
      <point x="154.96842105263158" y="237.2421052631579" type="curve"/>
      <point x="154.96842105263158" y="474.9157894736842" type="line"/>
      <point x="156.55789473684212" y="562.8421052631578"/>
      <point x="157.89473684210526" y="632.3368421052631"/>
      <point x="159.3157894736842" y="713.0" type="curve"/>
      <point x="101.6" y="713.0" type="line"/>
      <point x="103.02105263157895" y="632.3368421052631"/>
      <point x="103.44210526315788" y="562.8421052631578"/>
      <point x="105.03157894736842" y="474.9157894736842" type="curve"/>
      <point x="105.03157894736842" y="237.2421052631579" type="line"/>
      <point x="103.52631578947368" y="149.82105263157894"/>
      <point x="103.02105263157895" y="80.32631578947368"/>
    </contour>
  </outline>
</glyph>
<glyph name="L" format="2">
  <advance width="567.0947368421052"/>
  <unicode hex="004C"/>
  <anchor x="317.2315789473684" y="0.0" name="bottom"/>
  <anchor x="415.62105263157895" y="357.2526315789474" name="center"/>
  <anchor x="188.31578947368422" y="713.0" name="top"/>
  <anchor x="272.88421052631577" y="494.6736842105263" name="topright"/>
  <outline>
    <contour>
      <point x="101.6" y="0.0" type="curve"/>
      <point x="159.39999999999998" y="0.0" type="line"/>
      <point x="159.39999999999998" y="6.115789473684211" type="line"/>
      <point x="157.97894736842105" y="86.52631578947368"/>
      <point x="156.55789473684212" y="156.02105263157895"/>
      <point x="155.05263157894737" y="243.3578947368421" type="curve"/>
      <point x="155.05263157894737" y="474.9157894736842" type="line"/>
      <point x="156.6421052631579" y="562.8421052631578"/>
      <point x="157.97894736842105" y="632.3368421052631"/>
      <point x="159.39999999999998" y="713.0" type="curve"/>
      <point x="101.6" y="713.0" type="line"/>
      <point x="103.02105263157895" y="632.3368421052631"/>
      <point x="103.44210526315788" y="562.8421052631578"/>
      <point x="105.03157894736842" y="474.9157894736842" type="curve"/>
      <point x="105.03157894736842" y="237.2421052631579" type="line"/>
      <point x="103.52631578947368" y="149.82105263157894"/>
      <point x="103.02105263157895" y="80.32631578947368"/>
    </contour>
    <contour>
      <point x="146.86315789473684" y="0.0" type="line"/>
      <point x="530.2736842105263" y="0.0" type="line"/>
      <point x="530.2736842105263" y="52.01052631578948" type="line"/>
      <point x="448.0421052631579" y="50.421052631578945"/>
      <point x="378.5578947368421" y="49.0"/>
      <point x="258.33684210526314" y="46.242105263157896" type="curve"/>
      <point x="146.86315789473684" y="46.242105263157896" type="line"/>
    </contour>
  </outline>
</glyph>
<glyph name="M" format="2">
  <advance width="951.7684210526315"/>
  <unicode hex="004D"/>
  <anchor x="475.84210526315786" y="0.0" name="bottom"/>
  <anchor x="475.84210526315786" y="713.0" name="top"/>
  <outline>
    <contour>
      <point x="70.86315789473684" y="0.0" type="curve"/>
      <point x="129.2315789473684" y="0.0" type="line"/>
      <point x="144.71578947368423" y="142.43157894736842"/>
      <point x="158.3684210526316" y="268.70526315789476"/>
      <point x="170.18947368421053" y="378.7368421052632" type="curve"/>
      <point x="198.92631578947368" y="616.0421052631579" type="line"/>
      <point x="203.02105263157895" y="616.0421052631579" type="line"/>
      <point x="310.0421052631579" y="357.9157894736842" type="line"/>
      <point x="358.7578947368421" y="237.30526315789473"/>
      <point x="413.88421052631577" y="100.0421052631579"/>
      <point x="454.27368421052637" y="0.0" type="curve"/>
      <point x="499.2526315789474" y="0.0" type="line"/>
      <point x="542.1368421052632" y="107.36842105263158"/>
      <point x="593.4315789473685" y="234.5578947368421"/>
      <point x="643.7263157894737" y="359.7473684210526" type="curve"/>
      <point x="749.821052631579" y="616.0421052631579" type="line"/>
      <point x="753.9157894736843" y="616.0421052631579" type="line"/>
      <point x="782.6526315789474" y="378.7368421052632" type="line"/>
      <point x="794.4736842105265" y="267.7894736842106"/>
      <point x="808.2105263157894" y="139.6"/>
      <point x="822.778947368421" y="0.0" type="curve"/>
      <point x="880.9052631578948" y="0.0" type="line"/>
      <point x="870.4842105263158" y="80.32631578947368"/>
      <point x="860.063157894737" y="151.1578947368421"/>
      <point x="848.4736842105264" y="237.2421052631579" type="curve"/>
      <point x="820.1368421052632" y="472.9157894736842" type="line"/>
      <point x="810.4736842105264" y="560.7473684210526"/>
      <point x="802.7263157894736" y="632.2526315789473"/>
      <point x="794.0631578947368" y="713.0" type="curve"/>
      <point x="734.7684210526315" y="713.0" type="line"/>
      <point x="690.6315789473684" y="601.378947368421"/>
      <point x="648.6631578947369" y="495.68421052631584"/>
      <point x="607.4421052631579" y="392.4842105263158" type="curve"/>
      <point x="479.59999999999997" y="83.8" type="line"/>
      <point x="474.6736842105263" y="83.8" type="line"/>
      <point x="346.41052631578947" y="392.4842105263158" type="line"/>
      <point x="305.10526315789474" y="496.6"/>
      <point x="262.9684210526316" y="601.4631578947368"/>
      <point x="218.7473684210526" y="713.0" type="curve"/>
      <point x="158.1157894736842" y="713.0" type="line"/>
      <point x="149.45263157894738" y="630.3368421052631"/>
      <point x="141.78947368421052" y="556.1684210526315"/>
      <point x="133.12631578947367" y="472.9157894736842" type="curve"/>
      <point x="104.0421052631579" y="237.2421052631579" type="line"/>
      <point x="91.62105263157895" y="150.41052631578947"/>
      <point x="82.11578947368422" y="80.15789473684211"/>
    </contour>
  </outline>
</glyph>
<glyph name="N" format="2">
  <advance width="757.8315789473684"/>
  <unicode hex="004E"/>
  <anchor x="379.0" y="0.0" name="bottom"/>
  <anchor x="379.0" y="713.0" name="top"/>
  <outline>
    <contour>
      <point x="101.6" y="0.0" type="curve"/>
      <point x="157.96842105263156" y="0.0" type="line"/>
      <point x="156.54736842105262" y="80.41052631578947"/>
      <point x="155.1263157894737" y="149.90526315789472"/>
      <point x="153.62105263157895" y="237.2421052631579" type="curve"/>
      <point x="153.62105263157895" y="625.4421052631579" type="line"/>
      <point x="158.63157894736844" y="625.4421052631579" type="line"/>
      <point x="334.5368421052632" y="378.4842105263158" type="line"/>
      <point x="438.4736842105263" y="230.6421052631579"/>
      <point x="522.5894736842105" y="111.28421052631579"/>
      <point x="601.2947368421052" y="0.0" type="curve"/>
      <point x="656.2315789473683" y="0.0" type="line"/>
      <point x="654.8105263157895" y="80.41052631578947"/>
      <point x="653.3894736842105" y="149.90526315789472"/>
      <point x="651.8842105263158" y="237.2421052631579" type="curve"/>
      <point x="651.8842105263158" y="474.9157894736842" type="line"/>
      <point x="653.4736842105262" y="562.8421052631578"/>
      <point x="654.8105263157895" y="632.3368421052631"/>
      <point x="656.2315789473683" y="713.0" type="curve"/>
      <point x="599.8631578947369" y="713.0" type="line"/>
      <point x="601.2842105263157" y="632.3368421052631"/>
      <point x="601.7052631578948" y="562.8421052631578"/>
      <point x="603.2947368421053" y="474.9157894736842" type="curve"/>
      <point x="603.2947368421053" y="91.22105263157894" type="line"/>
      <point x="598.2" y="91.22105263157894" type="line"/>
      <point x="422.5473684210526" y="336.2631578947368" type="line"/>
      <point x="337.6842105263158" y="457.3684210526316"/>
      <point x="250.90526315789475" y="580.5578947368421"/>
      <point x="158.12631578947367" y="713.0" type="curve"/>
      <point x="101.6" y="713.0" type="line"/>
      <point x="103.02105263157895" y="632.3368421052631"/>
      <point x="103.44210526315788" y="562.8421052631578"/>
      <point x="105.03157894736842" y="474.9157894736842" type="curve"/>
      <point x="105.03157894736842" y="237.2421052631579" type="line"/>
      <point x="103.52631578947368" y="149.82105263157894"/>
      <point x="103.02105263157895" y="80.32631578947368"/>
    </contour>
  </outline>
</glyph>
<glyph name="P" format="2">
  <advance width="615.7011494252874"/>
  <unicode hex="0050"/>
  <outline>
    <contour>
      <point x="305.5632183908046" y="301.54022988505744" type="curve"/>
      <point x="507.8045977011494" y="301.54022988505744"/>
      <point x="568.2758620689656" y="395.45977011494256"/>
      <point x="568.2758620689656" y="520.0344827586207" type="curve" smooth="yes"/>
      <point x="568.2758620689656" y="648.1034482758621"/>
      <point x="495.7011494252873" y="714.551724137931"/>
      <point x="339.1264367816092" y="714.551724137931" type="curve"/>
      <point x="238.08045977011494" y="713.735632183908"/>
      <point x="157.77011494252872" y="713.0"/>
      <point x="101.56321839080461" y="713.0" type="curve"/>
      <point x="143.32183908045977" y="668.3908045977012" type="line"/>
      <point x="335.8390804597701" y="668.3908045977012" type="line" smooth="yes"/>
      <point x="412.7931034482759" y="668.3908045977012"/>
      <point x="517.0689655172414" y="658.471264367816"/>
      <point x="517.0689655172414" y="519.8505747126437" type="curve" smooth="yes"/>
      <point x="517.0689655172414" y="395.7586206896552"/>
      <point x="450.6666666666667" y="346.51724137931035"/>
      <point x="299.5977011494253" y="346.51724137931035" type="curve" smooth="yes"/>
      <point x="147.48275862068965" y="346.51724137931035" type="line"/>
      <point x="147.48275862068965" y="302.7241379310345" type="line"/>
      <point x="187.11494252873564" y="302.7241379310345"/>
      <point x="254.9310344827586" y="301.54022988505744"/>
    </contour>
    <contour>
      <point x="101.56321839080461" y="0.0" type="curve"/>
      <point x="158.97701149425288" y="0.0" type="line"/>
      <point x="157.60919540229887" y="80.44827586206897"/>
      <point x="156.0574712643678" y="149.89655172413794"/>
      <point x="154.68965517241378" y="237.26436781609195" type="curve"/>
      <point x="154.68965517241378" y="468.8735632183908" type="line"/>
      <point x="156.0574712643678" y="556.4252873563219"/>
      <point x="157.60919540229887" y="626.2413793103449"/>
      <point x="158.97701149425288" y="706.8735632183908" type="curve"/>
      <point x="101.56321839080461" y="713.0" type="line"/>
      <point x="102.93103448275863" y="632.3678160919541"/>
      <point x="103.48275862068967" y="562.9195402298851"/>
      <point x="105.0344827586207" y="475.0" type="curve"/>
      <point x="105.0344827586207" y="237.26436781609195" type="line"/>
      <point x="103.48275862068967" y="149.89655172413794"/>
      <point x="102.93103448275863" y="80.26436781609196"/>
    </contour>
  </outline>
</glyph>
<glyph name="S" format="2">
  <advance width="578.4942528735633"/>
  <unicode hex="0053"/>
  <anchor x="294.28735632183907" y="0.0" name="bottom"/>
  <anchor x="294.28735632183907" y="713.0" name="top"/>
  <outline>
    <contour>
      <point x="301.264367816092" y="-9.551724137931034" type="curve" smooth="yes"/>
      <point x="462.04597701149424" y="-9.551724137931034"/>
      <point x="532.8850574712644" y="79.08045977011494"/>
      <point x="532.8850574712644" y="187.57471264367817" type="curve" smooth="yes"/>
      <point x="532.8850574712644" y="284.62068965517244"/>
      <point x="478.7011494252874" y="332.62068965517244"/>
      <point x="306.88505747126436" y="388.88505747126436" type="curve" smooth="yes"/>
      <point x="171.8735632183908" y="433.1264367816092"/>
      <point x="114.63218390804597" y="463.8390804597701"/>
      <point x="114.63218390804597" y="542.0574712643678" type="curve" smooth="yes"/>
      <point x="114.63218390804597" y="637.9655172413793"/>
      <point x="194.93103448275863" y="676.3908045977012"/>
      <point x="286.04597701149424" y="678.3908045977012" type="curve"/>
      <point x="308.6781609195403" y="678.3908045977012"/>
      <point x="399.41379310344826" y="651.5747126436781"/>
      <point x="481.51724137931035" y="620.7586206896551" type="curve"/>
      <point x="487.4367816091954" y="674.0229885057471" type="line"/>
      <point x="434.04597701149424" y="690.83908045977"/>
      <point x="326.7586206896552" y="725.3678160919541"/>
      <point x="285.91954022988506" y="725.3678160919541" type="curve" smooth="yes"/>
      <point x="141.05747126436782" y="725.3678160919541"/>
      <point x="62.50574712643678" y="644.448275862069"/>
      <point x="62.50574712643678" y="540.9540229885057" type="curve" smooth="yes"/>
      <point x="62.50574712643678" y="436.0919540229885"/>
      <point x="141.95402298850576" y="391.54022988505744"/>
      <point x="281.48275862068965" y="346.64367816091954" type="curve" smooth="yes"/>
      <point x="409.14942528735634" y="305.85057471264366"/>
      <point x="480.9425287356322" y="272.32183908045977"/>
      <point x="480.9425287356322" y="186.10344827586206" type="curve" smooth="yes"/>
      <point x="480.9425287356322" y="76.85057471264368"/>
      <point x="400.4597701149425" y="39.241379310344826"/>
      <point x="301.08045977011494" y="37.241379310344826" type="curve"/>
      <point x="252.83908045977012" y="37.241379310344826"/>
      <point x="171.08045977011494" y="61.241379310344826"/>
      <point x="77.79310344827586" y="92.24137931034483" type="curve"/>
      <point x="71.05747126436782" y="39.60919540229885" type="line"/>
      <point x="154.79310344827587" y="14.52873563218391"/>
      <point x="250.44827586206895" y="-9.551724137931034"/>
    </contour>
  </outline>
</glyph>
<glyph name="U" format="2">
  <advance width="731.4947368421052"/>
  <unicode hex="0055"/>
  <anchor x="366.7473684210526" y="0.0" name="bottom"/>
  <anchor x="452.4526315789474" y="0.0" name="ogonek"/>
  <anchor x="366.7473684210526" y="713.0" name="top"/>
  <anchor x="691.2736842105263" y="713.0" name="topright"/>
  <outline>
    <contour>
      <point x="365.9157894736842" y="-9.589473684210526" type="curve" smooth="yes"/>
      <point x="554.8631578947368" y="-9.589473684210526"/>
      <point x="638.5473684210526" y="98.4"/>
      <point x="638.5473684210526" y="260.10526315789474" type="curve" smooth="yes"/>
      <point x="638.5473684210526" y="303.09473684210525"/>
      <point x="637.2105263157895" y="389.17894736842106"/>
      <point x="637.2105263157895" y="474.9157894736842" type="curve"/>
      <point x="638.8" y="562.8421052631578"/>
      <point x="640.1368421052632" y="632.3368421052631"/>
      <point x="641.5578947368421" y="713.0" type="curve"/>
      <point x="583.8421052631579" y="713.0" type="line"/>
      <point x="585.2631578947369" y="632.3368421052631"/>
      <point x="585.6842105263158" y="562.8421052631578"/>
      <point x="587.2736842105263" y="474.9157894736842" type="curve"/>
      <point x="587.2736842105263" y="270.10526315789474" type="line" smooth="yes"/>
      <point x="587.2736842105263" y="121.7578947368421"/>
      <point x="530.5578947368421" y="38.642105263157895"/>
      <point x="365.8315789473684" y="37.305263157894736" type="curve"/>
      <point x="201.44210526315788" y="38.642105263157895"/>
      <point x="143.30526315789473" y="122.67368421052632"/>
      <point x="143.30526315789473" y="269.18947368421055" type="curve" smooth="yes"/>
      <point x="143.30526315789473" y="474.9157894736842" type="line"/>
      <point x="144.89473684210526" y="562.8421052631578"/>
      <point x="146.23157894736843" y="632.3368421052631"/>
      <point x="147.65263157894736" y="713.0" type="curve"/>
      <point x="89.93684210526315" y="713.0" type="line"/>
      <point x="91.3578947368421" y="632.3368421052631"/>
      <point x="91.77894736842104" y="562.8421052631578"/>
      <point x="93.36842105263158" y="474.9157894736842" type="curve"/>
      <point x="93.36842105263158" y="389.17894736842106"/>
      <point x="92.03157894736842" y="303.4315789473684"/>
      <point x="92.03157894736842" y="260.18947368421055" type="curve" smooth="yes"/>
      <point x="92.03157894736842" y="98.90526315789474"/>
      <point x="176.45263157894738" y="-9.589473684210526"/>
    </contour>
  </outline>
</glyph>
<glyph name="V" format="2">
  <advance width="674.0631578947368"/>
  <unicode hex="0056"/>
  <anchor x="337.94736842105266" y="0.0" name="bottom"/>
  <anchor x="337.94736842105266" y="713.0" name="top"/>
  <outline>
    <contour>
      <point x="299.7263157894737" y="0.0" type="curve"/>
      <point x="377.57894736842104" y="0.0" type="line"/>
      <point x="404.40000000000003" y="73.9157894736842"/>
      <point x="434.13684210526316" y="155.9157894736842"/>
      <point x="459.12631578947367" y="225.0842105263158" type="curve"/>
      <point x="543.8526315789475" y="450.0" type="line"/>
      <point x="574.5157894736843" y="526.8315789473685"/>
      <point x="613.3473684210526" y="626.0842105263157"/>
      <point x="648.0105263157895" y="713.0" type="curve"/>
      <point x="584.3578947368421" y="713.0" type="line"/>
      <point x="543.4736842105264" y="600.2842105263157"/>
      <point x="499.7578947368421" y="477.06315789473683"/>
      <point x="459.7894736842105" y="366.34736842105264" type="curve"/>
      <point x="342.11578947368423" y="53.76842105263158" type="line"/>
      <point x="335.2736842105263" y="53.76842105263158" type="line"/>
      <point x="217.18947368421053" y="365.34736842105264" type="line"/>
      <point x="177.30526315789473" y="474.31578947368416"/>
      <point x="129.92631578947368" y="603.8631578947368"/>
      <point x="89.9578947368421" y="713.0" type="curve"/>
      <point x="25.05263157894737" y="713.0" type="line"/>
      <point x="59.800000000000004" y="626.6631578947369"/>
      <point x="100.29473684210527" y="525.9157894736843"/>
      <point x="130.9578947368421" y="450.0" type="curve"/>
      <point x="217.34736842105264" y="226.0" type="line"/>
      <point x="242.2526315789474" y="157.9157894736842"/>
      <point x="274.82105263157894" y="69.16842105263157"/>
    </contour>
  </outline>
</glyph>
<glyph name="W" format="2">
  <advance width="1005.4842105263158"/>
  <unicode hex="0057"/>
  <anchor x="501.77894736842103" y="0.0" name="bottom"/>
  <anchor x="501.77894736842103" y="713.0" name="top"/>
  <outline>
    <contour>
      <point x="239.6842105263158" y="0.0" type="curve"/>
      <point x="318.65263157894736" y="0.0" type="line"/>
      <point x="346.46315789473687" y="103.95789473684209"/>
      <point x="381.6842105263158" y="233.4842105263158"/>
      <point x="410.41052631578947" y="339.10526315789474" type="curve"/>
      <point x="497.7684210526316" y="645.5578947368421" type="line"/>
      <point x="504.61052631578946" y="645.5578947368421" type="line"/>
      <point x="593.0526315789474" y="339.1894736842105" type="line"/>
      <point x="621.7789473684211" y="233.56842105263158"/>
      <point x="657.0842105263158" y="106.70526315789473"/>
      <point x="685.8105263157895" y="0.0" type="curve"/>
      <point x="766.2947368421052" y="0.0" type="line"/>
      <point x="784.7052631578947" y="67.16842105263157"/>
      <point x="808.8631578947368" y="154.0"/>
      <point x="829.1894736842105" y="225.9157894736842" type="curve"/>
      <point x="897.0947368421052" y="450.0" type="line"/>
      <point x="922.0947368421052" y="528.6631578947369"/>
      <point x="953.4315789473684" y="626.0842105263158"/>
      <point x="981.5999999999999" y="713.0" type="curve"/>
      <point x="917.4421052631579" y="713.0" type="line"/>
      <point x="886.8842105263158" y="604.5368421052632"/>
      <point x="850.8315789473685" y="476.57894736842104"/>
      <point x="820.3578947368421" y="369.2842105263158" type="curve"/>
      <point x="728.8421052631579" y="58.473684210526315" type="line"/>
      <point x="722.0" y="58.473684210526315" type="line"/>
      <point x="633.5578947368421" y="368.2842105263158" type="line"/>
      <point x="603.0" y="478.41052631578947"/>
      <point x="569.5263157894736" y="602.7052631578947"/>
      <point x="538.9684210526316" y="713.0" type="curve"/>
      <point x="464.59999999999997" y="713.0" type="line"/>
      <point x="435.7894736842105" y="605.3684210526316"/>
      <point x="400.5684210526316" y="474.7473684210526"/>
      <point x="371.8421052631579" y="369.2842105263158" type="curve"/>
      <point x="284.4842105263158" y="58.473684210526315" type="line"/>
      <point x="277.6421052631579" y="58.473684210526315" type="line"/>
      <point x="187.0421052631579" y="366.4526315789474" type="line"/>
      <point x="155.65263157894736" y="477.4947368421052"/>
      <point x="120.43157894736842" y="601.8736842105263"/>
      <point x="89.0421052631579" y="713.0" type="curve"/>
      <point x="24.8" y="713.0" type="line"/>
      <point x="52.05263157894736" y="627.7473684210527"/>
      <point x="85.05263157894737" y="526.0"/>
      <point x="110.05263157894737" y="448.1684210526316" type="curve"/>
      <point x="176.8736842105263" y="225.0" type="line"/>
      <point x="196.20000000000002" y="156.0842105263158"/>
      <point x="219.4421052631579" y="71.08421052631579"/>
    </contour>
  </outline>
</glyph>
<glyph name="X" format="2">
  <advance width="667.3368421052631"/>
  <unicode hex="0058"/>
  <outline>
    <contour>
      <point x="38.463157894736845" y="0.0" type="curve"/>
      <point x="106.77894736842104" y="0.0" type="line"/>
      <point x="151.3263157894737" y="67.5578947368421"/>
      <point x="188.5473684210526" y="125.04210526315791"/>
      <point x="226.6" y="183.93684210526317" type="curve"/>
      <point x="320.62105263157895" y="324.22105263157897" type="line"/>
      <point x="327.4631578947368" y="324.22105263157897" type="line"/>
      <point x="428.06315789473683" y="184.85263157894738" type="line"/>
      <point x="468.11578947368423" y="127.70526315789473"/>
      <point x="510.1684210526316" y="67.47368421052632"/>
      <point x="557.6315789473684" y="0.0" type="curve"/>
      <point x="629.1263157894737" y="0.0" type="line"/>
      <point x="571.9684210526317" y="76.0"/>
      <point x="521.7263157894737" y="142.0"/>
      <point x="463.56842105263155" y="219.0842105263158" type="curve"/>
      <point x="351.4315789473684" y="374.2526315789474" type="line"/>
      <point x="351.4315789473684" y="353.63157894736844" type="line"/>
      <point x="459.82105263157894" y="513.2315789473685" type="line"/>
      <point x="500.2315789473684" y="570.4000000000001"/>
      <point x="548.7263157894737" y="638.9052631578948"/>
      <point x="601.4736842105264" y="713.0" type="curve"/>
      <point x="532.2421052631579" y="713.0" type="line"/>
      <point x="488.35789473684207" y="646.5999999999999"/>
      <point x="443.7263157894737" y="578.7052631578948"/>
      <point x="404.58947368421053" y="518.6421052631579" type="curve"/>
      <point x="326.4736842105263" y="403.09473684210525" type="line"/>
      <point x="319.6315789473684" y="403.09473684210525" type="line"/>
      <point x="239.5157894736842" y="517.7263157894737" type="line"/>
      <point x="200.29473684210527" y="575.9578947368421"/>
      <point x="155.49473684210525" y="643.1052631578948"/>
      <point x="108.77894736842106" y="713.0" type="curve"/>
      <point x="39.126315789473686" y="713.0" type="line"/>
      <point x="97.28421052631579" y="632.7473684210526"/>
      <point x="144.61052631578946" y="566.578947368421"/>
      <point x="192.85263157894735" y="500.41052631578947" type="curve"/>
      <point x="295.0736842105263" y="354.1578947368421" type="line"/>
      <point x="295.0736842105263" y="374.10526315789474" type="line"/>
      <point x="178.3578947368421" y="200.26315789473685" type="line"/>
      <point x="128.11578947368417" y="128.7578947368421"/>
      <point x="83.04210526315788" y="63.84210526315789"/>
    </contour>
  </outline>
</glyph>
<glyph name="Y" format="2">
  <advance width="636.2421052631579"/>
  <unicode hex="0059"/>
  <anchor x="318.87368421052633" y="0.0" name="bottom"/>
  <anchor x="318.87368421052633" y="713.0" name="top"/>
  <anchor x="20.0" y="713.0" name="topleft"/>
  <outline>
    <contour>
      <point x="295.2" y="293.4315789473684" type="line"/>
      <point x="342.4631578947368" y="293.4315789473684" type="line"/>
      <point x="503.1894736842105" y="548.3894736842105" type="line"/>
      <point x="537.357894736842" y="600.3157894736843"/>
      <point x="574.021052631579" y="656.4842105263158"/>
      <point x="610.5263157894736" y="713.0" type="curve"/>
      <point x="543.7052631578948" y="713.0" type="line"/>
      <point x="482.58947368421053" y="611.0315789473684"/>
      <point x="451.1157894736842" y="558.4631578947368"/>
      <point x="401.1578947368421" y="476.41052631578947" type="curve"/>
      <point x="322.37894736842105" y="350.36842105263156" type="line"/>
      <point x="315.36842105263156" y="350.36842105263156" type="line"/>
      <point x="233.92631578947368" y="481.0736842105263" type="line"/>
      <point x="186.7157894736842" y="559.4631578947369"/>
      <point x="156.1578947368421" y="610.9473684210526"/>
      <point x="95.0421052631579" y="713.0" type="curve"/>
      <point x="27.463157894736845" y="713.0" type="line"/>
      <point x="69.96842105263158" y="647.7368421052631"/>
      <point x="101.96842105263157" y="599.3157894736842"/>
      <point x="135.22105263157894" y="548.3894736842105" type="curve"/>
    </contour>
    <contour>
      <point x="290.43157894736845" y="0.0" type="curve"/>
      <point x="348.2315789473684" y="0.0" type="line"/>
      <point x="346.81052631578945" y="80.41052631578947"/>
      <point x="345.3894736842105" y="149.90526315789472"/>
      <point x="343.88421052631577" y="237.2421052631579" type="curve"/>
      <point x="343.88421052631577" y="334.6736842105263" type="line"/>
      <point x="293.86315789473684" y="334.6736842105263" type="line"/>
      <point x="293.86315789473684" y="237.2421052631579" type="line"/>
      <point x="292.3578947368421" y="149.82105263157894"/>
      <point x="291.85263157894735" y="80.32631578947368"/>
    </contour>
  </outline>
</glyph>
<glyph name="Z" format="2">
  <advance width="662.7894736842105"/>
  <unicode hex="005A"/>
  <anchor x="331.85263157894735" y="0.0" name="bottom"/>
  <anchor x="331.85263157894735" y="357.0" name="center"/>
  <anchor x="331.85263157894735" y="713.0" name="top"/>
  <outline>
    <contour>
      <point x="52.89473684210526" y="0.0" type="line"/>
      <point x="605.3157894736842" y="0.0" type="line"/>
      <point x="605.3157894736842" y="52.08421052631579" type="line"/>
      <point x="519.5894736842105" y="50.578947368421055"/>
      <point x="380.71578947368425" y="47.82105263157895"/>
      <point x="285.3263157894737" y="45.31578947368421" type="curve"/>
      <point x="86.8842105263158" y="45.31578947368421" type="line"/>
      <point x="100.71578947368421" y="15.610526315789473" type="line"/>
      <point x="407.70526315789476" y="417.30526315789473" type="line"/>
      <point x="473.10526315789474" y="501.3578947368421"/>
      <point x="537.2526315789473" y="585.0736842105264"/>
      <point x="601.978947368421" y="668.4526315789474" type="curve"/>
      <point x="601.978947368421" y="713.0" type="line"/>
      <point x="59.48421052631579" y="713.0" type="line"/>
      <point x="59.48421052631579" y="661.4947368421053" type="line"/>
      <point x="167.70526315789473" y="663.3368421052631"/>
      <point x="268.8421052631579" y="666.0105263157895"/>
      <point x="358.4" y="667.6842105263158" type="curve"/>
      <point x="575.5052631578948" y="667.6842105263158" type="line"/>
      <point x="553.0105263157894" y="690.0631578947368" type="line"/>
      <point x="265.42105263157896" y="311.6736842105263" type="line"/>
      <point x="200.6" y="228.1157894736842"/>
      <point x="109.87368421052632" y="112.15789473684211"/>
      <point x="52.89473684210526" y="38.4421052631579" type="curve"/>
    </contour>
  </outline>
</glyph>
<glyph name="backslash" format="2">
  <advance width="441.95789473684215"/>
  <unicode hex="005C"/>
  <outline>
    <contour>
      <point x="353.06315789473683" y="0.0" type="curve"/>
      <point x="407.4947368421052" y="0.0" type="line"/>
      <point x="373.66315789473686" y="73.33684210526316"/>
      <point x="344.91578947368424" y="136.25263157894736"/>
      <point x="302.3368421052632" y="228.0" type="curve"/>
      <point x="191.52631578947367" y="476.0" type="line"/>
      <point x="149.8736842105263" y="571.9157894736842"/>
      <point x="121.8" y="636.9157894736842"/>
      <point x="88.81052631578947" y="713.0" type="curve"/>
      <point x="34.463157894736845" y="713.0" type="line"/>
      <point x="71.21052631578947" y="632.9157894736842"/>
      <point x="100.87368421052632" y="569.0"/>
      <point x="144.45263157894738" y="474.0" type="curve"/>
      <point x="254.26315789473685" y="228.0" type="line"/>
      <point x="294.0" y="136.0"/>
      <point x="321.0736842105263" y="74.0"/>
    </contour>
  </outline>
</glyph>
<glyph name="asciicircum" format="2">
  <advance width="595.7263157894737"/>
  <unicode hex="005E"/>
  <outline>
    <contour>
      <point x="480.7894736842105" y="389.36842105263156" type="curve"/>
      <point x="530.5052631578947" y="390.4526315789474" type="line"/>
      <point x="465.0210526315789" y="488.13684210526316"/>
      <point x="399.62105263157895" y="586.8210526315789"/>
      <point x="334.13684210526316" y="684.5052631578948" type="curve"/>
      <point x="261.58947368421053" y="684.5052631578948" type="line"/>
      <point x="196.10526315789474" y="586.8210526315789"/>
      <point x="130.70526315789476" y="490.13684210526316"/>
      <point x="65.22105263157894" y="392.4526315789474" type="curve"/>
      <point x="115.02105263157894" y="392.4526315789474" type="line"/>
      <point x="174.49473684210528" y="475.6736842105263"/>
      <point x="234.96842105263158" y="559.8947368421053"/>
      <point x="294.4421052631579" y="643.1157894736842" type="curve"/>
      <point x="301.2842105263158" y="643.1157894736842" type="line"/>
      <point x="360.84210526315786" y="558.8105263157895"/>
      <point x="421.23157894736846" y="473.6736842105263"/>
    </contour>
  </outline>
</glyph>
<glyph name="a" format="2">
  <advance width="519.1264367816092"/>
  <unicode hex="0061"/>
  <anchor x="263.18390804597703" y="0.0" name="bottom"/>
  <anchor x="433.17241379310343" y="0.0" name="ogonek"/>
  <anchor x="263.18390804597703" y="494.735632183908" name="top"/>
  <outline>
    <contour>
      <point x="211.4022988505747" y="-9.367816091954023" type="curve" smooth="yes"/>
      <point x="259.2758620689655" y="-9.367816091954023"/>
      <point x="331.1724137931035" y="33.770114942528735"/>
      <point x="388.0919540229885" y="78.95402298850574" type="curve"/>
      <point x="394.6436781609196" y="78.95402298850574" type="line"/>
      <point x="415.2758620689655" y="0.0" type="line"/>
      <point x="463.5402298850575" y="0.0" type="line"/>
      <point x="450.5402298850575" y="48.02298850574712"/>
      <point x="442.17241379310343" y="83.59770114942529"/>
      <point x="432.35632183908046" y="126.88505747126437" type="curve"/>
      <point x="432.35632183908046" y="211.0" type="line" smooth="yes"/>
      <point x="432.35632183908046" y="255.89655172413794"/>
      <point x="434.5402298850575" y="305.264367816092"/>
      <point x="434.5402298850575" y="334.0" type="curve" smooth="yes"/>
      <point x="434.5402298850575" y="453.91954022988506"/>
      <point x="367.8620689655172" y="505.1034482758621"/>
      <point x="266.28735632183907" y="505.1034482758621" type="curve" smooth="yes"/>
      <point x="230.0229885057471" y="505.1034482758621"/>
      <point x="127.50574712643677" y="480.47126436781605"/>
      <point x="82.95402298850576" y="468.8390804597701" type="curve"/>
      <point x="86.32183908045977" y="419.04597701149424" type="line"/>
      <point x="159.8505747126437" y="441.49425287356325"/>
      <point x="240.42528735632186" y="460.9655172413793"/>
      <point x="261.5057471264368" y="460.9655172413793" type="curve" smooth="yes"/>
      <point x="332.56321839080454" y="460.9655172413793"/>
      <point x="392.35632183908046" y="439.14942528735634"/>
      <point x="387.7241379310345" y="313.28735632183907" type="curve"/>
      <point x="220.05747126436782" y="280.04597701149424" type="line" smooth="yes"/>
      <point x="149.0344827586207" y="266.41379310344826"/>
      <point x="60.95402298850575" y="234.31034482758622"/>
      <point x="60.95402298850575" y="129.02298850574712" type="curve" smooth="yes"/>
      <point x="60.95402298850575" y="45.264367816091955"/>
      <point x="117.60919540229885" y="-9.367816091954023"/>
    </contour>
    <contour>
      <point x="218.75862068965517" y="33.03448275862069" type="curve" smooth="yes"/>
      <point x="155.01149425287358" y="33.03448275862069"/>
      <point x="108.32183908045977" y="60.45977011494253"/>
      <point x="108.32183908045977" y="130.75862068965517" type="curve" smooth="yes"/>
      <point x="108.32183908045977" y="201.13793103448276"/>
      <point x="165.1494252873563" y="229.77011494252872"/>
      <point x="234.632183908046" y="242.66666666666666" type="curve" smooth="yes"/>
      <point x="341.7471264367816" y="262.37931034482756"/>
      <point x="369.0919540229885" y="272.2758620689655"/>
      <point x="387.17241379310343" y="281.2758620689655" type="curve"/>
      <point x="386.35632183908046" y="128.1494252873563" type="line"/>
      <point x="328.58620689655174" y="73.56321839080461"/>
      <point x="255.9770114942529" y="33.03448275862069"/>
    </contour>
  </outline>
</glyph>
<glyph name="b" format="2">
  <advance width="590.6736842105264"/>
  <unicode hex="0062"/>
  <outline>
    <contour>
      <point x="313.9894736842105" y="-9.589473684210526" type="curve" smooth="yes"/>
      <point x="458.7263157894737" y="-9.589473684210526"/>
      <point x="532.2105263157895" y="110.16842105263157"/>
      <point x="532.2105263157895" y="249.16842105263157" type="curve" smooth="yes"/>
      <point x="532.2105263157895" y="396.33684210526314"/>
      <point x="450.1473684210526" y="505.17894736842106"/>
      <point x="312.0736842105263" y="505.17894736842106" type="curve" smooth="yes"/>
      <point x="255.10526315789474" y="505.17894736842106"/>
      <point x="198.03157894736842" y="466.5263157894737"/>
      <point x="151.62105263157895" y="432.3578947368421" type="curve"/>
      <point x="144.77894736842106" y="432.3578947368421" type="line"/>
      <point x="144.77894736842106" y="493.9157894736842" type="line"/>
      <point x="146.45263157894738" y="579.8421052631579"/>
      <point x="148.04210526315788" y="659.4315789473684"/>
      <point x="149.54736842105262" y="741.0105263157895" type="curve"/>
      <point x="90.16842105263159" y="729.2526315789473" type="line"/>
      <point x="93.09473684210526" y="656.3263157894737"/>
      <point x="95.93684210526315" y="578.4105263157895"/>
      <point x="98.61052631578947" y="493.9157894736842" type="curve"/>
      <point x="98.61052631578947" y="220.32631578947368" type="line"/>
      <point x="97.10526315789474" y="139.07368421052632"/>
      <point x="96.6842105263158" y="74.57894736842105"/>
      <point x="95.26315789473685" y="0.0" type="curve"/>
      <point x="136.90526315789472" y="0.0" type="line"/>
      <point x="141.67368421052632" y="69.4" type="line"/>
      <point x="148.26315789473685" y="69.4" type="line"/>
      <point x="199.3578947368421" y="26.726315789473684"/>
      <point x="267.0842105263158" y="-9.589473684210526"/>
    </contour>
    <contour>
      <point x="306.32631578947365" y="35.294736842105266" type="curve"/>
      <point x="254.94736842105263" y="37.37894736842105"/>
      <point x="190.41052631578947" y="78.5157894736842"/>
      <point x="144.77894736842106" y="122.82105263157894" type="curve"/>
      <point x="144.77894736842106" y="377.93684210526317" type="line"/>
      <point x="199.56842105263158" y="430.8105263157895"/>
      <point x="264.0210526315789" y="458.87368421052633"/>
      <point x="304.4947368421052" y="460.0421052631579" type="curve"/>
      <point x="426.9894736842105" y="457.0421052631579"/>
      <point x="484.7052631578947" y="365.2631578947368"/>
      <point x="484.7052631578947" y="249.0" type="curve" smooth="yes"/>
      <point x="484.7052631578947" y="137.56842105263158"/>
      <point x="431.65263157894736" y="38.294736842105266"/>
    </contour>
  </outline>
</glyph>
<glyph name="c" format="2">
  <advance width="499.6421052631579"/>
  <unicode hex="0063"/>
  <anchor x="288.65263157894736" y="0.0" name="bottom"/>
  <anchor x="280.41052631578947" y="494.6736842105263" name="top"/>
  <outline>
    <contour>
      <point x="303.0736842105263" y="-9.25263157894737" type="curve" smooth="yes"/>
      <point x="335.4842105263158" y="-9.25263157894737"/>
      <point x="406.33684210526314" y="9.905263157894737"/>
      <point x="449.1684210526316" y="25.315789473684212" type="curve"/>
      <point x="442.0842105263158" y="73.69473684210526" type="line"/>
      <point x="393.7684210526316" y="51.78947368421053"/>
      <point x="329.2" y="35.04210526315789"/>
      <point x="308.1263157894737" y="35.04210526315789" type="curve" smooth="yes"/>
      <point x="172.61052631578946" y="37.873684210526314"/>
      <point x="105.71578947368421" y="128.4"/>
      <point x="105.71578947368421" y="248.67368421052632" type="curve" smooth="yes"/>
      <point x="105.71578947368421" y="378.09473684210525"/>
      <point x="181.33684210526317" y="457.29473684210524"/>
      <point x="297.01052631578943" y="460.29473684210524" type="curve"/>
      <point x="314.4210526315789" y="460.29473684210524"/>
      <point x="379.33684210526314" y="442.37894736842105"/>
      <point x="440.8315789473684" y="419.63157894736844" type="curve"/>
      <point x="446.6736842105263" y="468.34736842105264" type="line"/>
      <point x="406.7368421052632" y="480.85263157894735"/>
      <point x="324.4842105263158" y="505.09473684210525"/>
      <point x="293.821052631579" y="505.09473684210525" type="curve" smooth="yes"/>
      <point x="146.1263157894737" y="505.09473684210525"/>
      <point x="58.294736842105266" y="393.9263157894737"/>
      <point x="58.294736842105266" y="248.0842105263158" type="curve" smooth="yes"/>
      <point x="58.294736842105266" y="103.2421052631579"/>
      <point x="146.5578947368421" y="-9.25263157894737"/>
    </contour>
  </outline>
</glyph>
<glyph name="f" format="2">
  <advance width="386.5368421052632"/>
  <unicode hex="0066"/>
  <outline>
    <contour>
      <point x="124.44210526315788" y="0.0" type="curve"/>
      <point x="178.22105263157894" y="0.0" type="line"/>
      <point x="176.79999999999998" y="74.57894736842105"/>
      <point x="175.46315789473684" y="139.07368421052632"/>
      <point x="173.9578947368421" y="220.32631578947368" type="curve"/>
      <point x="173.9578947368421" y="479.1578947368421" type="line"/>
      <point x="174.29473684210527" y="494.6736842105263" type="line"/>
      <point x="173.3684210526316" y="507.42105263157896"/>
      <point x="171.76842105263157" y="542.8210526315789"/>
      <point x="171.76842105263157" y="567.9684210526316" type="curve" smooth="yes"/>
      <point x="171.76842105263157" y="655.0736842105263"/>
      <point x="209.67368421052632" y="700.0421052631579"/>
      <point x="300.86315789473684" y="700.0421052631579" type="curve" smooth="yes"/>
      <point x="306.86315789473684" y="700.0421052631579"/>
      <point x="342.2" y="694.7894736842105"/>
      <point x="373.87368421052633" y="688.5368421052632" type="curve"/>
      <point x="378.88421052631577" y="736.3368421052631" type="line"/>
      <point x="356.9473684210526" y="739.5052631578948"/>
      <point x="311.58947368421053" y="744.421052631579"/>
      <point x="298.5052631578947" y="744.421052631579" type="curve" smooth="yes"/>
      <point x="203.82105263157894" y="744.421052631579"/>
      <point x="125.86315789473683" y="699.9263157894737"/>
      <point x="125.86315789473683" y="567.8842105263158" type="curve" smooth="yes"/>
      <point x="125.86315789473683" y="442.61052631578946"/>
      <point x="127.78947368421052" y="352.7368421052632"/>
      <point x="127.78947368421052" y="269.4105263157895" type="curve"/>
      <point x="127.78947368421052" y="220.32631578947368" type="line"/>
      <point x="126.28421052631579" y="139.07368421052632"/>
      <point x="125.86315789473683" y="74.57894736842105"/>
    </contour>
    <contour>
      <point x="27.568421052631578" y="451.0421052631579" type="line"/>
      <point x="141.33684210526314" y="457.4736842105263" type="line"/>
      <point x="157.25263157894736" y="457.4736842105263" type="line"/>
      <point x="223.98947368421054" y="455.9684210526316"/>
      <point x="290.47368421052636" y="453.5473684210526"/>
      <point x="359.37894736842105" y="451.0421052631579" type="curve"/>
      <point x="359.37894736842105" y="494.6736842105263" type="line"/>
      <point x="27.568421052631578" y="494.6736842105263" type="line"/>
    </contour>
  </outline>
</glyph>
<glyph name="g" format="2">
  <advance width="538.2068965517242"/>
  <unicode hex="0067"/>
  <anchor x="267.2873563218391" y="-192.0" name="bottom"/>
  <anchor x="253.41379310344828" y="494.735632183908" name="top"/>
  <outline>
    <contour>
      <point x="245.89655172413794" y="-202.367816091954" type="curve" smooth="yes"/>
      <point x="355.2068965517241" y="-202.367816091954"/>
      <point x="483.7011494252874" y="-146.10344827586206"/>
      <point x="483.7011494252874" y="-41.95402298850575" type="curve" smooth="yes"/>
      <point x="483.7011494252874" y="32.0919540229885"/>
      <point x="430.2068965517241" y="62.724137931034484"/>
      <point x="285.9655172413793" y="62.724137931034484" type="curve" smooth="yes"/>
      <point x="263.3333333333333" y="62.724137931034484" type="line" smooth="yes"/>
      <point x="181.19540229885058" y="62.724137931034484"/>
      <point x="149.29885057471265" y="73.62068965517241"/>
      <point x="149.29885057471265" y="109.49425287356321" type="curve" smooth="yes"/>
      <point x="149.29885057471265" y="144.183908045977"/>
      <point x="185.01149425287355" y="156.26436781609195"/>
      <point x="264.14942528735634" y="175.16091954022988" type="curve" smooth="yes"/>
      <point x="364.67816091954023" y="199.42528735632183"/>
      <point x="425.33333333333337" y="245.3448275862069"/>
      <point x="425.33333333333337" y="341.44827586206895" type="curve" smooth="yes"/>
      <point x="425.33333333333337" y="399.264367816092"/>
      <point x="398.4367816091954" y="450.7931034482759"/>
      <point x="331.2988505747127" y="479.60919540229884" type="curve"/>
      <point x="316.4367816091954" y="461.9080459770115" type="line"/>
      <point x="382.33333333333337" y="457.98850574712645"/>
      <point x="447.67816091954023" y="455.2528735632184"/>
      <point x="515.7586206896551" y="451.3333333333333" type="curve"/>
      <point x="515.7586206896551" y="494.91954022988506" type="line"/>
      <point x="351.98850574712645" y="494.91954022988506" type="line" smooth="yes"/>
      <point x="303.0459770114943" y="494.91954022988506"/>
      <point x="283.12643678160924" y="505.1034482758621"/>
      <point x="240.10344827586206" y="505.1034482758621" type="curve" smooth="yes"/>
      <point x="135.85057471264366" y="505.1034482758621"/>
      <point x="56.50574712643678" y="443.44827586206895"/>
      <point x="56.50574712643678" y="346.0" type="curve" smooth="yes"/>
      <point x="56.50574712643678" y="266.8390804597701"/>
      <point x="139.27586206896552" y="213.94252873563218"/>
      <point x="181.29885057471262" y="190.55172413793105" type="curve"/>
      <point x="181.29885057471262" y="185.0" type="line"/>
      <point x="129.29885057471265" y="169.5287356321839"/>
      <point x="103.95402298850574" y="142.97701149425288"/>
      <point x="103.95402298850574" y="105.08045977011494" type="curve" smooth="yes"/>
      <point x="103.95402298850574" y="59.71264367816092"/>
      <point x="137.5057471264368" y="40.71264367816092"/>
      <point x="159.58620689655172" y="34.52873563218391" type="curve"/>
      <point x="159.58620689655172" y="28.79310344827586" type="line"/>
      <point x="116.13793103448275" y="6.793103448275863"/>
      <point x="59.241379310344826" y="-36.28735632183908"/>
      <point x="59.241379310344826" y="-83.91954022988506" type="curve" smooth="yes"/>
      <point x="59.241379310344826" y="-140.28735632183907"/>
      <point x="100.16091954022988" y="-202.367816091954"/>
    </contour>
    <contour>
      <point x="247.75862068965517" y="-159.51724137931035" type="curve"/>
      <point x="137.8505747126437" y="-157.51724137931035"/>
      <point x="104.2183908045977" y="-121.27586206896551"/>
      <point x="104.2183908045977" y="-77.95402298850574" type="curve" smooth="yes"/>
      <point x="104.2183908045977" y="-41.63218390804598"/>
      <point x="171.45977011494253" y="1.6896551724137916"/>
      <point x="223.41379310344828" y="19.95402298850575" type="curve"/>
      <point x="280.7126436781609" y="19.95402298850575" type="line" smooth="yes"/>
      <point x="407.54022988505744" y="19.95402298850575"/>
      <point x="437.98850574712645" y="0.6896551724137929"/>
      <point x="437.98850574712645" y="-47.264367816091955" type="curve" smooth="yes"/>
      <point x="437.98850574712645" y="-97.03448275862068"/>
      <point x="370.9310344827586" y="-156.5977011494253"/>
    </contour>
    <contour>
      <point x="232.1034482758621" y="208.09195402298852" type="curve"/>
      <point x="169.06896551724137" y="237.35632183908046"/>
      <point x="101.85057471264368" y="285.2298850574713"/>
      <point x="101.85057471264368" y="344.1609195402299" type="curve" smooth="yes"/>
      <point x="101.85057471264368" y="425.17241379310343"/>
      <point x="165.6206896551724" y="459.9655172413793"/>
      <point x="242.183908045977" y="461.3333333333333" type="curve"/>
      <point x="300.97701149425285" y="458.3333333333333"/>
      <point x="379.98850574712645" y="427.17241379310343"/>
      <point x="379.98850574712645" y="339.7931034482759" type="curve" smooth="yes"/>
      <point x="379.98850574712645" y="242.17241379310346"/>
      <point x="293.05747126436785" y="221.35632183908046"/>
    </contour>
  </outline>
</glyph>
<glyph name="h" format="2">
  <advance width="570.5263157894738"/>
  <unicode hex="0068"/>
  <guideline x="106.21052631578947" y="732.0105263157894" angle="4.470799999999997"/>
  <anchor x="290.0947368421053" y="0.0" name="bottom"/>
  <anchor x="290.0947368421053" y="409.0" name="center"/>
  <anchor x="272.0842105263158" y="723.8421052631579" name="top"/>
  <outline>
    <contour>
      <point x="95.26315789473685" y="0.0" type="curve"/>
      <point x="149.04210526315788" y="0.0" type="line"/>
      <point x="147.62105263157892" y="74.49473684210527"/>
      <point x="146.20000000000002" y="139.07368421052632"/>
      <point x="144.77894736842106" y="219.23157894736843" type="curve"/>
      <point x="144.77894736842106" y="345.9473684210526" type="line"/>
      <point x="208.06315789473683" y="411.06315789473683"/>
      <point x="283.5157894736842" y="459.0315789473684"/>
      <point x="323.31578947368416" y="459.0315789473684" type="curve" smooth="yes"/>
      <point x="410.5052631578947" y="459.0315789473684"/>
      <point x="438.65263157894736" y="411.13684210526316"/>
      <point x="438.65263157894736" y="318.58947368421053" type="curve"/>
      <point x="438.65263157894736" y="219.23157894736843" type="line"/>
      <point x="437.3157894736842" y="139.0736842105263"/>
      <point x="436.89473684210526" y="74.49473684210527"/>
      <point x="435.5578947368421" y="0.0" type="curve"/>
      <point x="489.1684210526316" y="0.0" type="line"/>
      <point x="487.74736842105267" y="74.49473684210527"/>
      <point x="486.32631578947365" y="139.0736842105263"/>
      <point x="484.82105263157894" y="220.32631578947368" type="curve"/>
      <point x="484.82105263157894" y="247.42105263157896"/>
      <point x="486.15789473684214" y="284.17894736842106"/>
      <point x="486.15789473684214" y="327.2631578947368" type="curve" smooth="yes"/>
      <point x="486.15789473684214" y="441.7684210526316"/>
      <point x="442.5578947368421" y="505.17894736842106"/>
      <point x="332.82105263157894" y="505.17894736842106" type="curve" smooth="yes"/>
      <point x="275.34736842105264" y="505.17894736842106"/>
      <point x="193.29473684210527" y="441.37894736842105"/>
      <point x="151.70526315789473" y="403.04210526315796" type="curve"/>
      <point x="144.77894736842106" y="403.04210526315796" type="line"/>
      <point x="144.77894736842106" y="493.9157894736842" type="line"/>
      <point x="146.45263157894738" y="579.8421052631579"/>
      <point x="148.04210526315788" y="659.4315789473685"/>
      <point x="149.54736842105262" y="741.0105263157895" type="curve"/>
      <point x="90.16842105263159" y="729.2526315789473" type="line"/>
      <point x="93.09473684210526" y="656.3263157894737"/>
      <point x="95.93684210526315" y="578.4105263157895"/>
      <point x="98.61052631578947" y="493.9157894736842" type="curve"/>
      <point x="98.61052631578947" y="220.32631578947368" type="line"/>
      <point x="97.10526315789474" y="139.07368421052632"/>
      <point x="96.6842105263158" y="74.57894736842105"/>
    </contour>
  </outline>
</glyph>
<glyph name="k" format="2">
  <advance width="524.5052631578948"/>
  <unicode hex="006B"/>
  <anchor x="271.0315789473684" y="0.0" name="bottom"/>
  <anchor x="271.0315789473684" y="723.8421052631579" name="top"/>
  <outline>
    <contour>
      <point x="428.2421052631579" y="0.0" type="curve"/>
      <point x="503.53684210526313" y="0.0" type="line"/>
      <point x="435.0631578947369" y="57.50526315789474"/>
      <point x="368.33684210526314" y="114.17894736842105"/>
      <point x="299.86315789473684" y="171.68421052631578" type="curve"/>
      <point x="192.7263157894737" y="264.22105263157897" type="line"/>
      <point x="193.65263157894736" y="238.82105263157894" type="line"/>
      <point x="287.1157894736842" y="322.4947368421053" type="line"/>
      <point x="353.7578947368421" y="379.9157894736842"/>
      <point x="416.7368421052631" y="436.3368421052632"/>
      <point x="484.37894736842105" y="494.6736842105263" type="curve"/>
      <point x="412.34736842105264" y="494.6736842105263" type="line"/>
      <point x="360.22105263157897" y="446.4315789473684"/>
      <point x="307.2631578947368" y="397.3578947368421"/>
      <point x="255.13684210526316" y="349.11578947368423" type="curve"/>
      <point x="167.86315789473684" y="270.37894736842105" type="line"/>
      <point x="137.02105263157895" y="270.37894736842105" type="line"/>
      <point x="137.02105263157895" y="232.77894736842106" type="line"/>
      <point x="161.45263157894738" y="232.77894736842106" type="line"/>
      <point x="266.9578947368421" y="143.7157894736842" type="line"/>
      <point x="320.7473684210526" y="95.81052631578947"/>
      <point x="374.5368421052632" y="47.90526315789474"/>
    </contour>
    <contour>
      <point x="95.26315789473685" y="0.0" type="curve"/>
      <point x="149.04210526315788" y="0.0" type="line"/>
      <point x="147.62105263157892" y="73.48421052631579"/>
      <point x="146.20000000000002" y="137.22105263157894"/>
      <point x="144.77894736842106" y="216.3684210526316" type="curve"/>
      <point x="144.77894736842106" y="493.9157894736842" type="line"/>
      <point x="146.45263157894738" y="579.8421052631579"/>
      <point x="148.04210526315788" y="659.4315789473685"/>
      <point x="149.54736842105262" y="741.0105263157895" type="curve"/>
      <point x="90.16842105263159" y="729.2526315789473" type="line"/>
      <point x="93.09473684210526" y="656.3263157894737"/>
      <point x="95.93684210526315" y="578.4105263157895"/>
      <point x="98.61052631578947" y="493.9157894736842" type="curve"/>
      <point x="98.61052631578947" y="220.32631578947368" type="line"/>
      <point x="97.10526315789474" y="139.07368421052632"/>
      <point x="96.6842105263158" y="74.57894736842105"/>
    </contour>
  </outline>
</glyph>
<glyph name="l" format="2">
  <advance width="243.38947368421051"/>
  <unicode hex="006C"/>
  <anchor x="121.69473684210526" y="0.0" name="bottom"/>
  <anchor x="122.1157894736842" y="409.0" name="center"/>
  <anchor x="121.69473684210526" y="723.8421052631579" name="top"/>
  <anchor x="200.90526315789475" y="494.6736842105263" name="topright"/>
  <outline>
    <contour>
      <point x="95.26315789473685" y="0.0" type="curve"/>
      <point x="149.04210526315788" y="0.0" type="line"/>
      <point x="147.62105263157892" y="74.57894736842105"/>
      <point x="146.2842105263158" y="139.07368421052632"/>
      <point x="144.77894736842106" y="220.32631578947368" type="curve"/>
      <point x="144.77894736842106" y="493.9157894736842" type="line"/>
      <point x="146.45263157894738" y="579.8421052631579"/>
      <point x="148.04210526315788" y="659.4315789473684"/>
      <point x="149.54736842105262" y="741.0105263157895" type="curve"/>
      <point x="90.16842105263159" y="729.2526315789473" type="line"/>
      <point x="93.09473684210526" y="656.3263157894737"/>
      <point x="95.93684210526315" y="578.4105263157895"/>
      <point x="98.61052631578947" y="493.9157894736842" type="curve"/>
      <point x="98.61052631578947" y="220.32631578947368" type="line"/>
      <point x="97.10526315789474" y="139.07368421052632"/>
      <point x="96.6842105263158" y="74.57894736842105"/>
    </contour>
  </outline>
</glyph>
<glyph name="m" format="2">
  <advance width="878.1789473684211"/>
  <unicode hex="006D"/>
  <anchor x="450.7473684210526" y="0.0" name="bottom"/>
  <anchor x="450.7473684210526" y="494.6736842105263" name="top"/>
  <outline>
    <contour>
      <point x="101.09473684210526" y="0.0" type="curve"/>
      <point x="154.8736842105263" y="0.0" type="line"/>
      <point x="153.45263157894735" y="74.49473684210527"/>
      <point x="152.03157894736842" y="139.07368421052632"/>
      <point x="150.61052631578946" y="219.23157894736843" type="curve"/>
      <point x="150.61052631578946" y="345.9473684210526" type="line"/>
      <point x="213.89473684210526" y="411.06315789473683"/>
      <point x="280.021052631579" y="459.0315789473684"/>
      <point x="318.98947368421057" y="459.0315789473684" type="curve" smooth="yes"/>
      <point x="401.34736842105264" y="459.0315789473684"/>
      <point x="427.66315789473686" y="411.13684210526316"/>
      <point x="427.66315789473686" y="318.58947368421053" type="curve"/>
      <point x="427.66315789473686" y="219.23157894736843" type="line"/>
      <point x="426.3263157894737" y="139.0736842105263"/>
      <point x="425.90526315789475" y="74.49473684210527"/>
      <point x="424.5684210526316" y="0.0" type="curve"/>
      <point x="478.17894736842106" y="0.0" type="line"/>
      <point x="476.7578947368421" y="74.49473684210527"/>
      <point x="475.33684210526314" y="139.0736842105263"/>
      <point x="473.8315789473684" y="220.32631578947368" type="curve"/>
      <point x="473.8315789473684" y="247.42105263157896"/>
      <point x="475.1684210526316" y="284.17894736842106"/>
      <point x="475.1684210526316" y="327.2631578947368" type="curve" smooth="yes"/>
      <point x="475.1684210526316" y="346.85263157894735"/>
      <point x="474.0" y="364.4421052631579"/>
      <point x="470.8315789473684" y="381.6947368421052" type="curve"/>
      <point x="468.40000000000003" y="385.35789473684207" type="line"/>
      <point x="455.81052631578945" y="463.8526315789474"/>
      <point x="411.5578947368421" y="505.17894736842106"/>
      <point x="329.3263157894737" y="505.17894736842106" type="curve" smooth="yes"/>
      <point x="271.5157894736842" y="505.17894736842106"/>
      <point x="197.69473684210524" y="441.12631578947367"/>
      <point x="155.17894736842103" y="402.53684210526313" type="curve"/>
      <point x="148.25263157894736" y="402.53684210526313" type="line"/>
      <point x="141.91578947368424" y="498.2631578947368" type="line"/>
      <point x="93.7578947368421" y="494.6736842105263" type="line"/>
      <point x="97.43157894736844" y="440.978947368421"/>
      <point x="101.85263157894737" y="385.9578947368421"/>
      <point x="104.4421052631579" y="335.34736842105264" type="curve"/>
      <point x="104.4421052631579" y="220.32631578947368" type="line"/>
      <point x="102.93684210526317" y="139.07368421052632"/>
      <point x="102.51578947368421" y="74.57894736842105"/>
    </contour>
    <contour>
      <point x="743.2105263157895" y="0.0" type="curve"/>
      <point x="796.821052631579" y="0.0" type="line"/>
      <point x="795.4" y="74.49473684210527"/>
      <point x="793.9789473684211" y="139.0736842105263"/>
      <point x="792.4736842105264" y="220.32631578947368" type="curve"/>
      <point x="792.4736842105264" y="247.42105263157896"/>
      <point x="793.8105263157895" y="284.17894736842106"/>
      <point x="793.8105263157895" y="327.2631578947368" type="curve" smooth="yes"/>
      <point x="793.8105263157895" y="441.7684210526316"/>
      <point x="750.2105263157895" y="505.17894736842106"/>
      <point x="647.9684210526316" y="505.17894736842106" type="curve" smooth="yes"/>
      <point x="590.0736842105263" y="505.17894736842106"/>
      <point x="516.0842105263157" y="442.87368421052633"/>
      <point x="470.7368421052631" y="399.53684210526313" type="curve"/>
      <point x="463.64210526315793" y="399.53684210526313" type="line"/>
      <point x="469.1684210526316" y="345.9473684210526" type="line"/>
      <point x="532.4526315789474" y="411.06315789473683"/>
      <point x="598.6631578947369" y="459.0315789473684"/>
      <point x="637.6315789473684" y="459.0315789473684" type="curve" smooth="yes"/>
      <point x="719.9894736842106" y="459.0315789473684"/>
      <point x="746.3052631578947" y="411.13684210526316"/>
      <point x="746.3052631578947" y="318.58947368421053" type="curve"/>
      <point x="746.3052631578947" y="219.23157894736843" type="line"/>
      <point x="744.9684210526316" y="139.0736842105263"/>
      <point x="744.5473684210526" y="74.49473684210527"/>
    </contour>
  </outline>
</glyph>
<glyph name="n" format="2">
  <advance width="576.3578947368421"/>
  <unicode hex="006E"/>
  <anchor x="294.42105263157896" y="0.0" name="bottom"/>
  <anchor x="294.42105263157896" y="494.6736842105263" name="top"/>
  <outline>
    <contour>
      <point x="101.09473684210526" y="0.0" type="curve"/>
      <point x="154.8736842105263" y="0.0" type="line"/>
      <point x="153.45263157894735" y="74.49473684210527"/>
      <point x="152.03157894736842" y="139.07368421052632"/>
      <point x="150.61052631578946" y="219.23157894736843" type="curve"/>
      <point x="150.61052631578946" y="345.9473684210526" type="line"/>
      <point x="213.89473684210526" y="411.06315789473683"/>
      <point x="289.34736842105264" y="459.0315789473684"/>
      <point x="329.1473684210526" y="459.0315789473684" type="curve" smooth="yes"/>
      <point x="416.33684210526314" y="459.0315789473684"/>
      <point x="444.4842105263158" y="411.13684210526316"/>
      <point x="444.4842105263158" y="318.58947368421053" type="curve"/>
      <point x="444.4842105263158" y="219.23157894736843" type="line"/>
      <point x="443.14736842105265" y="139.0736842105263"/>
      <point x="442.7263157894737" y="74.49473684210527"/>
      <point x="441.38947368421054" y="0.0" type="curve"/>
      <point x="495.0" y="0.0" type="line"/>
      <point x="493.57894736842104" y="74.49473684210527"/>
      <point x="492.1578947368421" y="139.0736842105263"/>
      <point x="490.65263157894736" y="220.32631578947368" type="curve"/>
      <point x="490.65263157894736" y="247.42105263157896"/>
      <point x="491.9894736842105" y="284.17894736842106"/>
      <point x="491.9894736842105" y="327.2631578947368" type="curve" smooth="yes"/>
      <point x="491.9894736842105" y="441.7684210526316"/>
      <point x="448.38947368421054" y="505.17894736842106"/>
      <point x="338.65263157894736" y="505.17894736842106" type="curve" smooth="yes"/>
      <point x="280.6736842105263" y="505.17894736842106"/>
      <point x="197.69473684210527" y="441.12631578947367"/>
      <point x="155.17894736842103" y="402.5368421052632" type="curve"/>
      <point x="148.25263157894736" y="402.5368421052632" type="line"/>
      <point x="141.91578947368424" y="498.2631578947368" type="line"/>
      <point x="93.7578947368421" y="494.6736842105263" type="line"/>
      <point x="97.43157894736844" y="440.978947368421"/>
      <point x="101.85263157894737" y="385.9578947368421"/>
      <point x="104.4421052631579" y="335.34736842105264" type="curve"/>
      <point x="104.4421052631579" y="220.32631578947368" type="line"/>
      <point x="102.93684210526317" y="139.07368421052632"/>
      <point x="102.51578947368421" y="74.57894736842105"/>
    </contour>
  </outline>
</glyph>
<glyph name="p" format="2">
  <advance width="596.5052631578948"/>
  <unicode hex="0070"/>
  <outline>
    <contour>
      <point x="100.17894736842105" y="-194.33684210526314" type="curve"/>
      <point x="155.29473684210527" y="-192.0" type="line"/>
      <point x="153.70526315789473" y="-117.50526315789473"/>
      <point x="152.28421052631577" y="-52.92631578947368"/>
      <point x="150.61052631578946" y="27.231578947368423" type="curve"/>
      <point x="150.61052631578946" y="68.30526315789474" type="line"/>
      <point x="157.03157894736844" y="68.30526315789474" type="line"/>
      <point x="207.2842105263158" y="26.389473684210525"/>
      <point x="273.4210526315789" y="-9.589473684210526"/>
      <point x="319.82105263157894" y="-9.589473684210526" type="curve" smooth="yes"/>
      <point x="464.5578947368421" y="-9.589473684210526"/>
      <point x="538.0421052631579" y="110.16842105263157"/>
      <point x="538.0421052631579" y="249.16842105263157" type="curve" smooth="yes"/>
      <point x="538.0421052631579" y="396.33684210526314"/>
      <point x="455.978947368421" y="505.17894736842106"/>
      <point x="317.90526315789475" y="505.17894736842106" type="curve" smooth="yes"/>
      <point x="260.6" y="505.17894736842106"/>
      <point x="200.93684210526314" y="465.1052631578947"/>
      <point x="153.93684210526317" y="429.34736842105264" type="curve"/>
      <point x="147.09473684210528" y="429.34736842105264" type="line"/>
      <point x="142.58947368421053" y="498.2631578947368" type="line"/>
      <point x="93.7578947368421" y="494.6736842105263" type="line"/>
      <point x="97.43157894736844" y="440.978947368421"/>
      <point x="101.85263157894737" y="385.9578947368421"/>
      <point x="104.4421052631579" y="335.34736842105264" type="curve"/>
      <point x="104.4421052631579" y="28.326315789473686" type="line"/>
      <point x="102.93684210526317" y="-52.92631578947368"/>
      <point x="101.6" y="-119.84210526315789"/>
    </contour>
    <contour>
      <point x="312.1578947368421" y="35.294736842105266" type="curve"/>
      <point x="260.77894736842103" y="37.37894736842105"/>
      <point x="196.2421052631579" y="78.5157894736842"/>
      <point x="150.61052631578946" y="122.82105263157894" type="curve"/>
      <point x="150.61052631578946" y="377.93684210526317" type="line"/>
      <point x="205.4" y="430.8105263157895"/>
      <point x="269.85263157894735" y="458.87368421052633"/>
      <point x="310.32631578947365" y="460.0421052631579" type="curve"/>
      <point x="432.82105263157894" y="457.0421052631579"/>
      <point x="490.53684210526313" y="365.2631578947368"/>
      <point x="490.53684210526313" y="249.0" type="curve" smooth="yes"/>
      <point x="490.53684210526313" y="137.56842105263158"/>
      <point x="437.4842105263158" y="38.294736842105266"/>
    </contour>
  </outline>
</glyph>
<glyph name="r" format="2">
  <advance width="397.7052631578947"/>
  <unicode hex="0072"/>
  <anchor x="122.18947368421053" y="0.0" name="bottom"/>
  <anchor x="232.42105263157896" y="494.6736842105263" name="top"/>
  <outline>
    <contour>
      <point x="101.09473684210526" y="0.0" type="curve"/>
      <point x="154.8736842105263" y="0.0" type="line"/>
      <point x="153.45263157894735" y="74.49473684210527"/>
      <point x="152.03157894736842" y="139.07368421052632"/>
      <point x="150.61052631578946" y="219.23157894736843" type="curve"/>
      <point x="150.61052631578946" y="332.0210526315789" type="line"/>
      <point x="233.8" y="427.61052631578946"/>
      <point x="275.46315789473687" y="457.09473684210525"/>
      <point x="308.2736842105263" y="457.09473684210525" type="curve" smooth="yes"/>
      <point x="315.1894736842105" y="457.09473684210525"/>
      <point x="338.6947368421052" y="451.0105263157895"/>
      <point x="365.0421052631579" y="444.67368421052635" type="curve"/>
      <point x="369.3894736842105" y="497.9263157894737" type="line"/>
      <point x="351.4736842105263" y="501.17894736842106"/>
      <point x="322.1473684210526" y="505.17894736842106"/>
      <point x="311.14736842105265" y="505.17894736842106" type="curve" smooth="yes"/>
      <point x="274.2421052631579" y="505.17894736842106"/>
      <point x="225.2526315789474" y="474.2736842105263"/>
      <point x="152.43157894736842" y="390.63157894736844" type="curve"/>
      <point x="146.42105263157896" y="390.63157894736844" type="line"/>
      <point x="141.00000000000003" y="498.2631578947368" type="line"/>
      <point x="93.7578947368421" y="494.6736842105263" type="line"/>
      <point x="97.43157894736844" y="440.978947368421"/>
      <point x="101.85263157894737" y="385.9578947368421"/>
      <point x="104.4421052631579" y="335.34736842105264" type="curve"/>
      <point x="104.4421052631579" y="220.32631578947368" type="line"/>
      <point x="102.93684210526317" y="139.07368421052632"/>
      <point x="102.51578947368421" y="74.57894736842105"/>
    </contour>
  </outline>
</glyph>
<glyph name="t" format="2">
  <advance width="403.0315789473684"/>
  <unicode hex="0074"/>
  <anchor x="236.57894736842104" y="0.0" name="bottom"/>
  <anchor x="206.6" y="247.33684210526314" name="center"/>
  <anchor x="196.68421052631578" y="628.7157894736843" name="top"/>
  <anchor x="222.74736842105264" y="494.6736842105263" name="topright"/>
  <outline>
    <contour>
      <point x="273.2526315789474" y="-9.589473684210526" type="curve" smooth="yes"/>
      <point x="299.7368421052632" y="-9.589473684210526"/>
      <point x="345.2631578947368" y="2.989473684210526"/>
      <point x="371.2105263157895" y="14.242105263157896" type="curve"/>
      <point x="364.87368421052633" y="62.03157894736842" type="line"/>
      <point x="330.5473684210526" y="46.45263157894737"/>
      <point x="295.05263157894734" y="34.62105263157895"/>
      <point x="280.7263157894737" y="34.62105263157895" type="curve" smooth="yes"/>
      <point x="211.17894736842103" y="34.62105263157895"/>
      <point x="176.94736842105263" y="72.61052631578947"/>
      <point x="176.94736842105263" y="150.9157894736842" type="curve" smooth="yes"/>
      <point x="176.94736842105263" y="477.4736842105263" type="line"/>
      <point x="178.3684210526316" y="550.0"/>
      <point x="178.78947368421052" y="596.2736842105263"/>
      <point x="180.29473684210527" y="668.2" type="curve"/>
      <point x="126.76842105263158" y="654.7578947368421" type="line"/>
      <point x="129.18947368421053" y="594.0"/>
      <point x="129.61052631578946" y="541.3263157894737"/>
      <point x="131.03157894736842" y="477.4736842105263" type="curve"/>
      <point x="131.03157894736842" y="403.13684210526316"/>
      <point x="129.69473684210527" y="278.2736842105263"/>
      <point x="129.69473684210527" y="146.26315789473685" type="curve" smooth="yes"/>
      <point x="129.69473684210527" y="42.56842105263158"/>
      <point x="179.63157894736844" y="-9.589473684210526"/>
    </contour>
    <contour>
      <point x="27.568421052631578" y="451.0421052631579" type="line"/>
      <point x="141.33684210526314" y="457.4736842105263" type="line"/>
      <point x="157.25263157894736" y="457.4736842105263" type="line"/>
      <point x="223.98947368421054" y="456.05263157894734"/>
      <point x="295.8947368421053" y="453.5473684210526"/>
      <point x="364.8" y="451.0421052631579" type="curve"/>
      <point x="364.8" y="494.6736842105263" type="line"/>
      <point x="27.568421052631578" y="494.6736842105263" type="line"/>
    </contour>
  </outline>
</glyph>
<glyph name="u" format="2">
  <advance width="552.8736842105263"/>
  <unicode hex="0075"/>
  <anchor x="276.4315789473684" y="0.0" name="bottom"/>
  <anchor x="470.5052631578947" y="0.0" name="ogonek"/>
  <anchor x="276.4315789473684" y="494.6736842105263" name="top"/>
  <anchor x="522.8" y="494.6736842105263" name="topright"/>
  <outline>
    <contour>
      <point x="237.1157894736842" y="-9.589473684210526" type="curve" smooth="yes"/>
      <point x="291.61052631578946" y="-9.589473684210526"/>
      <point x="374.42105263157896" y="54.54736842105263"/>
      <point x="415.58947368421053" y="93.89473684210527" type="curve"/>
      <point x="422.5157894736842" y="93.89473684210527" type="line"/>
      <point x="426.10526315789474" y="0.0" type="line"/>
      <point x="471.01052631578943" y="0.0" type="line"/>
      <point x="469.5894736842105" y="74.57894736842105"/>
      <point x="468.25263157894733" y="139.07368421052632"/>
      <point x="466.7473684210526" y="220.32631578947368" type="curve"/>
      <point x="466.7473684210526" y="271.1684210526316" type="line"/>
      <point x="468.33684210526314" y="354.6842105263158"/>
      <point x="469.7578947368421" y="419.2631578947369"/>
      <point x="471.17894736842106" y="494.6736842105263" type="curve"/>
      <point x="416.4842105263158" y="494.6736842105263" type="line"/>
      <point x="417.9052631578947" y="420.17894736842106"/>
      <point x="419.2421052631579" y="354.6842105263158"/>
      <point x="420.57894736842104" y="273.69473684210527" type="curve"/>
      <point x="420.57894736842104" y="149.22105263157894" type="line"/>
      <point x="357.37894736842105" y="84.10526315789474"/>
      <point x="282.17894736842106" y="36.136842105263156"/>
      <point x="246.62105263157895" y="36.136842105263156" type="curve" smooth="yes"/>
      <point x="159.43157894736842" y="36.136842105263156"/>
      <point x="131.28421052631577" y="84.03157894736843"/>
      <point x="131.28421052631577" y="176.57894736842104" type="curve"/>
      <point x="131.28421052631577" y="273.69473684210527" type="line"/>
      <point x="132.62105263157892" y="355.6"/>
      <point x="133.9578947368421" y="421.6"/>
      <point x="135.29473684210527" y="497.0105263157895" type="curve"/>
      <point x="80.6842105263158" y="494.6736842105263" type="line"/>
      <point x="82.18947368421053" y="420.17894736842106"/>
      <point x="83.52631578947367" y="354.6842105263157"/>
      <point x="85.1157894736842" y="271.1684210526316" type="curve"/>
      <point x="85.1157894736842" y="241.32631578947368"/>
      <point x="83.94736842105263" y="211.41052631578947"/>
      <point x="83.94736842105263" y="168.32631578947368" type="curve" smooth="yes"/>
      <point x="83.94736842105263" y="53.82105263157895"/>
      <point x="127.37894736842105" y="-9.589473684210526"/>
    </contour>
  </outline>
</glyph>
<glyph name="v" format="2">
  <advance width="503.3263157894737"/>
  <unicode hex="0076"/>
  <outline>
    <contour>
      <point x="219.94736842105263" y="0.0" type="curve"/>
      <point x="281.63157894736844" y="0.0" type="line"/>
      <point x="305.1263157894737" y="62.084210526315786"/>
      <point x="327.62105263157895" y="123.16842105263159"/>
      <point x="350.2" y="185.33684210526314" type="curve"/>
      <point x="383.86315789473684" y="273.5052631578947" type="line"/>
      <point x="413.77894736842103" y="346.58947368421053"/>
      <point x="442.7789473684211" y="419.7578947368421"/>
      <point x="473.52631578947364" y="494.6736842105263" type="curve"/>
      <point x="416.25263157894733" y="494.6736842105263" type="line"/>
      <point x="383.77894736842103" y="405.37894736842105"/>
      <point x="352.22105263157897" y="317.41052631578947"/>
      <point x="318.8315789473684" y="225.69473684210527" type="curve"/>
      <point x="254.37894736842105" y="52.09473684210526" type="line"/>
      <point x="247.53684210526316" y="52.09473684210526" type="line"/>
      <point x="183.0842105263158" y="225.69473684210527" type="line"/>
      <point x="149.69473684210524" y="317.41052631578947"/>
      <point x="118.96842105263158" y="404.46315789473687"/>
      <point x="85.66315789473684" y="497.0105263157895" type="curve"/>
      <point x="29.8" y="494.6736842105263" type="line"/>
      <point x="58.800000000000004" y="422.5052631578947"/>
      <point x="87.79999999999998" y="347.5052631578947"/>
      <point x="116.8" y="275.33684210526314" type="curve"/>
      <point x="150.46315789473684" y="187.25263157894736" type="line"/>
      <point x="173.0421052631579" y="126.91578947368421"/>
      <point x="196.45263157894738" y="62.16842105263157"/>
    </contour>
  </outline>
</glyph>
<glyph name="w" format="2">
  <advance width="791.7368421052631"/>
  <unicode hex="0077"/>
  <anchor x="397.11578947368423" y="0.0" name="bottom"/>
  <anchor x="397.11578947368423" y="494.6736842105263" name="top"/>
  <outline>
    <contour>
      <point x="198.03157894736842" y="0.0" type="curve"/>
      <point x="259.46315789473687" y="0.0" type="line"/>
      <point x="286.27368421052637" y="86.87368421052632"/>
      <point x="315.0" y="181.41052631578947"/>
      <point x="339.9789473684211" y="262.70526315789476" type="curve"/>
      <point x="391.3578947368421" y="426.0421052631579" type="line"/>
      <point x="398.0315789473684" y="426.0421052631579" type="line"/>
      <point x="449.4947368421053" y="264.62105263157895" type="line"/>
      <point x="475.55789473684206" y="181.49473684210525"/>
      <point x="506.19999999999993" y="85.9578947368421"/>
      <point x="533.1789473684211" y="0.0" type="curve"/>
      <point x="596.4526315789474" y="0.0" type="line"/>
      <point x="616.0315789473684" y="61.0"/>
      <point x="635.6947368421053" y="124.25263157894736"/>
      <point x="656.2736842105263" y="189.25263157894736" type="curve"/>
      <point x="685.1052631578947" y="276.33684210526314" type="line"/>
      <point x="710.1894736842106" y="348.5052631578947"/>
      <point x="736.1894736842105" y="421.5052631578947"/>
      <point x="762.2736842105263" y="494.6736842105263" type="curve"/>
      <point x="705.4105263157895" y="494.6736842105263" type="line"/>
      <point x="680.4315789473684" y="414.4526315789474"/>
      <point x="649.9578947368421" y="314.9052631578947"/>
      <point x="622.1473684210526" y="226.02105263157895" type="curve"/>
      <point x="566.9368421052632" y="52.084210526315786" type="line"/>
      <point x="561.0947368421052" y="52.084210526315786" type="line"/>
      <point x="505.88421052631577" y="224.93684210526317" type="line"/>
      <point x="477.9894736842105" y="315.7368421052632"/>
      <point x="449.17894736842106" y="407.70526315789476"/>
      <point x="422.2" y="494.6736842105263" type="curve"/>
      <point x="369.12631578947367" y="494.6736842105263" type="line"/>
      <point x="341.23157894736846" y="402.9578947368421"/>
      <point x="313.33684210526314" y="312.1578947368421"/>
      <point x="286.3578947368421" y="223.10526315789474" type="curve"/>
      <point x="232.97894736842105" y="52.084210526315786" type="line"/>
      <point x="227.13684210526316" y="52.084210526315786" type="line"/>
      <point x="172.7578947368421" y="218.52631578947367" type="line"/>
      <point x="144.86315789473684" y="307.4947368421053"/>
      <point x="113.30526315789473" y="408.0421052631579"/>
      <point x="85.41052631578948" y="497.0105263157895" type="curve"/>
      <point x="29.46315789473684" y="494.6736842105263" type="line"/>
      <point x="55.54736842105264" y="420.58947368421053"/>
      <point x="80.63157894736842" y="349.5052631578947"/>
      <point x="106.71578947368421" y="276.33684210526314" type="curve"/>
      <point x="136.37894736842105" y="188.25263157894736" type="line"/>
      <point x="156.95789473684212" y="125.0842105263158"/>
      <point x="177.45263157894738" y="62.084210526315786"/>
    </contour>
  </outline>
</glyph>
<glyph name="x" format="2">
  <advance width="518.6736842105263"/>
  <unicode hex="0078"/>
  <outline>
    <contour>
      <point x="32.05263157894737" y="0.0" type="curve"/>
      <point x="94.66315789473684" y="0.0" type="line"/>
      <point x="127.96842105263158" y="47.65263157894737"/>
      <point x="152.03157894736842" y="82.47368421052632"/>
      <point x="185.33684210526314" y="130.0421052631579" type="curve"/>
      <point x="250.62105263157895" y="220.26315789473685" type="line"/>
      <point x="256.2947368421053" y="220.26315789473685" type="line"/>
      <point x="328.2421052631579" y="126.0421052631579" type="line"/>
      <point x="362.54736842105257" y="80.5578947368421"/>
      <point x="389.44210526315794" y="43.73684210526316"/>
      <point x="421.91578947368424" y="0.0" type="curve"/>
      <point x="487.0421052631579" y="0.0" type="line"/>
      <point x="435.63157894736844" y="63.42105263157895"/>
      <point x="403.9684210526316" y="102.7578947368421"/>
      <point x="366.38947368421054" y="149.09473684210528" type="curve"/>
      <point x="278.90526315789475" y="262.0210526315789" type="line"/>
      <point x="280.8315789473684" y="245.57894736842104" type="line"/>
      <point x="358.5684210526316" y="351.0" type="line"/>
      <point x="396.0631578947369" y="400.2526315789474"/>
      <point x="419.81052631578945" y="430.42105263157896"/>
      <point x="469.13684210526316" y="494.6736842105263" type="curve"/>
      <point x="405.5263157894737" y="494.6736842105263" type="line"/>
      <point x="372.1368421052631" y="446.93684210526317"/>
      <point x="347.98947368421045" y="411.94736842105266"/>
      <point x="317.2631578947368" y="367.9578947368421" type="curve"/>
      <point x="255.47368421052633" y="282.4842105263158" type="line"/>
      <point x="250.54736842105262" y="282.4842105263158" type="line"/>
      <point x="188.58947368421053" y="367.2105263157895" type="line"/>
      <point x="157.86315789473684" y="411.03157894736836"/>
      <point x="132.6315789473684" y="446.52631578947364"/>
      <point x="97.2421052631579" y="497.0105263157895" type="curve"/>
      <point x="35.294736842105266" y="494.6736842105263" type="line"/>
      <point x="83.45263157894736" y="432.58947368421053"/>
      <point x="111.1157894736842" y="396.3368421052632"/>
      <point x="149.44210526315788" y="347.2526315789474" type="curve"/>
      <point x="226.7578947368421" y="241.9157894736842" type="line"/>
      <point x="225.8421052631579" y="260.18947368421055" type="line"/>
      <point x="145.94736842105263" y="150.26315789473685" type="line"/>
      <point x="108.62105263157895" y="100.84210526315789"/>
      <point x="81.21052631578947" y="64.67368421052632"/>
    </contour>
  </outline>
</glyph>
<glyph name="y" format="2">
  <advance width="506.9894736842105"/>
  <unicode hex="0079"/>
  <anchor x="362.12631578947367" y="0.0" name="bottom"/>
  <anchor x="253.70526315789473" y="494.6736842105263" name="top"/>
  <outline>
    <contour>
      <point x="143.43157894736842" y="-194.33684210526314" type="curve"/>
      <point x="201.21052631578948" y="-192.0" type="line"/>
      <point x="229.78947368421052" y="-120.0"/>
      <point x="261.4526315789474" y="-38.74736842105263"/>
      <point x="310.86315789473684" y="88.33684210526316" type="curve"/>
      <point x="366.61052631578946" y="227.50526315789475" type="line"/>
      <point x="418.44210526315794" y="352.58947368421053"/>
      <point x="443.3578947368421" y="413.6736842105263"/>
      <point x="477.18947368421055" y="494.6736842105263" type="curve"/>
      <point x="420.08421052631576" y="494.6736842105263" type="line"/>
      <point x="386.69473684210527" y="403.87368421052633"/>
      <point x="354.22105263157897" y="316.9894736842105"/>
      <point x="319.8315789473684" y="225.2736842105263" type="curve"/>
      <point x="251.54736842105262" y="51.421052631578945" type="line"/>
      <point x="244.70526315789473" y="51.421052631578945" type="line"/>
      <point x="182.0842105263158" y="224.44210526315788" type="line"/>
      <point x="149.61052631578946" y="317.2421052631579"/>
      <point x="118.05263157894737" y="404.2105263157895"/>
      <point x="85.57894736842105" y="497.0105263157895" type="curve"/>
      <point x="29.8" y="494.6736842105263" type="line"/>
      <point x="57.71578947368421" y="423.67368421052635"/>
      <point x="87.71578947368423" y="347.67368421052635"/>
      <point x="115.71578947368421" y="276.5052631578947" type="curve"/>
      <point x="149.37894736842105" y="186.50526315789475" type="line"/>
      <point x="173.87368421052633" y="120.50526315789473"/>
      <point x="200.36842105263156" y="49.50526315789473"/>
      <point x="224.03157894736842" y="-18.66315789473684" type="curve"/>
      <point x="226.70526315789473" y="-1.8947368421052633" type="line"/>
      <point x="199.03157894736842" y="-64.65263157894736"/>
      <point x="171.10526315789474" y="-130.66315789473686"/>
    </contour>
  </outline>
</glyph>
<glyph name="braceleft" format="2">
  <advance width="381.93684210526317"/>
  <unicode hex="007B"/>
  <outline>
    <contour>
      <point x="290.05263157894734" y="-113.51578947368421" type="curve" smooth="yes"/>
      <point x="370.2526315789474" y="-113.51578947368421" type="line"/>
      <point x="370.2526315789474" y="-70.13684210526316" type="line"/>
      <point x="345.41052631578947" y="-70.30526315789474"/>
      <point x="310.1684210526316" y="-71.38947368421053"/>
      <point x="293.1684210526316" y="-71.47368421052632" type="curve"/>
      <point x="222.62105263157895" y="-70.22105263157896"/>
      <point x="187.6421052631579" y="-39.56842105263158"/>
      <point x="187.4736842105263" y="20.326315789473682" type="curve" smooth="yes"/>
      <point x="185.8842105263158" y="241.3157894736842" type="line" smooth="yes"/>
      <point x="185.79999999999998" y="250.0736842105263"/>
      <point x="139.8736842105263" y="300.90526315789475"/>
      <point x="116.02105263157895" y="320.8315789473684" type="curve"/>
      <point x="116.02105263157895" y="327.58947368421053" type="line"/>
      <point x="139.8736842105263" y="346.6842105263158"/>
      <point x="185.79999999999998" y="398.09473684210525"/>
      <point x="185.8842105263158" y="406.18947368421055" type="curve" smooth="yes"/>
      <point x="187.4736842105263" y="628.0947368421052" type="line" smooth="yes"/>
      <point x="187.6421052631579" y="687.9894736842106"/>
      <point x="222.62105263157895" y="718.6421052631579"/>
      <point x="293.1684210526316" y="719.8947368421053" type="curve"/>
      <point x="311.0842105263158" y="719.8105263157895"/>
      <point x="347.1578947368421" y="718.7263157894737"/>
      <point x="369.8315789473684" y="718.5578947368422" type="curve"/>
      <point x="369.8315789473684" y="761.9368421052632" type="line"/>
      <point x="290.05263157894734" y="761.9368421052632" type="line" smooth="yes"/>
      <point x="197.26315789473685" y="761.9368421052632"/>
      <point x="139.56842105263158" y="715.0842105263158"/>
      <point x="139.56842105263158" y="631.7157894736843" type="curve"/>
      <point x="139.56842105263158" y="622.1368421052631"/>
      <point x="140.98947368421054" y="458.44210526315794"/>
      <point x="140.98947368421054" y="448.86315789473684" type="curve"/>
      <point x="140.98947368421054" y="389.70526315789476"/>
      <point x="86.85263157894737" y="343.4736842105263"/>
      <point x="49.51578947368421" y="343.4736842105263" type="curve" smooth="yes"/>
      <point x="10.842105263157894" y="343.4736842105263" type="line"/>
      <point x="10.842105263157894" y="304.0315789473684" type="line"/>
      <point x="49.51578947368421" y="304.0315789473684" type="line" smooth="yes"/>
      <point x="86.85263157894737" y="304.0315789473684"/>
      <point x="140.98947368421054" y="257.8"/>
      <point x="140.98947368421054" y="198.6421052631579" type="curve"/>
      <point x="140.98947368421054" y="189.06315789473686"/>
      <point x="139.56842105263158" y="26.284210526315796"/>
      <point x="139.56842105263158" y="16.705263157894738" type="curve"/>
      <point x="139.56842105263158" y="-66.66315789473684"/>
      <point x="197.26315789473685" y="-113.51578947368421"/>
    </contour>
  </outline>
</glyph>
<glyph name="asciitilde" format="2">
  <advance width="562.5263157894736"/>
  <unicode hex="007E"/>
  <outline>
    <contour>
      <point x="392.7684210526316" y="229.29473684210527" type="curve" smooth="yes"/>
      <point x="450.37894736842105" y="229.29473684210527"/>
      <point x="495.05263157894734" y="272.1684210526316"/>
      <point x="495.05263157894734" y="349.5578947368421" type="curve"/>
      <point x="457.9684210526316" y="349.5578947368421" type="line"/>
      <point x="454.2947368421053" y="296.7578947368421"/>
      <point x="428.81052631578945" y="275.6"/>
      <point x="388.8315789473684" y="273.5157894736842" type="curve"/>
      <point x="320.18947368421055" y="275.7684210526316"/>
      <point x="251.85263157894738" y="363.3157894736842"/>
      <point x="171.34736842105264" y="363.3157894736842" type="curve" smooth="yes"/>
      <point x="113.23157894736842" y="363.3157894736842"/>
      <point x="67.47368421052632" y="320.3578947368421"/>
      <point x="67.47368421052632" y="243.05263157894737" type="curve"/>
      <point x="104.5578947368421" y="243.05263157894737" type="line"/>
      <point x="108.23157894736842" y="295.85263157894735"/>
      <point x="134.8842105263158" y="317.01052631578943"/>
      <point x="175.03157894736842" y="319.09473684210525" type="curve"/>
      <point x="243.25263157894736" y="316.84210526315786"/>
      <point x="312.0105263157895" y="229.29473684210527"/>
    </contour>
  </outline>
</glyph>
<glyph name="cent" format="2">
  <advance width="499.6421052631579"/>
  <unicode hex="00A2"/>
  <anchor x="288.65263157894736" y="0.0" name="bottom"/>
  <anchor x="280.41052631578947" y="494.6736842105263" name="top"/>
  <outline>
    <contour>
      <point x="256.2" y="-137.0" type="curve"/>
      <point x="301.0736842105263" y="-137.0" type="line"/>
      <point x="299.7368421052632" y="0.9999999999999992"/>
      <point x="298.3157894736842" y="154.0"/>
      <point x="298.2315789473684" y="192.0" type="curve"/>
      <point x="298.2315789473684" y="294.42105263157896" type="line"/>
      <point x="298.3157894736842" y="332.42105263157896"/>
      <point x="299.7368421052632" y="485.42105263157896"/>
      <point x="301.0736842105263" y="623.421052631579" type="curve"/>
      <point x="256.2" y="623.421052631579" type="line"/>
      <point x="257.53684210526313" y="485.42105263157896"/>
      <point x="258.9578947368421" y="332.42105263157896"/>
      <point x="259.0421052631579" y="294.42105263157896" type="curve"/>
      <point x="259.0421052631579" y="192.0" type="line"/>
      <point x="258.9578947368421" y="154.0"/>
      <point x="257.53684210526313" y="1.0"/>
    </contour>
    <contour>
      <point x="303.0736842105263" y="-9.25263157894737" type="curve" smooth="yes"/>
      <point x="335.4842105263158" y="-9.25263157894737"/>
      <point x="406.33684210526314" y="9.905263157894737"/>
      <point x="449.1684210526316" y="25.315789473684212" type="curve"/>
      <point x="442.0842105263158" y="73.69473684210526" type="line"/>
      <point x="393.7684210526316" y="51.78947368421053"/>
      <point x="329.2" y="35.04210526315789"/>
      <point x="308.1263157894737" y="35.04210526315789" type="curve" smooth="yes"/>
      <point x="172.61052631578946" y="37.873684210526314"/>
      <point x="105.71578947368421" y="128.4"/>
      <point x="105.71578947368421" y="248.67368421052632" type="curve" smooth="yes"/>
      <point x="105.71578947368421" y="378.09473684210525"/>
      <point x="181.33684210526317" y="457.29473684210524"/>
      <point x="297.01052631578943" y="460.29473684210524" type="curve"/>
      <point x="314.4210526315789" y="460.29473684210524"/>
      <point x="379.33684210526314" y="442.37894736842105"/>
      <point x="440.8315789473684" y="419.63157894736844" type="curve"/>
      <point x="446.6736842105263" y="468.34736842105264" type="line"/>
      <point x="406.7368421052632" y="480.85263157894735"/>
      <point x="324.4842105263158" y="505.09473684210525"/>
      <point x="293.821052631579" y="505.09473684210525" type="curve" smooth="yes"/>
      <point x="146.1263157894737" y="505.09473684210525"/>
      <point x="58.294736842105266" y="393.9263157894737"/>
      <point x="58.294736842105266" y="248.0842105263158" type="curve" smooth="yes"/>
      <point x="58.294736842105266" y="103.2421052631579"/>
      <point x="146.5578947368421" y="-9.25263157894737"/>
    </contour>
  </outline>
</glyph>
<glyph name="sterling" format="2">
  <advance width="582.7052631578947"/>
  <unicode hex="00A3"/>
  <outline>
    <contour>
      <point x="71.63157894736842" y="0.0" type="line"/>
      <point x="548.1263157894737" y="0.0" type="line"/>
      <point x="548.1263157894737" y="48.83157894736842" type="line"/>
      <point x="468.8" y="47.410526315789475"/>
      <point x="340.2421052631579" y="45.82105263157895"/>
      <point x="251.49473684210525" y="44.31578947368421" type="curve"/>
      <point x="105.26315789473685" y="44.31578947368421" type="line"/>
      <point x="113.63157894736842" y="24.389473684210525" type="line"/>
      <point x="183.79999999999998" y="151.77894736842106"/>
      <point x="198.8842105263158" y="189.10526315789474"/>
      <point x="198.8842105263158" y="228.34736842105264" type="curve" smooth="yes"/>
      <point x="198.8842105263158" y="454.7157894736842" type="line" smooth="yes"/>
      <point x="198.8842105263158" y="590.0631578947368"/>
      <point x="254.69473684210527" y="650.0315789473684"/>
      <point x="368.05263157894734" y="651.2842105263157" type="curve"/>
      <point x="386.3894736842105" y="651.2842105263157"/>
      <point x="449.70526315789476" y="633.8736842105263"/>
      <point x="511.7052631578947" y="610.5368421052632" type="curve"/>
      <point x="518.0526315789474" y="659.2631578947369" type="line"/>
      <point x="479.7157894736842" y="672.4315789473685"/>
      <point x="399.40000000000003" y="696.8421052631579"/>
      <point x="365.4526315789474" y="696.8421052631579" type="curve" smooth="yes"/>
      <point x="233.29473684210527" y="696.8421052631579"/>
      <point x="149.45263157894738" y="620.4842105263158"/>
      <point x="149.45263157894738" y="458.9684210526316" type="curve" smooth="yes"/>
      <point x="149.45263157894738" y="379.90526315789475"/>
      <point x="150.70526315789473" y="301.8421052631579"/>
      <point x="150.70526315789473" y="222.86315789473684" type="curve"/>
      <point x="150.70526315789473" y="193.62105263157895"/>
      <point x="136.8736842105263" y="153.71578947368423"/>
      <point x="71.63157894736842" y="34.83157894736842" type="curve"/>
    </contour>
    <contour>
      <point x="64.06315789473685" y="359.1684210526316" type="line"/>
      <point x="123.49473684210527" y="360.3368421052631"/>
      <point x="191.25263157894736" y="361.5052631578947"/>
      <point x="228.10526315789474" y="361.6736842105263" type="curve"/>
      <point x="259.2842105263158" y="361.6736842105263" type="line"/>
      <point x="296.13684210526316" y="361.5052631578947"/>
      <point x="363.89473684210526" y="360.3368421052631"/>
      <point x="423.3263157894737" y="359.1684210526316" type="curve"/>
      <point x="423.3263157894737" y="402.4526315789474" type="line"/>
      <point x="363.89473684210526" y="401.28421052631586"/>
      <point x="296.13684210526316" y="400.11578947368423"/>
      <point x="259.2842105263158" y="399.94736842105266" type="curve"/>
      <point x="228.10526315789474" y="399.94736842105266" type="line"/>
      <point x="191.25263157894736" y="400.11578947368423"/>
      <point x="123.49473684210527" y="401.28421052631586"/>
      <point x="64.06315789473685" y="402.4526315789474" type="curve"/>
    </contour>
  </outline>
</glyph>
<glyph name="currency" format="2">
  <advance width="607.0736842105263"/>
  <unicode hex="00A4"/>
  <outline>
    <contour>
      <point x="301.62105263157895" y="125.53684210526316" type="curve" smooth="yes"/>
      <point x="413.57894736842104" y="125.53684210526316"/>
      <point x="496.7684210526316" y="200.21052631578948"/>
      <point x="496.7684210526316" y="320.1684210526316" type="curve" smooth="yes"/>
      <point x="496.7684210526316" y="435.5263157894737"/>
      <point x="414.4947368421053" y="515.3789473684211"/>
      <point x="303.62105263157895" y="515.3789473684211" type="curve" smooth="yes"/>
      <point x="190.74736842105264" y="515.3789473684211"/>
      <point x="108.47368421052632" y="435.0315789473684"/>
      <point x="108.47368421052632" y="320.1684210526316" type="curve" smooth="yes"/>
      <point x="108.47368421052632" y="200.29473684210527"/>
      <point x="190.74736842105264" y="125.53684210526316"/>
    </contour>
    <contour>
      <point x="85.73684210526316" y="68.50526315789475" type="line"/>
      <point x="126.66315789473683" y="110.6842105263158"/>
      <point x="174.0" y="159.3578947368421"/>
      <point x="199.26315789473685" y="185.78947368421052" type="curve"/>
      <point x="168.41052631578947" y="216.6421052631579" type="line"/>
      <point x="141.97894736842105" y="191.37894736842102"/>
      <point x="93.30526315789474" y="144.04210526315788"/>
      <point x="51.126315789473686" y="103.11578947368422" type="curve"/>
    </contour>
    <contour>
      <point x="301.70526315789476" y="169.66315789473686" type="curve"/>
      <point x="219.66315789473683" y="172.0"/>
      <point x="154.1157894736842" y="217.81052631578947"/>
      <point x="154.1157894736842" y="320.0842105263158" type="curve" smooth="yes"/>
      <point x="154.1157894736842" y="416.3578947368421"/>
      <point x="220.57894736842104" y="469.0"/>
      <point x="303.53684210526313" y="471.33684210526314" type="curve"/>
      <point x="385.6631578947368" y="469.0"/>
      <point x="451.12631578947367" y="416.18947368421055"/>
      <point x="451.12631578947367" y="320.0842105263158" type="curve" smooth="yes"/>
      <point x="451.12631578947367" y="217.81052631578947"/>
      <point x="385.57894736842104" y="172.0"/>
    </contour>
    <contour>
      <point x="168.57894736842104" y="425.3578947368421" type="curve"/>
      <point x="199.09473684210525" y="455.87368421052633" type="line"/>
      <point x="173.8315789473684" y="482.3052631578948"/>
      <point x="126.49473684210525" y="530.9789473684211"/>
      <point x="85.56842105263158" y="573.1578947368421" type="curve"/>
      <point x="51.294736842105266" y="538.8842105263158" type="line"/>
      <point x="93.47368421052633" y="497.9578947368421"/>
      <point x="142.14736842105262" y="450.62105263157895"/>
    </contour>
    <contour>
      <point x="521.5052631578948" y="68.67368421052632" type="curve"/>
      <point x="555.7789473684211" y="102.94736842105263" type="line"/>
      <point x="513.6" y="143.8736842105263"/>
      <point x="464.92631578947373" y="191.21052631578945"/>
      <point x="438.4947368421053" y="216.47368421052633" type="curve"/>
      <point x="407.9789473684211" y="185.9578947368421" type="line"/>
      <point x="433.2421052631579" y="159.5263157894737"/>
      <point x="480.57894736842104" y="110.85263157894738"/>
    </contour>
    <contour>
      <point x="438.66315789473686" y="425.1894736842105" type="line"/>
      <point x="465.09473684210525" y="450.4526315789474"/>
      <point x="513.7684210526317" y="497.7894736842105"/>
      <point x="555.9473684210526" y="538.7157894736843" type="curve"/>
      <point x="521.3368421052631" y="573.3263157894737" type="line"/>
      <point x="480.41052631578947" y="531.1473684210528"/>
      <point x="433.0736842105263" y="482.47368421052636"/>
      <point x="407.81052631578945" y="456.0421052631579" type="curve"/>
    </contour>
  </outline>
</glyph>
<glyph name="yen" format="2">
  <advance width="609.7368421052631"/>
  <unicode hex="00A5"/>
  <outline>
    <contour>
      <point x="282.2842105263158" y="282.2736842105263" type="line"/>
      <point x="327.7894736842105" y="282.2736842105263" type="line"/>
      <point x="479.6842105263158" y="526.1473684210526" type="line"/>
      <point x="512.7684210526317" y="577.0736842105264"/>
      <point x="549.6" y="633.578947368421"/>
      <point x="582.6842105263158" y="684.5052631578948" type="curve"/>
      <point x="519.7157894736841" y="684.5052631578948" type="line"/>
      <point x="461.17894736842106" y="587.3684210526314"/>
      <point x="431.5368421052632" y="539.3894736842105"/>
      <point x="385.9894736842105" y="463.4947368421053" type="curve"/>
      <point x="308.12631578947367" y="337.2842105263158" type="line"/>
      <point x="301.11578947368423" y="337.2842105263158" type="line"/>
      <point x="224.33684210526314" y="462.4947368421053" type="line"/>
      <point x="178.0421052631579" y="539.7157894736843"/>
      <point x="150.2315789473684" y="586.2842105263157"/>
      <point x="90.86315789473684" y="684.5052631578948" type="curve"/>
      <point x="26.88421052631579" y="684.5052631578948" type="line"/>
      <point x="78.13684210526316" y="605.2421052631578"/>
      <point x="100.13684210526316" y="571.8210526315789"/>
      <point x="130.22105263157894" y="526.0631578947368" type="curve"/>
    </contour>
    <contour>
      <point x="277.6842105263158" y="0.0" type="curve"/>
      <point x="333.3894736842105" y="0.0" type="line"/>
      <point x="331.9684210526316" y="77.49473684210525"/>
      <point x="330.6315789473684" y="143.98947368421054"/>
      <point x="329.12631578947367" y="227.32631578947368" type="curve"/>
      <point x="329.12631578947367" y="321.2526315789474" type="line"/>
      <point x="281.0315789473684" y="321.2526315789474" type="line"/>
      <point x="281.0315789473684" y="227.32631578947368" type="line"/>
      <point x="279.5263157894737" y="143.98947368421054"/>
      <point x="279.10526315789474" y="77.49473684210525"/>
    </contour>
    <contour>
      <point x="84.97894736842105" y="150.3578947368421" type="line"/>
      <point x="144.41052631578947" y="151.5263157894737"/>
      <point x="212.16842105263157" y="152.69473684210527"/>
      <point x="249.02105263157895" y="152.86315789473684" type="curve"/>
      <point x="361.88421052631577" y="152.86315789473684" type="line"/>
      <point x="398.7368421052632" y="152.69473684210527"/>
      <point x="466.4947368421053" y="151.5263157894737"/>
      <point x="525.9263157894737" y="150.3578947368421" type="curve"/>
      <point x="525.9263157894737" y="191.53684210526316" type="line"/>
      <point x="466.4947368421053" y="190.53684210526316"/>
      <point x="398.7368421052632" y="189.53684210526316"/>
      <point x="361.88421052631577" y="189.45263157894738" type="curve"/>
      <point x="249.02105263157895" y="189.45263157894738" type="line"/>
      <point x="212.16842105263157" y="189.53684210526316"/>
      <point x="144.41052631578947" y="190.53684210526316"/>
      <point x="84.97894736842105" y="191.53684210526316" type="curve"/>
    </contour>
    <contour>
      <point x="84.97894736842105" y="284.9052631578947" type="line"/>
      <point x="144.41052631578947" y="285.9052631578947"/>
      <point x="212.16842105263157" y="286.9052631578947"/>
      <point x="249.02105263157895" y="286.9894736842105" type="curve"/>
      <point x="361.88421052631577" y="286.9894736842105" type="line"/>
      <point x="398.7368421052632" y="286.9052631578947"/>
      <point x="466.4947368421053" y="285.9052631578947"/>
      <point x="525.9263157894737" y="284.9052631578947" type="curve"/>
      <point x="525.9263157894737" y="326.08421052631576" type="line"/>
      <point x="466.4947368421053" y="324.91578947368424"/>
      <point x="398.7368421052632" y="323.7473684210526"/>
      <point x="361.88421052631577" y="323.57894736842104" type="curve"/>
      <point x="249.02105263157895" y="323.57894736842104" type="line"/>
      <point x="212.16842105263157" y="323.7473684210526"/>
      <point x="144.41052631578947" y="324.91578947368424"/>
      <point x="84.97894736842105" y="326.08421052631576" type="curve"/>
    </contour>
  </outline>
</glyph>
<glyph name="ordfeminine" format="2">
  <advance width="390.2068965517241"/>
  <unicode hex="00AA"/>
  <outline>
    <contour>
      <point x="156.24137931034483" y="334.264367816092" type="curve" smooth="yes"/>
      <point x="193.32183908045977" y="334.264367816092"/>
      <point x="246.77011494252875" y="367.8965517241379"/>
      <point x="290.85057471264366" y="402.5287356321839" type="curve"/>
      <point x="296.40229885057477" y="402.5287356321839" type="line"/>
      <point x="311.21839080459773" y="341.44827586206895" type="line"/>
      <point x="352.14942528735634" y="341.44827586206895" type="line"/>
      <point x="342.9655172413793" y="378.4712643678161"/>
      <point x="335.14942528735634" y="410.8390804597701"/>
      <point x="328.14942528735634" y="439.4942528735632" type="curve"/>
      <point x="328.14942528735634" y="501.632183908046" type="line" smooth="yes"/>
      <point x="328.14942528735634" y="535.7126436781609"/>
      <point x="330.14942528735634" y="573.080459770115"/>
      <point x="330.14942528735634" y="595.4482758620691" type="curve" smooth="yes"/>
      <point x="330.14942528735634" y="687.0"/>
      <point x="279.2298850574713" y="725.3678160919541"/>
      <point x="201.20689655172413" y="725.3678160919541" type="curve" smooth="yes"/>
      <point x="174.7586206896552" y="725.3678160919541"/>
      <point x="95.71264367816092" y="707.367816091954"/>
      <point x="60.3448275862069" y="697.3678160919541" type="curve"/>
      <point x="62.712643678160916" y="654.4367816091954" type="line"/>
      <point x="121.89655172413792" y="673.1724137931035"/>
      <point x="181.63218390804596" y="686.9080459770115"/>
      <point x="195.89655172413794" y="686.9080459770115" type="curve" smooth="yes"/>
      <point x="248.24137931034483" y="686.9080459770115"/>
      <point x="294.2183908045977" y="672.2758620689655"/>
      <point x="290.4022988505747" y="583.735632183908" type="curve"/>
      <point x="162.97701149425288" y="557.471264367816" type="line" smooth="yes"/>
      <point x="114.42528735632185" y="547.471264367816"/>
      <point x="43.3448275862069" y="520.367816091954"/>
      <point x="43.3448275862069" y="437.44827586206895" type="curve" smooth="yes"/>
      <point x="43.3448275862069" y="376.81609195402297"/>
      <point x="84.60919540229885" y="334.264367816092"/>
    </contour>
    <contour>
      <point x="166.1264367816092" y="371.98850574712645" type="curve" smooth="yes"/>
      <point x="117.62068965517241" y="371.98850574712645"/>
      <point x="83.45977011494253" y="391.88505747126436"/>
      <point x="83.45977011494253" y="443.39080459770116" type="curve" smooth="yes"/>
      <point x="83.45977011494253" y="498.5287356321839"/>
      <point x="130.51724137931035" y="517.6091954022988"/>
      <point x="179.20689655172413" y="527.0574712643678" type="curve" smooth="yes"/>
      <point x="256.0574712643678" y="542.3218390804598"/>
      <point x="275.7701149425287" y="549.9540229885057"/>
      <point x="290.0344827586207" y="556.1379310344828" type="curve"/>
      <point x="289.2183908045977" y="439.7586206896552" type="line"/>
      <point x="248.60919540229887" y="401.14942528735634"/>
      <point x="194.91954022988506" y="371.98850574712645"/>
    </contour>
  </outline>
</glyph>
<glyph name="logicalnot" format="2">
  <advance width="562.5263157894736"/>
  <unicode hex="00AC"/>
  <outline>
    <contour>
      <point x="448.5684210526316" y="63.23157894736842" type="curve"/>
      <point x="497.55789473684206" y="63.23157894736842" type="line"/>
      <point x="496.38947368421054" y="122.66315789473684"/>
      <point x="495.2210526315789" y="190.42105263157893"/>
      <point x="495.05263157894734" y="227.2736842105263" type="curve"/>
      <point x="495.05263157894734" y="320.4210526315789" type="line"/>
      <point x="435.62105263157895" y="319.2526315789474"/>
      <point x="367.86315789473684" y="318.08421052631576"/>
      <point x="331.0105263157895" y="317.9157894736842" type="curve"/>
      <point x="231.5157894736842" y="317.9157894736842" type="line"/>
      <point x="194.66315789473683" y="318.08421052631576"/>
      <point x="126.90526315789474" y="319.2526315789474"/>
      <point x="67.47368421052632" y="320.4210526315789" type="curve"/>
      <point x="67.47368421052632" y="271.93684210526317" type="line"/>
      <point x="126.90526315789474" y="273.1052631578947"/>
      <point x="194.66315789473683" y="274.2736842105263"/>
      <point x="231.5157894736842" y="274.4421052631579" type="curve"/>
      <point x="331.0105263157895" y="274.4421052631579" type="line"/>
      <point x="365.3578947368421" y="274.2736842105263"/>
      <point x="428.5263157894737" y="273.1052631578947"/>
      <point x="483.36842105263156" y="271.93684210526317" type="curve"/>
      <point x="451.0736842105263" y="304.2105263157895" type="line"/>
      <point x="451.0736842105263" y="227.2736842105263" type="line"/>
      <point x="450.90526315789475" y="190.42105263157893"/>
      <point x="449.7368421052631" y="122.66315789473684"/>
    </contour>
  </outline>
</glyph>
<glyph name="degree" format="2">
  <advance width="461.4947368421053"/>
  <unicode hex="00B0"/>
  <outline>
    <contour>
      <point x="230.70526315789473" y="324.0421052631579" type="curve" smooth="yes"/>
      <point x="342.32631578947365" y="324.0421052631579"/>
      <point x="422.33684210526314" y="397.46315789473687"/>
      <point x="422.33684210526314" y="508.82105263157894" type="curve" smooth="yes"/>
      <point x="422.33684210526314" y="615.9157894736842"/>
      <point x="342.32631578947365" y="696.8421052631579"/>
      <point x="231.70526315789473" y="696.8421052631579" type="curve" smooth="yes"/>
      <point x="120.08421052631579" y="696.8421052631579"/>
      <point x="39.1578947368421" y="615.9157894736842"/>
      <point x="39.1578947368421" y="508.82105263157894" type="curve" smooth="yes"/>
      <point x="39.1578947368421" y="397.46315789473687"/>
      <point x="120.08421052631579" y="324.0421052631579"/>
    </contour>
    <contour>
      <point x="230.70526315789473" y="364.9789473684211" type="curve"/>
      <point x="140.8421052631579" y="367.3157894736842"/>
      <point x="82.78947368421052" y="419.5368421052632"/>
      <point x="82.78947368421052" y="508.65263157894736" type="curve" smooth="yes"/>
      <point x="82.78947368421052" y="594.6842105263157"/>
      <point x="140.7578947368421" y="653.5684210526316"/>
      <point x="231.70526315789473" y="655.9052631578948" type="curve"/>
      <point x="321.7368421052632" y="653.4842105263158"/>
      <point x="378.70526315789476" y="594.4315789473684"/>
      <point x="378.70526315789476" y="508.65263157894736" type="curve" smooth="yes"/>
      <point x="378.70526315789476" y="419.5368421052632"/>
      <point x="321.5684210526316" y="367.3157894736842"/>
    </contour>
  </outline>
</glyph>
<glyph name="plusminus" format="2">
  <advance width="562.5263157894736"/>
  <unicode hex="00B1"/>
  <outline>
    <contour>
      <point x="67.47368421052632" y="-2.5052631578947366" type="line"/>
      <point x="126.90526315789474" y="-1.336842105263158"/>
      <point x="194.66315789473683" y="-0.16842105263157894"/>
      <point x="231.5157894736842" y="0.0" type="curve"/>
      <point x="331.0105263157895" y="0.0" type="line"/>
      <point x="367.86315789473684" y="-0.16842105263157894"/>
      <point x="435.62105263157895" y="-1.336842105263158"/>
      <point x="495.05263157894734" y="-2.5052631578947366" type="curve"/>
      <point x="495.05263157894734" y="45.97894736842105" type="line"/>
      <point x="435.62105263157895" y="44.81052631578947"/>
      <point x="367.86315789473684" y="43.642105263157895"/>
      <point x="331.0105263157895" y="43.473684210526315" type="curve"/>
      <point x="231.5157894736842" y="43.473684210526315" type="line"/>
      <point x="194.66315789473683" y="43.642105263157895"/>
      <point x="126.90526315789474" y="44.81052631578947"/>
      <point x="67.47368421052632" y="45.97894736842105" type="curve"/>
    </contour>
    <contour>
      <point x="67.47368421052632" y="352.2631578947369" type="line"/>
      <point x="126.90526315789474" y="353.4315789473684"/>
      <point x="194.66315789473683" y="354.6"/>
      <point x="231.5157894736842" y="354.7684210526316" type="curve"/>
      <point x="331.0105263157895" y="354.7684210526316" type="line"/>
      <point x="367.86315789473684" y="354.6"/>
      <point x="435.62105263157895" y="353.4315789473684"/>
      <point x="495.05263157894734" y="352.2631578947369" type="curve"/>
      <point x="495.05263157894734" y="400.7473684210526" type="line"/>
      <point x="435.62105263157895" y="399.5789473684211"/>
      <point x="367.86315789473684" y="398.41052631578947"/>
      <point x="331.0105263157895" y="398.2421052631579" type="curve"/>
      <point x="231.5157894736842" y="398.2421052631579" type="line"/>
      <point x="194.66315789473683" y="398.41052631578947"/>
      <point x="126.90526315789474" y="399.5789473684211"/>
      <point x="67.47368421052632" y="400.7473684210526" type="curve"/>
    </contour>
    <contour>
      <point x="256.7684210526316" y="145.2421052631579" type="curve"/>
      <point x="305.7578947368421" y="145.2421052631579" type="line"/>
      <point x="304.5894736842106" y="204.67368421052632"/>
      <point x="303.42105263157896" y="272.4315789473684"/>
      <point x="303.2526315789474" y="309.2842105263158" type="curve"/>
      <point x="303.2526315789474" y="443.7263157894737" type="line"/>
      <point x="303.42105263157896" y="480.57894736842104"/>
      <point x="304.5894736842106" y="548.3368421052631"/>
      <point x="305.7578947368421" y="607.7684210526315" type="curve"/>
      <point x="256.7684210526316" y="607.7684210526315" type="line"/>
      <point x="257.9368421052631" y="548.3368421052631"/>
      <point x="259.10526315789474" y="480.57894736842104"/>
      <point x="259.2736842105263" y="443.7263157894737" type="curve"/>
      <point x="259.2736842105263" y="309.2842105263158" type="line"/>
      <point x="259.10526315789474" y="272.4315789473684"/>
      <point x="257.9368421052631" y="204.67368421052632"/>
    </contour>
  </outline>
</glyph>
<glyph name="micro" format="2">
  <advance width="552.5368421052632"/>
  <unicode hex="00B5"/>
  <outline>
    <contour>
      <point x="80.85263157894737" y="-194.33684210526314" type="curve"/>
      <point x="135.96842105263158" y="-192.0" type="line"/>
      <point x="134.37894736842105" y="-117.50526315789473"/>
      <point x="132.95789473684212" y="-52.92631578947368"/>
      <point x="131.2842105263158" y="27.231578947368423" type="curve" smooth="yes"/>
      <point x="131.2842105263158" y="46.473684210526315" type="line"/>
      <point x="119.86315789473684" y="46.473684210526315" type="line"/>
      <point x="143.4421052631579" y="9.568421052631578"/>
      <point x="181.34736842105264" y="-9.589473684210526"/>
      <point x="240.65263157894736" y="-9.589473684210526" type="curve" smooth="yes"/>
      <point x="294.30526315789473" y="-9.589473684210526"/>
      <point x="379.76842105263154" y="54.63157894736842"/>
      <point x="420.17894736842106" y="94.06315789473683" type="curve"/>
      <point x="426.85263157894735" y="94.06315789473683" type="line"/>
      <point x="450.3473684210527" y="0.0" type="line"/>
      <point x="497.8315789473684" y="0.0" type="line"/>
      <point x="484.9157894736842" y="48.10526315789473"/>
      <point x="476.7473684210526" y="83.37894736842107"/>
      <point x="466.7473684210526" y="126.81052631578947" type="curve"/>
      <point x="467.6631578947368" y="271.1684210526316" type="line"/>
      <point x="467.8315789473684" y="353.7684210526316"/>
      <point x="468.8315789473684" y="419.2526315789474"/>
      <point x="469.0" y="494.6736842105263" type="curve"/>
      <point x="416.4842105263158" y="494.6736842105263" type="line"/>
      <point x="417.9052631578947" y="420.17894736842106"/>
      <point x="419.2421052631579" y="354.5157894736842"/>
      <point x="420.57894736842104" y="273.69473684210527" type="curve"/>
      <point x="420.57894736842104" y="143.72631578947366" type="line"/>
      <point x="357.37894736842105" y="84.10526315789474"/>
      <point x="282.17894736842106" y="36.136842105263156"/>
      <point x="246.62105263157895" y="36.136842105263156" type="curve" smooth="yes"/>
      <point x="159.43157894736842" y="36.136842105263156"/>
      <point x="131.2842105263158" y="84.03157894736843"/>
      <point x="131.2842105263158" y="176.57894736842104" type="curve"/>
      <point x="132.20000000000002" y="273.69473684210527" type="line"/>
      <point x="132.3684210526316" y="353.0105263157895"/>
      <point x="132.62105263157895" y="423.77894736842103"/>
      <point x="133.70526315789473" y="497.0105263157895" type="curve"/>
      <point x="80.68421052631578" y="494.6736842105263" type="line"/>
      <point x="82.18947368421053" y="420.17894736842106"/>
      <point x="83.52631578947367" y="354.6842105263157"/>
      <point x="85.1157894736842" y="271.1684210526316" type="curve"/>
      <point x="85.1157894736842" y="28.326315789473686" type="line"/>
      <point x="83.61052631578947" y="-52.92631578947368"/>
      <point x="82.27368421052631" y="-119.84210526315789"/>
    </contour>
  </outline>
</glyph>
<glyph name="paragraph" format="2">
  <advance width="529.7473684210527"/>
  <unicode hex="00B6"/>
  <outline>
    <contour>
      <point x="223.98947368421054" y="308.87368421052633" type="curve" smooth="yes"/>
      <point x="244.07368421052632" y="308.87368421052633" type="line"/>
      <point x="244.07368421052632" y="713.0" type="line"/>
      <point x="223.98947368421054" y="713.0" type="line"/>
      <point x="113.47368421052632" y="713.0"/>
      <point x="37.89473684210526" y="630.0736842105263"/>
      <point x="37.89473684210526" y="513.978947368421" type="curve" smooth="yes"/>
      <point x="37.89473684210526" y="404.88421052631577"/>
      <point x="106.38947368421053" y="308.87368421052633"/>
    </contour>
    <contour>
      <point x="221.82105263157897" y="-222.78947368421052" type="curve"/>
      <point x="265.67368421052635" y="-222.78947368421052" type="line"/>
      <point x="264.421052631579" y="-84.78947368421052"/>
      <point x="263.16842105263163" y="68.21052631578948"/>
      <point x="263.0842105263158" y="106.21052631578948" type="curve"/>
      <point x="263.0842105263158" y="384.0" type="line"/>
      <point x="263.16842105263163" y="422.0"/>
      <point x="264.5894736842106" y="575.0"/>
      <point x="265.92631578947373" y="713.0" type="curve"/>
      <point x="224.66315789473686" y="713.0" type="line"/>
      <point x="224.66315789473686" y="575.0"/>
      <point x="224.66315789473686" y="422.0"/>
      <point x="224.66315789473686" y="384.0" type="curve"/>
      <point x="224.66315789473686" y="106.21052631578948" type="line"/>
      <point x="224.57894736842107" y="68.21052631578948"/>
      <point x="223.1578947368421" y="-84.78947368421052"/>
    </contour>
    <contour>
      <point x="357.12631578947367" y="-222.78947368421052" type="curve"/>
      <point x="400.9789473684211" y="-222.78947368421052" type="line"/>
      <point x="399.64210526315793" y="-84.78947368421052"/>
      <point x="398.22105263157897" y="68.21052631578948"/>
      <point x="398.13684210526316" y="106.21052631578948" type="curve"/>
      <point x="398.13684210526316" y="384.0" type="line"/>
      <point x="398.22105263157897" y="422.0"/>
      <point x="399.64210526315793" y="575.0"/>
      <point x="400.9789473684211" y="713.0" type="curve"/>
      <point x="356.8736842105263" y="713.0" type="line"/>
      <point x="358.2105263157894" y="575.0"/>
      <point x="359.6315789473684" y="422.0"/>
      <point x="359.7157894736842" y="384.0" type="curve"/>
      <point x="359.7157894736842" y="106.21052631578948" type="line"/>
      <point x="359.6315789473684" y="68.21052631578948"/>
      <point x="358.378947368421" y="-84.78947368421052"/>
    </contour>
    <contour>
      <point x="237.05263157894737" y="675.421052631579" type="line"/>
      <point x="336.5473684210526" y="675.421052631579" type="line"/>
      <point x="373.40000000000003" y="675.2526315789473"/>
      <point x="441.1578947368421" y="674.0842105263158"/>
      <point x="500.58947368421053" y="672.9157894736842" type="curve"/>
      <point x="500.58947368421053" y="713.0" type="line"/>
      <point x="441.1578947368421" y="713.0"/>
      <point x="373.40000000000003" y="713.0"/>
      <point x="336.5473684210526" y="713.0" type="curve"/>
      <point x="237.05263157894737" y="713.0" type="line"/>
    </contour>
  </outline>
</glyph>
<glyph name="ordmasculine" format="2">
  <advance width="453.0105263157895"/>
  <unicode hex="00BA"/>
  <outline>
    <contour>
      <point x="227.58947368421053" y="334.0736842105263" type="curve" smooth="yes"/>
      <point x="338.0315789473685" y="334.0736842105263"/>
      <point x="410.11578947368423" y="421.90526315789475"/>
      <point x="410.11578947368423" y="532.4947368421052" type="curve" smooth="yes"/>
      <point x="410.11578947368423" y="641.8315789473684"/>
      <point x="341.2842105263158" y="725.3368421052631"/>
      <point x="227.25263157894736" y="725.3368421052631" type="curve" smooth="yes"/>
      <point x="116.30526315789474" y="725.3368421052631"/>
      <point x="42.89473684210526" y="644.578947368421"/>
      <point x="42.89473684210526" y="532.4947368421052" type="curve" smooth="yes"/>
      <point x="42.89473684210526" y="427.3263157894737"/>
      <point x="109.5578947368421" y="334.0736842105263"/>
    </contour>
    <contour>
      <point x="227.50526315789475" y="372.41052631578947" type="curve"/>
      <point x="129.82105263157894" y="374.57894736842104"/>
      <point x="84.17894736842105" y="449.2842105263158"/>
      <point x="84.17894736842105" y="532.4947368421052" type="curve" smooth="yes"/>
      <point x="84.17894736842105" y="619.1157894736842"/>
      <point x="132.4" y="684.8315789473684"/>
      <point x="227.50526315789475" y="687.0" type="curve"/>
      <point x="317.11578947368423" y="684.6631578947369"/>
      <point x="368.7473684210526" y="624.6947368421053"/>
      <point x="368.7473684210526" y="532.4947368421052" type="curve" smooth="yes"/>
      <point x="368.7473684210526" y="450.2"/>
      <point x="325.10526315789474" y="374.57894736842104"/>
    </contour>
  </outline>
</glyph>
<glyph name="AE" format="2">
  <advance width="961.8850574712644"/>
  <unicode hex="00C6"/>
  <anchor x="499.4597701149425" y="0.0" name="bottom"/>
  <anchor x="499.4597701149425" y="713.0" name="top"/>
  <outline>
    <contour>
      <point x="14.344827586206897" y="0.0" type="curve"/>
      <point x="79.57471264367815" y="0.0" type="line"/>
      <point x="128.632183908046" y="88.16091954022988"/>
      <point x="183.13793103448276" y="185.95402298850573"/>
      <point x="230.19540229885058" y="270.11494252873564" type="curve"/>
      <point x="459.1609195402299" y="668.3908045977012" type="line"/>
      <point x="475.63218390804593" y="668.3908045977012" type="line"/>
      <point x="513.4827586206898" y="668.3908045977012" type="line"/>
      <point x="515.8735632183908" y="713.0" type="line"/>
      <point x="426.1264367816092" y="713.0" type="line"/>
      <point x="386.5977011494253" y="641.816091954023"/>
      <point x="347.4367816091954" y="570.735632183908"/>
      <point x="302.54022988505744" y="489.44827586206895" type="curve"/>
      <point x="159.58620689655172" y="242.0" type="line"/>
      <point x="113.50574712643679" y="165.183908045977"/>
      <point x="60.60919540229885" y="77.183908045977"/>
    </contour>
    <contour>
      <point x="170.17241379310346" y="195.64367816091954" type="line"/>
      <point x="498.8045977011494" y="195.64367816091954" type="line"/>
      <point x="496.78160919540227" y="238.33333333333334" type="line"/>
      <point x="172.5632183908046" y="238.33333333333334" type="line"/>
    </contour>
    <contour>
      <point x="471.1609195402299" y="0.0" type="curve"/>
      <point x="528.5747126436781" y="0.0" type="line"/>
      <point x="528.5747126436781" y="6.126436781609195" type="line"/>
      <point x="527.0229885057472" y="86.57471264367815"/>
      <point x="525.6551724137931" y="157.02298850574712"/>
      <point x="524.1034482758621" y="244.20689655172413" type="curve"/>
      <point x="524.1034482758621" y="468.8735632183908" type="line"/>
      <point x="525.6551724137931" y="556.4252873563219"/>
      <point x="527.0229885057472" y="625.8735632183908"/>
      <point x="528.5747126436781" y="706.8735632183908" type="curve"/>
      <point x="528.5747126436781" y="713.0" type="line"/>
      <point x="471.1609195402299" y="713.0" type="line"/>
      <point x="472.5287356321839" y="633.8390804597701"/>
      <point x="473.0804597701149" y="562.9195402298851"/>
      <point x="474.63218390804593" y="475.0" type="curve"/>
      <point x="474.63218390804593" y="237.26436781609195" type="line"/>
      <point x="473.0804597701149" y="149.89655172413794"/>
      <point x="472.5287356321839" y="80.26436781609196"/>
    </contour>
    <contour>
      <point x="516.4482758620691" y="0.0" type="line"/>
      <point x="900.7241379310345" y="0.0" type="line"/>
      <point x="900.7241379310345" y="50.632183908045974" type="line"/>
      <point x="832.0114942528736" y="49.264367816091955"/>
      <point x="716.8735632183908" y="46.71264367816092"/>
      <point x="653.6896551724138" y="45.3448275862069" type="curve"/>
      <point x="516.4482758620691" y="45.3448275862069" type="line"/>
    </contour>
    <contour>
      <point x="513.8735632183908" y="339.82758620689657" type="line"/>
      <point x="656.0344827586207" y="339.82758620689657" type="line"/>
      <point x="711.3218390804598" y="339.64367816091954"/>
      <point x="838.9885057471265" y="338.2758620689655"/>
      <point x="879.0919540229885" y="338.09195402298855" type="curve"/>
      <point x="879.0919540229885" y="388.17241379310343" type="line"/>
      <point x="815.5632183908046" y="386.98850574712645"/>
      <point x="741.6666666666666" y="385.8045977011494"/>
      <point x="657.0344827586207" y="384.4367816091954" type="curve"/>
      <point x="513.8735632183908" y="384.4367816091954" type="line"/>
    </contour>
    <contour>
      <point x="515.1609195402299" y="667.6551724137931" type="line"/>
      <point x="648.7701149425287" y="667.6551724137931" type="line"/>
      <point x="719.3218390804598" y="666.2873563218391"/>
      <point x="831.2758620689656" y="663.735632183908"/>
      <point x="900.9885057471265" y="662.3678160919541" type="curve"/>
      <point x="900.9885057471265" y="713.0" type="line"/>
      <point x="515.1609195402299" y="713.0" type="line"/>
    </contour>
  </outline>
</glyph>
<glyph name="multiply" format="2">
  <advance width="557.7052631578947"/>
  <unicode hex="00D7"/>
  <outline>
    <contour>
      <point x="453.64210526315793" y="87.2" type="curve"/>
      <point x="487.8315789473684" y="121.38947368421053" type="line"/>
      <point x="444.7368421052632" y="162.3157894736842"/>
      <point x="396.06315789473683" y="209.73684210526315"/>
      <point x="369.7157894736842" y="235.9157894736842" type="curve"/>
      <point x="218.58947368421053" y="387.0421052631579" type="line"/>
      <point x="192.41052631578947" y="413.38947368421054"/>
      <point x="144.9894736842105" y="462.0631578947369"/>
      <point x="104.06315789473685" y="505.1578947368421" type="curve"/>
      <point x="69.87368421052632" y="470.9684210526316" type="line"/>
      <point x="112.96842105263157" y="430.04210526315785"/>
      <point x="161.6421052631579" y="382.62105263157895"/>
      <point x="187.98947368421054" y="356.4421052631579" type="curve"/>
      <point x="339.11578947368423" y="205.31578947368422" type="line"/>
      <point x="365.2947368421053" y="178.96842105263158"/>
      <point x="412.7157894736842" y="130.29473684210527"/>
    </contour>
    <contour>
      <point x="104.06315789473685" y="87.2" type="line"/>
      <point x="144.9894736842105" y="130.29473684210527"/>
      <point x="192.41052631578947" y="178.96842105263158"/>
      <point x="218.58947368421053" y="205.31578947368422" type="curve"/>
      <point x="369.7157894736842" y="356.4421052631579" type="line"/>
      <point x="396.06315789473683" y="382.62105263157895"/>
      <point x="444.7368421052632" y="430.04210526315785"/>
      <point x="487.8315789473684" y="470.9684210526316" type="curve"/>
      <point x="453.64210526315793" y="505.1578947368421" type="line"/>
      <point x="412.7157894736842" y="462.0631578947369"/>
      <point x="365.2947368421053" y="413.38947368421054"/>
      <point x="339.11578947368423" y="387.0421052631579" type="curve"/>
      <point x="187.98947368421054" y="235.9157894736842" type="line"/>
      <point x="161.6421052631579" y="209.73684210526315"/>
      <point x="112.96842105263157" y="162.3157894736842"/>
      <point x="69.87368421052632" y="121.38947368421053" type="curve"/>
    </contour>
  </outline>
</glyph>
<glyph name="Thorn" format="2">
  <advance width="615.7011494252874"/>
  <unicode hex="00DE"/>
  <outline>
    <contour>
      <point x="101.56321839080461" y="0.0" type="curve"/>
      <point x="158.97701149425288" y="0.0" type="line"/>
      <point x="157.60919540229887" y="80.44827586206897"/>
      <point x="156.0574712643678" y="149.89655172413794"/>
      <point x="154.68965517241378" y="237.26436781609195" type="curve"/>
      <point x="154.68965517241378" y="475.0" type="line"/>
      <point x="156.24137931034483" y="562.9195402298851"/>
      <point x="157.60919540229887" y="632.3678160919541"/>
      <point x="158.97701149425288" y="713.0" type="curve"/>
      <point x="101.56321839080461" y="713.0" type="line"/>
      <point x="102.93103448275863" y="632.3678160919541"/>
      <point x="103.48275862068967" y="562.9195402298851"/>
      <point x="105.0344827586207" y="475.0" type="curve"/>
      <point x="105.0344827586207" y="237.26436781609195" type="line"/>
      <point x="103.48275862068967" y="149.89655172413794"/>
      <point x="102.93103448275863" y="80.26436781609196"/>
    </contour>
    <contour>
      <point x="305.5632183908046" y="164.77011494252875" type="curve"/>
      <point x="507.8045977011494" y="164.77011494252875"/>
      <point x="568.2758620689656" y="258.6896551724138"/>
      <point x="568.2758620689656" y="383.264367816092" type="curve" smooth="yes"/>
      <point x="568.2758620689656" y="511.3333333333333"/>
      <point x="495.7011494252873" y="577.4137931034483"/>
      <point x="339.1264367816092" y="577.4137931034483" type="curve"/>
      <point x="255.98850574712642" y="577.2298850574713"/>
      <point x="190.11494252873564" y="576.2298850574713"/>
      <point x="147.66666666666666" y="576.2298850574713" type="curve"/>
      <point x="147.66666666666666" y="531.6206896551724" type="line"/>
      <point x="335.8390804597701" y="531.6206896551724" type="line" smooth="yes"/>
      <point x="412.7931034482759" y="531.6206896551724"/>
      <point x="517.0689655172414" y="521.7011494252873"/>
      <point x="517.0689655172414" y="383.08045977011494" type="curve" smooth="yes"/>
      <point x="517.0689655172414" y="258.98850574712645"/>
      <point x="450.48275862068965" y="209.7471264367816"/>
      <point x="299.5977011494253" y="209.7471264367816" type="curve" smooth="yes"/>
      <point x="147.66666666666666" y="209.7471264367816" type="line"/>
      <point x="147.66666666666666" y="165.95402298850576" type="line"/>
      <point x="187.29885057471265" y="165.95402298850576"/>
      <point x="254.9310344827586" y="164.95402298850576"/>
    </contour>
  </outline>
</glyph>
<glyph name="eth" format="2">
  <advance width="588.919540229885"/>
  <unicode hex="00F0"/>
  <outline>
    <contour>
      <point x="296.55172413793105" y="-9.551724137931034" type="curve" smooth="yes"/>
      <point x="449.3333333333333" y="-9.551724137931034"/>
      <point x="530.5977011494252" y="109.36781609195403"/>
      <point x="530.5977011494252" y="302.0" type="curve" smooth="yes"/>
      <point x="530.5977011494252" y="448.81609195402297"/>
      <point x="479.67816091954023" y="555.919540229885"/>
      <point x="396.39080459770116" y="645.919540229885" type="curve"/>
      <point x="355.2068965517241" y="683.919540229885"/>
      <point x="314.8390804597701" y="718.471264367816"/>
      <point x="275.02298850574715" y="751.471264367816" type="curve"/>
      <point x="226.3103448275862" y="726.0574712643679" type="line"/>
      <point x="271.3333333333333" y="691.7701149425287"/>
      <point x="312.2528735632184" y="660.2183908045978"/>
      <point x="351.98850574712645" y="629.6666666666666" type="curve"/>
      <point x="437.9655172413793" y="540.9540229885057"/>
      <point x="483.04597701149424" y="434.3448275862069"/>
      <point x="483.04597701149424" y="303.39080459770116" type="curve" smooth="yes"/>
      <point x="483.04597701149424" y="134.98850574712642"/>
      <point x="423.0919540229885" y="37.770114942528735"/>
      <point x="296.367816091954" y="34.58620689655172" type="curve"/>
      <point x="168.01149425287355" y="37.770114942528735"/>
      <point x="105.6896551724138" y="137.33333333333334"/>
      <point x="105.6896551724138" y="242.71264367816093" type="curve" smooth="yes"/>
      <point x="105.6896551724138" y="347.0919540229885"/>
      <point x="166.01149425287358" y="438.39080459770116"/>
      <point x="292.735632183908" y="441.39080459770116" type="curve"/>
      <point x="325.08045977011494" y="441.2068965517241"/>
      <point x="407.7471264367816" y="416.67816091954023"/>
      <point x="487.9655172413793" y="351.7241379310345" type="curve"/>
      <point x="491.82758620689657" y="365.4022988505747"/>
      <point x="491.35632183908046" y="391.55172413793105"/>
      <point x="486.7586206896552" y="416.4942528735632" type="curve"/>
      <point x="464.7586206896552" y="414.02298850574715" type="line"/>
      <point x="405.0689655172414" y="454.81609195402297"/>
      <point x="327.0919540229885" y="485.5287356321839"/>
      <point x="284.0919540229885" y="485.5287356321839" type="curve" smooth="yes"/>
      <point x="148.0344827586207" y="485.5287356321839"/>
      <point x="58.32183908045977" y="379.632183908046"/>
      <point x="58.32183908045977" y="243.632183908046" type="curve" smooth="yes"/>
      <point x="58.32183908045977" y="110.44827586206897"/>
      <point x="145.77011494252872" y="-9.551724137931034"/>
    </contour>
    <contour>
      <point x="181.68965517241378" y="563.6206896551724" type="line"/>
      <point x="238.42528735632183" y="581.5402298850574"/>
      <point x="290.9770114942529" y="597.2758620689656"/>
      <point x="333.8965517241379" y="611.1954022988506" type="curve"/>
      <point x="379.264367816092" y="624.5632183908046" type="line"/>
      <point x="423.367816091954" y="636.9310344827586"/>
      <point x="476.4712643678161" y="651.4827586206897"/>
      <point x="533.2068965517241" y="667.0344827586207" type="curve"/>
      <point x="521.528735632184" y="707.9655172413793" type="line"/>
      <point x="463.7931034482759" y="690.2298850574713"/>
      <point x="411.05747126436785" y="674.3103448275862"/>
      <point x="368.32183908045977" y="660.5747126436781" type="curve"/>
      <point x="322.7701149425287" y="647.0229885057471" type="line"/>
      <point x="280.48275862068965" y="635.471264367816"/>
      <point x="225.7471264367816" y="620.2873563218391"/>
      <point x="168.82758620689657" y="604.735632183908" type="curve"/>
    </contour>
  </outline>
</glyph>
<glyph name="divide" format="2">
  <advance width="562.5263157894736"/>
  <unicode hex="00F7"/>
  <outline>
    <contour>
      <point x="67.47368421052632" y="271.93684210526317" type="line"/>
      <point x="126.90526315789474" y="273.1052631578947"/>
      <point x="194.66315789473683" y="274.2736842105263"/>
      <point x="231.5157894736842" y="274.4421052631579" type="curve"/>
      <point x="331.0105263157895" y="274.4421052631579" type="line"/>
      <point x="367.86315789473684" y="274.2736842105263"/>
      <point x="435.62105263157895" y="273.1052631578947"/>
      <point x="495.05263157894734" y="271.93684210526317" type="curve"/>
      <point x="495.05263157894734" y="320.4210526315789" type="line"/>
      <point x="435.62105263157895" y="319.2526315789474"/>
      <point x="367.86315789473684" y="318.08421052631576"/>
      <point x="331.0105263157895" y="317.9157894736842" type="curve"/>
      <point x="231.5157894736842" y="317.9157894736842" type="line"/>
      <point x="194.66315789473683" y="318.08421052631576"/>
      <point x="126.90526315789474" y="319.2526315789474"/>
      <point x="67.47368421052632" y="320.4210526315789" type="curve"/>
    </contour>
    <contour>
      <point x="280.21936842105265" y="72.74778947368421" type="curve" smooth="yes"/>
      <point x="311.30821052631575" y="72.74778947368421"/>
      <point x="330.1305263157895" y="88.61052631578947"/>
      <point x="330.1305263157895" y="125.83073684210527" type="curve" smooth="yes"/>
      <point x="330.1305263157895" y="157.05726315789474"/>
      <point x="311.30821052631575" y="171.792"/>
      <point x="280.2901052631579" y="171.792" type="curve" smooth="yes"/>
      <point x="250.11705263157893" y="171.792"/>
      <point x="230.37894736842105" y="157.05726315789474"/>
      <point x="230.37894736842105" y="125.83073684210527" type="curve" smooth="yes"/>
      <point x="230.37894736842105" y="88.61052631578947"/>
      <point x="250.11705263157893" y="72.74778947368421"/>
    </contour>
    <contour>
      <point x="280.21936842105265" y="418.74778947368424" type="curve" smooth="yes"/>
      <point x="311.3082105263158" y="418.74778947368424"/>
      <point x="330.1305263157895" y="434.61052631578946"/>
      <point x="330.1305263157895" y="471.83073684210524" type="curve" smooth="yes"/>
      <point x="330.1305263157895" y="503.05726315789474"/>
      <point x="311.3082105263158" y="517.792"/>
      <point x="280.2901052631579" y="517.792" type="curve" smooth="yes"/>
      <point x="250.11705263157896" y="517.792"/>
      <point x="230.37894736842105" y="503.05726315789474"/>
      <point x="230.37894736842105" y="471.83073684210524" type="curve" smooth="yes"/>
      <point x="230.37894736842105" y="434.61052631578946"/>
      <point x="250.11705263157896" y="418.74778947368424"/>
    </contour>
  </outline>
</glyph>
